BasicallyASansSerif-Light.ufo
<glyph name="exclamation" format="2">
  <advance width="377.4797687861272"/>
  <unicode hex="0021"/>
  <outline>
    <contour>
      <point x="148.16185" y="280.49133" type="line"/>
      <point x="229.31792" y="280.49133" type="line"/>
      <point x="229.31792" y="1080.0" type="line"/>
      <point x="148.16185" y="1080.0" type="line"/>
    </contour>
    <contour>
      <point x="266.77457" y="63.03468" type="curve" smooth="yes"/>
      <point x="266.77457" y="106.1032"/>
      <point x="231.8084" y="141.06936"/>
      <point x="188.73988" y="141.06936" type="curve" smooth="yes"/>
      <point x="145.67137" y="141.06936"/>
      <point x="110.7052" y="106.1032"/>
      <point x="110.7052" y="63.03468" type="curve" smooth="yes"/>
      <point x="110.7052" y="19.96617"/>
      <point x="145.67137" y="-15.0"/>
      <point x="188.73988" y="-15.0" type="curve" smooth="yes"/>
      <point x="231.8084" y="-15.0"/>
      <point x="266.77457" y="19.96617"/>
    </contour>
  </outline>
</glyph>
<glyph name="quote_dbl" format="2">
  <advance width="489.7456647398843"/>
  <unicode hex="0022"/>
  <outline>
    <contour>
      <point x="297.15607" y="812.04841" type="line"/>
      <point x="378.31214" y="812.04841" type="line"/>
      <point x="378.31214" y="1077.26879" type="line"/>
      <point x="297.15607" y="1077.26879" type="line"/>
    </contour>
    <contour>
      <point x="111.43353" y="812.04841" type="line"/>
      <point x="192.5896" y="812.04841" type="line"/>
      <point x="192.5896" y="1077.26879" type="line"/>
      <point x="111.43353" y="1077.26879" type="line"/>
    </contour>
  </outline>
</glyph>
<glyph name="quotedbl" format="2">
  <advance width="508.5780346820809"/>
  <unicode hex="0022"/>
  <outline>
    <contour>
      <point x="316.71676" y="789.71098" type="line"/>
      <point x="397.87283" y="789.71098" type="line"/>
      <point x="397.87283" y="1080.0" type="line"/>
      <point x="316.71676" y="1080.0" type="line"/>
    </contour>
    <contour>
      <point x="110.7052" y="789.71098" type="line"/>
      <point x="191.86127" y="789.71098" type="line"/>
      <point x="191.86127" y="1080.0" type="line"/>
      <point x="110.7052" y="1080.0" type="line"/>
    </contour>
  </outline>
</glyph>
<glyph name="numbersign" format="2">
  <advance width="940.9311595443494"/>
  <unicode hex="0023"/>
  <outline>
    <contour>
      <point x="158.3703384399414" y="0" type="line"/>
      <point x="241.04537963867188" y="0" type="line"/>
      <point x="300.3285675048828" y="304.9855499267578" type="line"/>
      <point x="549.7691268920898" y="304.9855499267578" type="line"/>
      <point x="490.4859390258789" y="0" type="line"/>
      <point x="573.1609802246094" y="0" type="line"/>
      <point x="632.4441680908203" y="304.9855499267578" type="line"/>
      <point x="848.0809173583984" y="304.9855499267578" type="line"/>
      <point x="848.0809173583984" y="386.14161682128906" type="line"/>
      <point x="648.2193069458008" y="386.14161682128906" type="line"/>
      <point x="707.5024948120117" y="691.1271667480469" type="line"/>
      <point x="923.1392517089844" y="691.1271667480469" type="line"/>
      <point x="923.1392517089844" y="772.2832412719727" type="line"/>
      <point x="723.2776336669922" y="772.2832412719727" type="line"/>
      <point x="782.5608215332031" y="1077.2687911987305" type="line"/>
      <point x="699.8857803344727" y="1077.2687911987305" type="line"/>
      <point x="640.6025924682617" y="772.2832412719727" type="line"/>
      <point x="391.1620330810547" y="772.2832412719727" type="line"/>
      <point x="450.4452209472656" y="1077.2687911987305" type="line"/>
      <point x="367.7701721191406" y="1077.2687911987305" type="line"/>
      <point x="308.4869918823242" y="772.2832412719727" type="line"/>
      <point x="92.85022735595703" y="772.2832412719727" type="line"/>
      <point x="92.85022735595703" y="691.1271667480469" type="line"/>
      <point x="292.7118453979492" y="691.1271667480469" type="line"/>
      <point x="233.4286651611328" y="386.14161682128906" type="line"/>
      <point x="17.791908264160156" y="386.14161682128906" type="line"/>
      <point x="17.791908264160156" y="304.9855499267578" type="line"/>
      <point x="217.6535186767578" y="304.9855499267578" type="line"/>
    </contour>
    <contour>
      <point x="316.1037063598633" y="386.14161682128906" type="line"/>
      <point x="375.3868942260742" y="691.1271667480469" type="line"/>
      <point x="624.8274536132812" y="691.1271667480469" type="line"/>
      <point x="565.5442657470703" y="386.14161682128906" type="line"/>
    </contour>
  </outline>
</glyph>
<glyph name="dollar" format="2">
  <advance width="900.8323699421966"/>
  <unicode hex="0024"/>
  <outline>
    <contour>
      <point x="404.3617111334859" y="604.9315991973359" type="line"/>
      <point x="252.48744884323" y="631.7111463642752"/>
      <point x="171.05202" y="720.4447286892636"/>
      <point x="171.05202" y="808.91618" type="curve"/>
      <point x="171.05202" y="913.08945470194"/>
      <point x="277.37910904164903" y="999.46835861424"/>
      <point x="415.11328887939453" y="1012.2087860107422" type="curve"/>
      <point x="415.11328887939453" y="603.0358047485352" type="line"/>
    </contour>
    <contour>
      <point x="58.68208312988281" y="286.6907501220703" type="line"/>
      <point x="58.68208" y="129.55283275099998"/>
      <point x="215.17971212834323" y="-0.021272357425715427"/>
      <point x="415.11328887939453" y="-13.780960083007812" type="curve"/>
      <point x="415.11328887939453" y="-124.8554916381836" type="line"/>
      <point x="485.71907806396484" y="-124.8554916381836" type="line"/>
      <point x="485.71907806396484" y="-13.781776428222656" type="line"/>
      <point x="685.652657871657" y="-0.02127235742570477"/>
      <point x="842.15029" y="129.55283275099993"/>
      <point x="842.1502900000002" y="286.69075" type="curve"/>
      <point x="842.15029" y="413.3951399908769"/>
      <point x="734.9622706279878" y="546.63778547836"/>
      <point x="506.0679683931746" y="586.9980382934594" type="curve"/>
      <point x="485.71907806396484" y="590.5860977172852" type="line"/>
      <point x="485.71907806396484" y="1012.209098815918" type="line"/>
      <point x="623.4532609583509" y="999.46835861424"/>
      <point x="729.78035" y="913.08945470194"/>
      <point x="729.7803500000001" y="808.91618" type="curve"/>
      <point x="810.9364166259766" y="808.9161834716797" type="line"/>
      <point x="810.93642" y="957.1866170544599"/>
      <point x="668.3498720893351" y="1079.5422564753915"/>
      <point x="485.71907806396484" y="1093.6356048583984" type="curve"/>
      <point x="485.71907806396484" y="1204.8554916381836" type="line"/>
      <point x="415.11328887939453" y="1204.8554916381836" type="line"/>
      <point x="415.11328887939453" y="1093.636360168457" type="line"/>
      <point x="232.48249791066473" y="1079.5422564753915"/>
      <point x="89.89595000000007" y="957.1866170544599"/>
      <point x="89.89595000000013" y="808.9161799999999" type="curve"/>
      <point x="89.89595" y="686.7038794438313"/>
      <point x="190.5992723336228" y="560.2156524990212"/>
      <point x="397.3154050510442" y="523.7660239592494" type="curve"/>
      <point x="415.11328887939453" y="520.6277770996094" type="line"/>
      <point x="415.11328887939453" y="67.57794189453125" type="line"/>
      <point x="260.0579291491979" y="80.03506855191408"/>
      <point x="139.8381500000001" y="173.6407151286"/>
      <point x="139.83815" y="286.69075" type="curve"/>
    </contour>
    <contour>
      <point x="499.02166986691145" y="505.83246621818614" type="line"/>
      <point x="672.4147241023846" y="475.2586185325091"/>
      <point x="760.99422" y="380.2574588017704"/>
      <point x="760.99422" y="286.69075" type="curve"/>
      <point x="760.99422" y="173.64071512859994"/>
      <point x="640.7744408508022" y="80.0350685519141"/>
      <point x="485.71907806396484" y="67.57632446289062" type="curve"/>
      <point x="485.71907806396484" y="508.1780700683594" type="line"/>
    </contour>
  </outline>
</glyph>
<glyph name="percent" format="2">
  <advance width="1217.4302229562343"/>
  <unicode hex="0025"/>
  <outline>
    <contour>
      <point x="540.7134599504542" y="848.7819983484723" type="curve" smooth="yes"/>
      <point x="540.7134599504542" y="984.6734116543353"/>
      <point x="430.38687160478935" y="1095.0"/>
      <point x="294.49545829892645" y="1095.0" type="curve" smooth="yes"/>
      <point x="158.6040449930636" y="1095.0"/>
      <point x="48.27745664739885" y="984.6734116543353"/>
      <point x="48.27745664739885" y="848.7819983484723" type="curve" smooth="yes"/>
      <point x="48.27745664739882" y="712.8905850426094"/>
      <point x="158.60404499306355" y="602.5639966969446"/>
      <point x="294.49545829892645" y="602.5639966969446" type="curve" smooth="yes"/>
      <point x="430.38687160478935" y="602.5639966969445"/>
      <point x="540.7134599504541" y="712.8905850426094"/>
    </contour>
    <contour>
      <point x="157.59191680050813" y="0.0" type="line"/>
      <point x="245.99993204470852" y="0.0" type="line"/>
      <point x="1059.8383061557263" y="1080.0" type="line"/>
      <point x="971.4302909115261" y="1080.0" type="line"/>
    </contour>
    <contour>
      <point x="459.5573905862923" y="848.7819983484723" type="curve" smooth="yes"/>
      <point x="459.5573905862923" y="757.6818386888522"/>
      <point x="385.5956179585466" y="683.7200660611064"/>
      <point x="294.49545829892645" y="683.7200660611065" type="curve" smooth="yes"/>
      <point x="203.39529863930633" y="683.7200660611065"/>
      <point x="129.4335260115607" y="757.6818386888522"/>
      <point x="129.4335260115607" y="848.7819983484723" type="curve" smooth="yes"/>
      <point x="129.4335260115607" y="939.8821580080923"/>
      <point x="203.39529863930636" y="1013.8439306358381"/>
      <point x="294.49545829892645" y="1013.8439306358381" type="curve" smooth="yes"/>
      <point x="385.59561795854665" y="1013.8439306358381"/>
      <point x="459.5573905862923" y="939.8821580080923"/>
    </contour>
    <contour>
      <point x="1169.1527663088355" y="231.21800165152766" type="curve" smooth="yes"/>
      <point x="1169.1527663088355" y="367.1094149573906"/>
      <point x="1058.8261779631707" y="477.43600330305526"/>
      <point x="922.9347646573079" y="477.43600330305526" type="curve" smooth="yes"/>
      <point x="787.0433513514452" y="477.43600330305526"/>
      <point x="676.7167630057803" y="367.1094149573906"/>
      <point x="676.7167630057803" y="231.2180016515277" type="curve" smooth="yes"/>
      <point x="676.7167630057802" y="95.32658834566476"/>
      <point x="787.0433513514449" y="-14.99999999999996"/>
      <point x="922.9347646573079" y="-14.99999999999999" type="curve" smooth="yes"/>
      <point x="1058.8261779631707" y="-15.000000000000018"/>
      <point x="1169.1527663088355" y="95.32658834566467"/>
    </contour>
    <contour>
      <point x="1087.9966969446737" y="231.21800165152766" type="curve" smooth="yes"/>
      <point x="1087.9966969446737" y="140.11784199190748"/>
      <point x="1014.034924316928" y="66.15606936416182"/>
      <point x="922.9347646573079" y="66.15606936416185" type="curve" smooth="yes"/>
      <point x="831.8346049976877" y="66.15606936416185"/>
      <point x="757.8728323699422" y="140.11784199190754"/>
      <point x="757.8728323699422" y="231.21800165152766" type="curve" smooth="yes"/>
      <point x="757.8728323699422" y="322.31816131114783"/>
      <point x="831.8346049976877" y="396.2799339388934"/>
      <point x="922.9347646573079" y="396.2799339388934" type="curve" smooth="yes"/>
      <point x="1014.034924316928" y="396.2799339388934"/>
      <point x="1087.9966969446737" y="322.3181613111478"/>
    </contour>
  </outline>
</glyph>
<glyph name="ampersand" format="2">
  <advance width="959.0699000891807"/>
  <unicode hex="0026"/>
  <outline>
    <contour>
      <point x="291.0302276611328" y="762.8777694702148" type="line"/>
      <point x="267.3251" y="790.43752"/>
      <point x="254.28902" y="825.58435"/>
      <point x="254.28902" y="861.93642" type="curve"/>
      <point x="254.28902" y="945.77646"/>
      <point x="322.35649" y="1013.84393"/>
      <point x="406.19653" y="1013.84393" type="curve" smooth="yes"/>
      <point x="490.03657" y="1013.84393"/>
      <point x="558.10405" y="945.77646"/>
      <point x="558.10405" y="861.93642" type="curve"/>
      <point x="558.10405" y="807.35739"/>
      <point x="529.28013" y="759.42657"/>
      <point x="485.99267" y="732.69287" type="curve"/>
      <point x="375.6226577758789" y="664.5299987792969" type="line"/>
    </contour>
    <contour>
      <point x="248.03419" y="490.38988" type="curve"/>
      <point x="359.2802200317383" y="559.0761260986328" type="line"/>
      <point x="690.4240341186523" y="174.08592224121094" type="line"/>
      <point x="618.6637033917841" y="107.13927463928567"/>
      <point x="522.38073662376" y="66.15607000000001"/>
      <point x="416.60115999999994" y="66.15607000000001" type="curve"/>
      <point x="266.72273" y="66.15607"/>
      <point x="145.04046" y="176.18295"/>
      <point x="145.04046" y="311.7052" type="curve"/>
      <point x="145.04046" y="386.27307"/>
      <point x="185.94573" y="452.05482"/>
    </contour>
    <contour>
      <point x="63.88439" y="311.7052" type="curve"/>
      <point x="63.88439" y="131.39169"/>
      <point x="221.93148" y="-15.0"/>
      <point x="416.60116" y="-15.0" type="curve"/>
      <point x="542.58723055043" y="-15.0"/>
      <point x="657.3665618747581" y="33.363380498328404"/>
      <point x="743.3702087402344" y="112.53031921386719" type="curve"/>
      <point x="840.1615524291992" y="0" type="line"/>
      <point x="947.2086334228516" y="0" type="line"/>
      <point x="798.63623046875" y="172.73135375976562" type="line"/>
      <point x="861.7824402259275" y="254.33412939170722"/>
      <point x="899.3757199999999" y="356.69880048912"/>
      <point x="899.37572" y="467.77457000000004" type="curve"/>
      <point x="818.2196502685547" y="467.7745666503906" type="line"/>
      <point x="818.21965" y="381.3806490272"/>
      <point x="790.8815321574615" y="301.32150333109144"/>
      <point x="744.3916015625" y="235.7965545654297" type="curve"/>
      <point x="429.1967086791992" y="602.2444152832031" type="line"/>
      <point x="528.6106491088867" y="663.6252136230469" type="line"/>
      <point x="595.03875" y="704.63968"/>
      <point x="639.26012" y="778.19333"/>
      <point x="639.26012" y="861.93642" type="curve"/>
      <point x="639.26012" y="990.56771"/>
      <point x="534.82782" y="1095.0"/>
      <point x="406.19653" y="1095.0" type="curve" smooth="yes"/>
      <point x="277.56524" y="1095.0"/>
      <point x="173.13295" y="990.56771"/>
      <point x="173.13295" y="861.93642" type="curve"/>
      <point x="173.13295" y="806.16338"/>
      <point x="193.13352" y="752.23948"/>
      <point x="229.50303" y="709.95603" type="curve"/>
      <point x="305.71240234375" y="621.3544616699219" type="line"/>
      <point x="205.44847106933594" y="559.4329528808594" type="line"/>
      <point x="120.20398" y="506.78722"/>
      <point x="63.88439" y="415.41068"/>
    </contour>
  </outline>
</glyph>
<glyph name="quote" format="2">
  <advance width="304.0231213872832"/>
  <unicode hex="0027"/>
  <outline>
    <contour>
      <point x="111.43353" y="812.04841" type="line"/>
      <point x="192.5896" y="812.04841" type="line"/>
      <point x="192.5896" y="1077.26879" type="line"/>
      <point x="111.43353" y="1077.26879" type="line"/>
    </contour>
  </outline>
</glyph>
<glyph name="quotesingle" format="2">
  <advance width="302.56647398843927"/>
  <unicode hex="0027"/>
  <outline>
    <contour>
      <point x="110.70520231213872" y="778.78612716763" type="line"/>
      <point x="191.86127167630056" y="778.78612716763" type="line"/>
      <point x="191.86127167630056" y="1069.0751445086705" type="line"/>
      <point x="110.70520231213872" y="1069.0751445086705" type="line"/>
    </contour>
  </outline>
</glyph>
<glyph name="parenleft" format="2">
  <advance width="415.2504314797462"/>
  <unicode hex="0028"/>
  <outline>
    <contour>
      <point x="377.3776" y="-40.57803" type="line"/>
      <point x="178.57741" y="343.05839"/>
      <point x="178.57741" y="799.36936"/>
      <point x="377.3776" y="1183.00578" type="curve"/>
      <point x="286.66891" y="1183.00578" type="line"/>
      <point x="100.60554" y="796.44068"/>
      <point x="100.60555" y="345.98684"/>
      <point x="286.66892" y="-40.57803" type="curve"/>
    </contour>
  </outline>
</glyph>
<glyph name="parenright" format="2">
  <advance width="415.2504314797462"/>
  <unicode hex="0029"/>
  <outline>
    <contour>
      <point x="37.87283" y="-40.57803" type="curve"/>
      <point x="128.58151" y="-40.57803" type="line"/>
      <point x="314.64488" y="345.98684"/>
      <point x="314.64489" y="796.44068"/>
      <point x="128.58152" y="1183.00578" type="curve"/>
      <point x="37.87283" y="1183.00578" type="line"/>
      <point x="236.67302" y="799.36936"/>
      <point x="236.67302" y="343.05839"/>
    </contour>
  </outline>
</glyph>
<glyph name="asterisk" format="2">
  <advance width="756.4200342022019"/>
  <unicode hex="002A"/>
  <outline>
    <contour>
      <point x="337.6319808959961" y="436.9942169189453" type="line"/>
      <point x="418.78804779052734" y="436.9942169189453" type="line"/>
      <point x="418.78804779052734" y="688.2138977050781" type="line"/>
      <point x="636.3506698608398" y="562.6040573120117" type="line"/>
      <point x="676.9287033081055" y="632.8872680664062" type="line"/>
      <point x="459.36607360839844" y="758.4971084594727" type="line"/>
      <point x="676.9287033081055" y="884.1069488525391" type="line"/>
      <point x="636.3506698608398" y="954.3901596069336" type="line"/>
      <point x="418.78804779052734" y="828.7803192138672" type="line"/>
      <point x="418.78804779052734" y="1080" type="line"/>
      <point x="337.6319808959961" y="1080" type="line"/>
      <point x="337.6319808959961" y="828.7803192138672" type="line"/>
      <point x="120.0693588256836" y="954.3901596069336" type="line"/>
      <point x="79.4913330078125" y="884.1069488525391" type="line"/>
      <point x="297.053955078125" y="758.4971084594727" type="line"/>
      <point x="79.4913330078125" y="632.8872680664062" type="line"/>
      <point x="120.0693588256836" y="562.6040573120117" type="line"/>
      <point x="337.6319808959961" y="688.2138977050781" type="line"/>
    </contour>
  </outline>
</glyph>
<glyph name="plus" format="2">
  <advance width="990.7283236994217"/>
  <unicode hex="002B"/>
  <outline>
    <contour>
      <point x="111.43353271484375" y="447.39884185791016" type="line"/>
      <point x="454.7861328125" y="447.39884185791016" type="line"/>
      <point x="454.7861328125" y="104.0462417602539" type="line"/>
      <point x="535.9421997070312" y="104.0462417602539" type="line"/>
      <point x="535.9421997070312" y="447.39884185791016" type="line"/>
      <point x="879.2947998046875" y="447.39884185791016" type="line"/>
      <point x="879.2947998046875" y="528.5549087524414" type="line"/>
      <point x="535.9421997070312" y="528.5549087524414" type="line"/>
      <point x="535.9421997070312" y="871.9075088500977" type="line"/>
      <point x="454.7861328125" y="871.9075088500977" type="line"/>
      <point x="454.7861328125" y="528.5549087524414" type="line"/>
      <point x="111.43353271484375" y="528.5549087524414" type="line"/>
    </contour>
  </outline>
</glyph>
<glyph name="comma" format="2">
  <advance width="356.796699923233"/>
  <unicode hex="002C"/>
  <outline>
    <contour>
      <point x="144.57223510742188" y="-238.78612518310547" type="line"/>
      <point x="197.4463133035016" y="-147.20553728409266"/>
      <point x="225.28224905618106" y="-43.320410778870055"/>
      <point x="225.28224905618106" y="62.42774566473988" type="curve"/>
      <point x="225.2822494506836" y="165.43352508544922" type="line"/>
      <point x="144.12618255615234" y="165.43352508544922" type="line"/>
      <point x="144.12618255615234" y="62.42774200439453" type="line"/>
      <point x="144.1261796920192" y="-29.0745451439796"/>
      <point x="120.04016274540018" y="-118.96478414072665"/>
      <point x="74.28901734104048" y="-198.2080924855491" type="curve"/>
    </contour>
  </outline>
</glyph>
<glyph name="hyphen" format="2">
  <advance width="720.5843734997601"/>
  <unicode hex="002D"/>
  <outline>
    <contour>
      <point x="110.87758" y="445.89534" type="line"/>
      <point x="609.70679" y="445.89534" type="line"/>
      <point x="609.70679" y="530.40807" type="line"/>
      <point x="110.87758" y="530.40807" type="line"/>
    </contour>
  </outline>
</glyph>
<glyph name="period" format="2">
  <advance width="346.26589595375725"/>
  <unicode hex="002E"/>
  <outline>
    <contour>
      <point x="251.16763005780348" y="63.034682080924846" type="curve" smooth="yes"/>
      <point x="251.16763005780348" y="106.10319520231212"/>
      <point x="216.2014610982659" y="141.06936416184968"/>
      <point x="173.1329479768786" y="141.06936416184968" type="curve" smooth="yes"/>
      <point x="130.06443485549133" y="141.06936416184968"/>
      <point x="95.09826589595376" y="106.10319520231214"/>
      <point x="95.09826589595376" y="63.03468208092485" type="curve" smooth="yes"/>
      <point x="95.09826589595376" y="19.96616895953757"/>
      <point x="130.06443485549133" y="-15.000000000000004"/>
      <point x="173.1329479768786" y="-15.000000000000004" type="curve" smooth="yes"/>
      <point x="216.20146109826587" y="-15.000000000000018"/>
      <point x="251.16763005780348" y="19.966168959537548"/>
    </contour>
  </outline>
</glyph>
<glyph name="slash" format="2">
  <advance width="728.4924958018784"/>
  <unicode hex="002F"/>
  <outline>
    <contour>
      <point x="111.43353" y="-62.42775" type="line"/>
      <point x="197.79801" y="-62.42775" type="line"/>
      <point x="663.87978" y="1218.12139" type="line"/>
      <point x="577.51529" y="1218.12139" type="line"/>
    </contour>
  </outline>
</glyph>
<glyph name="zero" format="2">
  <advance width="918.7043398943831"/>
  <unicode hex="0030"/>
  <outline>
    <contour>
      <point x="738.626731773959" y="368.83683013916016" type="line"/>
      <point x="738.6267327844599" y="163.86609265853056"/>
      <point x="590.43115781131" y="69.56228"/>
      <point x="459.35217" y="69.56228" type="curve"/>
      <point x="328.2731821886901" y="69.56228000000002"/>
      <point x="180.077611849959" y="163.8660925889504"/>
      <point x="180.07760979997278" y="368.83683" type="curve"/>
      <point x="180.0776064011991" y="708.66796875" type="line"/>
      <point x="180.0776043512129" y="913.6387062306296"/>
      <point x="328.2731821886901" y="1007.94252"/>
      <point x="459.35217" y="1007.94252" type="curve"/>
      <point x="590.4309209715952" y="1007.94252"/>
      <point x="738.6267290880976" y="913.638904706341"/>
      <point x="738.6267300985995" y="708.66797" type="curve"/>
    </contour>
    <contour>
      <point x="95.32308962069193" y="368.83683013916016" type="line"/>
      <point x="95.32308934839182" y="110.51896469128121"/>
      <point x="285.05625788673774" y="-14.144439999999978"/>
      <point x="459.35217" y="-14.14444" type="curve"/>
      <point x="633.6480821132624" y="-14.14444"/>
      <point x="823.3812509573838" y="110.51896462170117"/>
      <point x="823.3812499196549" y="368.83683" type="curve"/>
      <point x="823.3812485544662" y="708.66796875" type="line"/>
      <point x="823.3812475167372" y="966.985834197879"/>
      <point x="633.6480821132623" y="1091.64925"/>
      <point x="459.35217" y="1091.64925" type="curve"/>
      <point x="285.0562578867376" y="1091.64925"/>
      <point x="95.32309025121752" y="966.9858353782988"/>
      <point x="95.32308997891744" y="708.66797" type="curve"/>
    </contour>
  </outline>
</glyph>
<glyph name="one" format="2">
  <advance width="662.9826589595375"/>
  <unicode hex="0031"/>
  <outline>
    <contour>
      <point x="335.13294982910156" y="0" type="line"/>
      <point x="416.2890167236328" y="0" type="line"/>
      <point x="416.2890167236328" y="1077.2687911987305" type="line"/>
      <point x="335.13294982910156" y="1077.2687911987305" type="line"/>
      <point x="147.8497085571289" y="969.1407623291016" type="line"/>
      <point x="147.8497085571289" y="875.429801940918" type="line"/>
      <point x="335.13294982910156" y="983.5578308105469" type="line"/>
    </contour>
  </outline>
</glyph>
<glyph name="two" format="2">
  <advance width="895.6300578035328"/>
  <unicode hex="0032"/>
  <outline>
    <contour>
      <point x="105.50289154052734" y="0" type="line"/>
      <point x="795.3294830322266" y="0" type="line"/>
      <point x="795.3294830322266" y="81.15606689453125" type="line"/>
      <point x="226.30137634277344" y="81.15606689453125" type="line"/>
      <point x="682.1393508911133" y="494.6076354980469" type="line"/>
      <point x="754.2205544113023" y="559.9863176052138"/>
      <point x="795.3294797688508" y="652.7724137169863"/>
      <point x="795.3294797688508" y="750.0867052023121" type="curve"/>
      <point x="795.3294797688508" y="940.4495331988439"/>
      <point x="640.7790129676947" y="1095.0"/>
      <point x="450.416184971163" y="1095.0" type="curve" smooth="yes"/>
      <point x="260.0533569746312" y="1095.0"/>
      <point x="105.50289017347511" y="940.4495331988439"/>
      <point x="105.50289017347511" y="750.0867052023121" type="curve"/>
      <point x="186.6589584350586" y="750.0867080688477" type="line"/>
      <point x="186.65895953763695" y="895.6582795526012"/>
      <point x="304.84461062087394" y="1013.8439306358382"/>
      <point x="450.416184971163" y="1013.8439306358382" type="curve" smooth="yes"/>
      <point x="595.9877593214519" y="1013.8439306358382"/>
      <point x="714.1734104046889" y="895.6582795526012"/>
      <point x="714.1734104046889" y="750.0867052023121" type="curve"/>
      <point x="714.1734104046889" y="675.6698940664747"/>
      <point x="682.7371733665635" y="604.715820569237"/>
      <point x="627.6162550967306" y="554.7203592880638" type="curve"/>
      <point x="105.50289154052734" y="81.15606689453125" type="line"/>
    </contour>
  </outline>
</glyph>
<glyph name="three" format="2">
  <advance width="906.0346820809249"/>
  <unicode hex="0033"/>
  <outline>
    <contour>
      <point x="95.0982666015625" y="291.4347610473633" type="line"/>
      <point x="95.09827" y="122.30882"/>
      <point x="256.64197" y="-15.0"/>
      <point x="455.6185" y="-15.0" type="curve" smooth="yes"/>
      <point x="654.59503" y="-15.0"/>
      <point x="816.13873" y="122.30882"/>
      <point x="816.13873" y="291.43476" type="curve"/>
      <point x="816.13873" y="406.13496453429997"/>
      <point x="741.8371733974445" y="506.2009723427242"/>
      <point x="631.9482879638672" y="558.7235488891602" type="curve"/>
      <point x="729.87790768488" y="609.4794585272657"/>
      <point x="795.32948" y="701.2136907177"/>
      <point x="795.32948" y="805.85673" type="curve"/>
      <point x="795.32948" y="965.43924"/>
      <point x="643.11009" y="1095.0"/>
      <point x="455.6185" y="1095.0" type="curve" smooth="yes"/>
      <point x="268.1269" y="1095.0"/>
      <point x="115.90751" y="965.43924"/>
      <point x="115.90751" y="805.85673" type="curve"/>
      <point x="197.06358337402344" y="805.8567276000977" type="line"/>
      <point x="197.06358" y="920.64799"/>
      <point x="312.91816" y="1013.84393"/>
      <point x="455.6185" y="1013.84393" type="curve" smooth="yes"/>
      <point x="598.31884" y="1013.84393"/>
      <point x="714.17341" y="920.64799"/>
      <point x="714.17341" y="805.85673" type="curve"/>
      <point x="714.17341" y="691.06547"/>
      <point x="598.31884" y="597.86953"/>
      <point x="455.6185" y="597.86953" type="curve"/>
      <point x="393.1907501220703" y="597.8695297241211" type="line"/>
      <point x="393.1907501220703" y="516.7134628295898" type="line"/>
      <point x="455.6184997558594" y="516.7134628295898" type="line"/>
      <point x="609.80377" y="516.71346"/>
      <point x="734.98266" y="415.76946"/>
      <point x="734.98266" y="291.43476" type="curve"/>
      <point x="734.98266" y="167.10007"/>
      <point x="609.80377" y="66.15607"/>
      <point x="455.6185" y="66.15607" type="curve" smooth="yes"/>
      <point x="301.43322" y="66.15607"/>
      <point x="176.25434" y="167.10007"/>
      <point x="176.25434" y="291.43476" type="curve"/>
    </contour>
  </outline>
</glyph>
<glyph name="four" format="2">
  <advance width="954.3121387283237"/>
  <unicode hex="0034"/>
  <outline>
    <contour>
      <point x="191.63506317138672" y="348.3691177368164" type="line"/>
      <point x="630.7729110717773" y="940.9605102539062" type="line"/>
      <point x="630.7729110717773" y="348.3691177368164" type="line"/>
    </contour>
    <contour>
      <point x="90.62428283691406" y="267.21305084228516" type="line"/>
      <point x="630.7729110717773" y="267.21305084228516" type="line"/>
      <point x="630.7729110717773" y="0" type="line"/>
      <point x="711.9289779663086" y="0" type="line"/>
      <point x="711.9289779663086" y="267.21305084228516" type="line"/>
      <point x="894.9017333984375" y="267.21305084228516" type="line"/>
      <point x="894.9017333984375" y="348.3691177368164" type="line"/>
      <point x="711.9289779663086" y="348.3691177368164" type="line"/>
      <point x="711.9289779663086" y="1077.2687911987305" type="line"/>
      <point x="630.7729110717773" y="1077.2687911987305" type="line"/>
      <point x="90.62428283691406" y="348.3691177368164" type="line"/>
    </contour>
  </outline>
</glyph>
<glyph name="five" format="2">
  <advance width="888.445572720988"/>
  <unicode hex="0035"/>
  <outline>
    <contour>
      <point x="103.83663177490234" y="468.8224334716797" type="line"/>
      <point x="198.73168182373047" y="468.8224334716797" type="line"/>
      <point x="244.16658" y="558.04804"/>
      <point x="336.89035" y="619.21076"/>
      <point x="443.78672" y="619.21076" type="curve" smooth="yes"/>
      <point x="595.46634" y="619.21076"/>
      <point x="718.61096" y="496.06615000000005"/>
      <point x="718.61096" y="344.38652" type="curve"/>
      <point x="718.61096" y="189.27298999999994"/>
      <point x="592.6784500000001" y="69.56228"/>
      <point x="437.56492" y="69.56228" type="curve"/>
      <point x="327.63813" y="69.56228"/>
      <point x="232.3671" y="129.68529"/>
      <point x="186.18839" y="219.95061" type="curve"/>
      <point x="95.32308959960938" y="219.9506072998047" type="line"/>
      <point x="146.42372000000003" y="81.96975999999995"/>
      <point x="280.44698999999997" y="-14.14443999999998"/>
      <point x="437.56492" y="-14.14444" type="curve"/>
      <point x="639.52565" y="-14.14444"/>
      <point x="803.49214" y="142.42578999999992"/>
      <point x="803.49214" y="344.38652" type="curve"/>
      <point x="803.49214" y="541.9092700000001"/>
      <point x="647.2432200000001" y="702.27268"/>
      <point x="449.72047" y="702.27268" type="curve" smooth="yes"/>
      <point x="358.17172288943993" y="702.27268"/>
      <point x="274.49620812281347" y="669.3331600160533"/>
      <point x="210.62721252441406" y="614.4202880859375" type="curve"/>
      <point x="271.2160949707031" y="993.7980804443359" type="line"/>
      <point x="762.9719619750977" y="993.7980804443359" type="line"/>
      <point x="762.9719619750977" y="1077.5047988891602" type="line"/>
      <point x="200.24244689941406" y="1077.5047988891602" type="line"/>
    </contour>
  </outline>
</glyph>
<glyph name="six" format="2">
  <advance width="886.6820809248553"/>
  <unicode hex="0036"/>
  <outline>
    <contour>
      <point x="811.66474" y="354.25703" type="curve" smooth="yes"/>
      <point x="811.66474" y="557.54041"/>
      <point x="646.62442" y="722.58073"/>
      <point x="443.34104" y="722.58073" type="curve" smooth="yes"/>
      <point x="406.9624627321" y="722.58073"/>
      <point x="371.8086153314056" y="717.2953315722285"/>
      <point x="338.6061325073242" y="707.4410934448242" type="curve"/>
      <point x="594.6869735717773" y="1077.2687911987305" type="line"/>
      <point x="495.97425842285156" y="1077.2687911987305" type="line"/>
      <point x="151.92683467530372" y="580.3684337419446" type="line"/>
      <point x="119.54832960248483" y="533.6048493228221"/>
      <point x="75.01734000000002" y="460.59270516297744"/>
      <point x="75.01733999999999" y="354.25703000000004" type="curve" smooth="yes"/>
      <point x="75.01734" y="150.97364"/>
      <point x="240.05765999999997" y="-14.066669999999975"/>
      <point x="443.34104" y="-14.06667" type="curve" smooth="yes"/>
      <point x="646.62442" y="-14.06667"/>
      <point x="811.66474" y="150.97365"/>
    </contour>
    <contour>
      <point x="730.50867" y="354.25703" type="curve" smooth="yes"/>
      <point x="730.50867" y="195.7649"/>
      <point x="601.83317" y="67.0894"/>
      <point x="443.34104" y="67.0894" type="curve" smooth="yes"/>
      <point x="284.84891" y="67.0894"/>
      <point x="156.17341" y="195.7649"/>
      <point x="156.17341" y="354.25703" type="curve" smooth="yes"/>
      <point x="156.17341" y="512.74916"/>
      <point x="284.84891" y="641.42466"/>
      <point x="443.34104" y="641.42466" type="curve" smooth="yes"/>
      <point x="601.83317" y="641.42466"/>
      <point x="730.50867" y="512.74916"/>
    </contour>
  </outline>
</glyph>
<glyph name="seven" format="2">
  <advance width="828.0000000000387"/>
  <unicode hex="0037"/>
  <outline>
    <contour>
      <point x="244.92485809326172" y="0" type="line"/>
      <point x="333.14630126953125" y="0" type="line"/>
      <point x="758.9132919311523" y="998.8439331054688" type="line"/>
      <point x="758.9132919311523" y="1080" type="line"/>
      <point x="69.08670806884766" y="1080" type="line"/>
      <point x="69.08670806884766" y="998.8439331054688" type="line"/>
      <point x="670.6918487548828" y="998.8439331054688" type="line"/>
    </contour>
  </outline>
</glyph>
<glyph name="eight" format="2">
  <advance width="916.4393063583815"/>
  <unicode hex="0038"/>
  <outline>
    <contour>
      <point x="826.54335" y="295.64957" type="curve" smooth="yes"/>
      <point x="826.54335" y="413.18698176353996"/>
      <point x="749.9267953255426" y="515.0681302898324"/>
      <point x="636.3510818481445" y="567.8530426025391" type="curve"/>
      <point x="731.9519442120337" y="618.0067221571906"/>
      <point x="795.32948" y="707.52142298767"/>
      <point x="795.32948" y="810.07153" type="curve" smooth="yes"/>
      <point x="795.32948" y="967.99181"/>
      <point x="645.03644" y="1095.0"/>
      <point x="458.21965" y="1095.0" type="curve" smooth="yes"/>
      <point x="271.40287" y="1095.0"/>
      <point x="121.10983" y="967.99181"/>
      <point x="121.10983" y="810.07153" type="curve" smooth="yes"/>
      <point x="121.10983" y="707.5260026755"/>
      <point x="184.4817052800094" y="618.0147172871996"/>
      <point x="280.0753173828125" y="567.8515853881836" type="curve"/>
      <point x="166.50667560434806" y="515.0603726905446"/>
      <point x="89.89594999999993" y="413.18250691472"/>
      <point x="89.89594999999986" y="295.64957" type="curve" smooth="yes"/>
      <point x="89.89595" y="123.53999"/>
      <point x="254.17434" y="-15.0"/>
      <point x="458.21965" y="-15.0" type="curve" smooth="yes"/>
      <point x="662.26497" y="-15.0"/>
      <point x="826.54335" y="123.53999"/>
    </contour>
    <contour>
      <point x="714.17341" y="810.07153" type="curve" smooth="yes"/>
      <point x="714.17341" y="697.74265"/>
      <point x="599.65546" y="606.29913"/>
      <point x="458.21965" y="606.29913" type="curve" smooth="yes"/>
      <point x="316.78385" y="606.29913"/>
      <point x="202.2659" y="697.74265"/>
      <point x="202.2659" y="810.07153" type="curve" smooth="yes"/>
      <point x="202.2659" y="922.40042"/>
      <point x="316.78385" y="1013.84393"/>
      <point x="458.21965" y="1013.84393" type="curve" smooth="yes"/>
      <point x="599.65546" y="1013.84393"/>
      <point x="714.17341" y="922.40042"/>
    </contour>
    <contour>
      <point x="745.38728" y="295.64957" type="curve" smooth="yes"/>
      <point x="745.38728" y="169.13942"/>
      <point x="616.90048" y="66.15607"/>
      <point x="458.21965" y="66.15607" type="curve" smooth="yes"/>
      <point x="299.53883" y="66.15607"/>
      <point x="171.05202" y="169.13942"/>
      <point x="171.05202" y="295.64957" type="curve" smooth="yes"/>
      <point x="171.05202" y="422.15971"/>
      <point x="299.53883" y="525.14306"/>
      <point x="458.21965" y="525.14306" type="curve" smooth="yes"/>
      <point x="616.90048" y="525.14306"/>
      <point x="745.38728" y="422.15971"/>
    </contour>
  </outline>
</glyph>
<glyph name="nine" format="2">
  <advance width="901.9139406686024"/>
  <unicode hex="0039"/>
  <outline>
    <contour>
      <point x="450.95697" y="424.82032" type="curve" smooth="yes"/>
      <point x="290.04002" y="424.82032"/>
      <point x="159.39587" y="555.46447"/>
      <point x="159.39587" y="716.38142" type="curve"/>
      <point x="159.39587" y="877.29837"/>
      <point x="290.04002" y="1007.94252"/>
      <point x="450.95697" y="1007.94252" type="curve" smooth="yes"/>
      <point x="611.87392" y="1007.94252"/>
      <point x="742.51807" y="877.29837"/>
      <point x="742.51807" y="716.38142" type="curve"/>
      <point x="742.51807" y="555.46447"/>
      <point x="611.87392" y="424.82032"/>
    </contour>
    <contour>
      <point x="827.33017" y="716.38142" type="curve"/>
      <point x="827.33017" y="924.1074400000001"/>
      <point x="658.6829900000001" y="1091.64925"/>
      <point x="450.95697" y="1091.64925" type="curve" smooth="yes"/>
      <point x="243.23094999999992" y="1091.64925"/>
      <point x="74.58377000000002" y="924.1074400000001"/>
      <point x="74.58377" y="716.38142" type="curve"/>
      <point x="74.58377000000002" y="509.59648999999996"/>
      <point x="240.5839499999999" y="341.9196"/>
      <point x="445.02322" y="341.9196" type="curve" smooth="yes"/>
      <point x="483.5324135333452" y="341.9196"/>
      <point x="524.3076283784503" y="347.77663804584205"/>
      <point x="565.1988830566406" y="361.8205795288086" type="curve"/>
      <point x="310.50035858154297" y="0" type="line"/>
      <point x="409.3365173339844" y="0" type="line"/>
      <point x="747.2406646194925" y="482.2169173734025" type="line" smooth="yes"/>
      <point x="780.0060327977706" y="528.9757836568158"/>
      <point x="827.33017" y="605.1324423414608"/>
    </contour>
  </outline>
</glyph>
<glyph name="colon" format="2">
  <advance width="347.7225433526011"/>
  <unicode hex="003A"/>
  <outline>
    <contour>
      <point x="251.89595" y="737.15554" type="curve" smooth="yes"/>
      <point x="251.89595" y="780.22405"/>
      <point x="216.92978" y="815.19022"/>
      <point x="173.86127" y="815.19022" type="curve" smooth="yes"/>
      <point x="130.79276" y="815.19022"/>
      <point x="95.82659" y="780.22405"/>
      <point x="95.82659" y="737.15554" type="curve" smooth="yes"/>
      <point x="95.82659" y="694.08703"/>
      <point x="130.79276" y="659.12086"/>
      <point x="173.86127" y="659.12086" type="curve" smooth="yes"/>
      <point x="216.92978" y="659.12086"/>
      <point x="251.89595" y="694.08703"/>
    </contour>
    <contour>
      <point x="251.89595" y="63.96802" type="curve" smooth="yes"/>
      <point x="251.89595" y="107.03653"/>
      <point x="216.92978" y="142.0027"/>
      <point x="173.86127" y="142.0027" type="curve" smooth="yes"/>
      <point x="130.79276" y="142.0027"/>
      <point x="95.82659" y="107.03653"/>
      <point x="95.82659" y="63.96802" type="curve" smooth="yes"/>
      <point x="95.82659" y="20.8995"/>
      <point x="130.79276" y="-14.06667"/>
      <point x="173.86127" y="-14.06667" type="curve" smooth="yes"/>
      <point x="216.92978" y="-14.06667"/>
      <point x="251.89595" y="20.8995"/>
    </contour>
  </outline>
</glyph>
<glyph name="semicolon" format="2">
  <advance width="356.3665035434942"/>
  <unicode hex="003B"/>
  <outline>
    <contour>
      <point x="260.53991" y="737.15554" type="curve" smooth="yes"/>
      <point x="260.53991" y="780.22405"/>
      <point x="225.57374" y="815.19022"/>
      <point x="182.50523" y="815.19022" type="curve" smooth="yes"/>
      <point x="139.43672" y="815.19022"/>
      <point x="104.47055" y="780.22405"/>
      <point x="104.47055" y="737.15554" type="curve" smooth="yes"/>
      <point x="104.47055" y="694.08703"/>
      <point x="139.43672" y="659.12086"/>
      <point x="182.50523" y="659.12086" type="curve" smooth="yes"/>
      <point x="225.57374" y="659.12086"/>
      <point x="260.53991" y="694.08703"/>
    </contour>
    <contour>
      <point x="145.3005599975586" y="-242.42774963378906" type="line"/>
      <point x="209.58558688466616" y="-131.08279779821748"/>
      <point x="223.0832719431854" y="-23.92967663446636"/>
      <point x="223.08326945865446" y="67.86126999999999" type="curve"/>
      <point x="223.08326721191406" y="150.86705017089844" type="line"/>
      <point x="141.9272003173828" y="150.86705017089844" type="line"/>
      <point x="141.9272003173828" y="67.86126708984375" type="line"/>
      <point x="141.9272003173828" y="-14.371873925320884"/>
      <point x="130.38898500081527" y="-105.94320481873206"/>
      <point x="75.01734" y="-201.84971" type="curve"/>
    </contour>
  </outline>
</glyph>
<glyph name="less" format="2">
  <advance width="989.2716763005778"/>
  <unicode hex="003C"/>
  <outline>
    <contour>
      <point x="110.7052001953125" y="532.3455123901367" type="line"/>
      <point x="110.7052001953125" y="443.60823822021484" type="line"/>
      <point x="878.5664749145508" y="104.0462417602539" type="line"/>
      <point x="878.5664749145508" y="192.78351593017578" type="line"/>
      <point x="211.03726959228516" y="487.9768753051758" type="line"/>
      <point x="878.5664749145508" y="783.1702423095703" type="line"/>
      <point x="878.5664749145508" y="871.9075164794922" type="line"/>
    </contour>
  </outline>
</glyph>
<glyph name="equal" format="2">
  <advance width="990.665386461834"/>
  <unicode hex="003D"/>
  <outline>
    <contour>
      <point x="110.87758" y="601.44023" type="line"/>
      <point x="879.78781" y="601.44023" type="line"/>
      <point x="879.78781" y="685.46935" type="line"/>
      <point x="110.87758" y="685.46935" type="line"/>
    </contour>
    <contour>
      <point x="110.87758" y="290.83406" type="line"/>
      <point x="879.78781" y="290.83406" type="line"/>
      <point x="879.78781" y="374.86318" type="line"/>
      <point x="110.87758" y="374.86318" type="line"/>
    </contour>
  </outline>
</glyph>
<glyph name="greater" format="2">
  <advance width="923.4094380100818"/>
  <unicode hex="003E"/>
  <outline>
    <contour>
      <point x="110.87757873535156" y="103.69658660888672" type="line"/>
      <point x="812.5318603515625" y="446.1371383666992" type="line"/>
      <point x="812.5318603515625" y="530.1662673950195" type="line"/>
      <point x="110.87757873535156" y="872.606819152832" type="line"/>
      <point x="110.87757873535156" y="779.3453979492188" type="line"/>
      <point x="708.3669662475586" y="488.1517028808594" type="line"/>
      <point x="110.87757873535156" y="196.9580078125" type="line"/>
    </contour>
  </outline>
</glyph>
<glyph name="question" format="2">
  <advance width="801.9884393063583"/>
  <unicode hex="003F"/>
  <outline>
    <contour>
      <point x="360.4161834716797" y="280.4913330078125" type="line"/>
      <point x="441.57225799560547" y="280.4913330078125" type="line"/>
      <point x="441.57225799560547" y="454.54632568359375" type="line"/>
      <point x="599.8881326007688" y="474.51032892423024"/>
      <point x="722.4971098265895" y="609.798272219252"/>
      <point x="722.4971098265894" y="773.4971098265895" type="curve"/>
      <point x="722.4971098265895" y="950.9393838867052"/>
      <point x="578.4364937132948" y="1094.9999999999998"/>
      <point x="400.99421965317913" y="1094.9999999999998" type="curve" smooth="yes"/>
      <point x="223.5519455930636" y="1094.9999999999998"/>
      <point x="79.49132947976878" y="950.9393838867052"/>
      <point x="79.49132947976878" y="773.4971098265895" type="curve"/>
      <point x="160.64739990234375" y="773.4971084594727" type="line"/>
      <point x="160.6473988439306" y="906.1481302404623"/>
      <point x="268.3431992393064" y="1013.8439306358381"/>
      <point x="400.99421965317913" y="1013.8439306358381" type="curve" smooth="yes"/>
      <point x="533.645240067052" y="1013.8439306358381"/>
      <point x="641.3410404624277" y="906.1481302404623"/>
      <point x="641.3410404624277" y="773.4971098265895" type="curve"/>
      <point x="641.3410404624277" y="640.8460894127167"/>
      <point x="533.645240067052" y="533.1502890173409"/>
      <point x="400.99421965317913" y="533.1502890173409" type="curve"/>
      <point x="360.4161834716797" y="533.1502914428711" type="line"/>
    </contour>
    <contour>
      <point x="479.028901734104" y="63.034682080924846" type="curve" smooth="yes"/>
      <point x="479.028901734104" y="106.10319520231212"/>
      <point x="444.06273277456637" y="141.06936416184968"/>
      <point x="400.99421965317913" y="141.06936416184968" type="curve" smooth="yes"/>
      <point x="357.9257065317919" y="141.06936416184968"/>
      <point x="322.9595375722543" y="106.10319520231214"/>
      <point x="322.9595375722543" y="63.03468208092485" type="curve" smooth="yes"/>
      <point x="322.9595375722543" y="19.96616895953757"/>
      <point x="357.9257065317919" y="-15.000000000000004"/>
      <point x="400.99421965317913" y="-15.000000000000004" type="curve" smooth="yes"/>
      <point x="444.06273277456637" y="-15.000000000000018"/>
      <point x="479.028901734104" y="19.966168959537548"/>
    </contour>
  </outline>
</glyph>
<glyph name="at" format="2">
  <advance width="1392.0612097935668"/>
  <unicode hex="0040"/>
  <outline>
    <contour>
      <point x="1110.12565" y="225.41659" type="curve"/>
      <point x="1038.9129404319365" y="225.41659"/>
      <point x="1037.1245200209987" y="318.93457409210583"/>
      <point x="1037.1245199720245" y="353.94675" type="curve"/>
      <point x="1037.1245193481445" y="799.9654083251953" type="line"/>
      <point x="955.8069763183594" y="799.9654083251953" type="line"/>
      <point x="955.8069763183594" y="681.4570846557617" type="line"/>
      <point x="896.6517759378855" y="762.1302684857279"/>
      <point x="802.7860077428799" y="814.10985"/>
      <point x="693.0637299999999" y="814.10985" type="curve" smooth="yes"/>
      <point x="505.02599" y="814.10985"/>
      <point x="353.36312" y="661.44706"/>
      <point x="353.36312" y="473.40933" type="curve"/>
      <point x="353.36312" y="285.10473"/>
      <point x="506.24257" y="132.7088"/>
      <point x="694.54717" y="132.7088" type="curve" smooth="yes"/>
      <point x="809.4812897824601" y="132.7088"/>
      <point x="909.401962637845" y="189.7437542812074"/>
      <point x="969.7229614257812" y="277.0447311401367" type="curve"/>
      <point x="986.3138537072177" y="202.29068638859016"/>
      <point x="1036.27437328595" y="148.26329000000004"/>
      <point x="1110.12565" y="148.26329000000004" type="curve"/>
      <point x="1221.42341" y="148.26329"/>
      <point x="1312.29261" y="294.39865999999995"/>
      <point x="1312.29261" y="475.38724" type="curve"/>
      <point x="1312.29261" y="815.5115000000001"/>
      <point x="1036.1548600000003" y="1091.64925"/>
      <point x="696.0306" y="1091.64925" type="curve" smooth="yes"/>
      <point x="355.90635" y="1091.64925"/>
      <point x="79.7686" y="815.5115"/>
      <point x="79.7686" y="475.38724" type="curve"/>
      <point x="79.7686" y="135.26299"/>
      <point x="355.90635" y="-140.87476"/>
      <point x="696.0306" y="-140.87476" type="curve"/>
      <point x="696.0306015014648" y="-61.198036193847656" type="line" smooth="yes"/>
      <point x="399.88113" y="-61.19804"/>
      <point x="159.44532" y="179.23776"/>
      <point x="159.44532" y="475.38724" type="curve"/>
      <point x="159.44532" y="771.53672"/>
      <point x="399.88113" y="1011.97253"/>
      <point x="696.0306" y="1011.97253" type="curve" smooth="yes"/>
      <point x="992.1800800000001" y="1011.97253"/>
      <point x="1232.61589" y="771.5367200000001"/>
      <point x="1232.61589" y="475.38724" type="curve"/>
      <point x="1232.61589" y="357.04804518650144"/>
      <point x="1186.5444765233171" y="225.41659"/>
    </contour>
    <contour>
      <point x="696.0306" y="213.63295" type="curve" smooth="yes"/>
      <point x="552.65612" y="213.63295"/>
      <point x="436.25423" y="330.03484"/>
      <point x="436.25423" y="473.40933" type="curve"/>
      <point x="436.25423" y="616.78381"/>
      <point x="552.65612" y="733.1857"/>
      <point x="696.0306" y="733.1857" type="curve" smooth="yes"/>
      <point x="839.40509" y="733.1857"/>
      <point x="955.80698" y="616.78381"/>
      <point x="955.80698" y="473.40933" type="curve"/>
      <point x="955.80698" y="330.03484"/>
      <point x="839.40509" y="213.63295"/>
    </contour>
    <contour>
      <point x="696.03061" y="-140.87476" type="line"/>
      <point x="878.9882" y="-140.87476"/>
      <point x="1043.43121" y="-60.9739"/>
      <point x="1156.33879" y="65.8149" type="curve"/>
      <point x="1043.55764" y="65.8149" type="line"/>
      <point x="949.78155" y="-13.40322"/>
      <point x="828.47278" y="-61.19804"/>
      <point x="696.0306" y="-61.19804" type="curve"/>
    </contour>
  </outline>
</glyph>
<glyph name="A" format="2">
  <advance width="1055.1069364161738"/>
  <unicode hex="0041"/>
  <anchor x="527.5534682080925" y="1202.1242774566474" name="above" identifier="above"/>
  <anchor x="527.5534682080925" y="-124.85549132947976" name="below" identifier="below"/>
  <anchor x="1037.315028901734" y="0" name="ogonek" identifier="ogonek"/>
  <outline>
    <contour>
      <point x="17.791908264160156" y="0" type="line"/>
      <point x="106.20231628417969" y="0" type="line"/>
      <point x="248.4844207763672" y="329.23204040527344" type="line"/>
      <point x="806.6225051879883" y="329.23204040527344" type="line"/>
      <point x="948.9046096801758" y="0" type="line"/>
      <point x="1037.3150329589844" y="0" type="line"/>
      <point x="571.7586822509766" y="1077.2687911987305" type="line"/>
      <point x="483.34825897216797" y="1077.2687911987305" type="line"/>
    </contour>
    <contour>
      <point x="283.55712127685547" y="410.3881072998047" type="line"/>
      <point x="527.553466796875" y="974.9806518554688" type="line"/>
      <point x="771.5498123168945" y="410.3881072998047" type="line"/>
    </contour>
  </outline>
</glyph>
<glyph name="B" format="2">
  <advance width="973.664739884393"/>
  <unicode hex="0042"/>
  <outline>
    <contour>
      <point x="110.7052001953125" y="0" type="line"/>
      <point x="619.4913330078125" y="0" type="line"/>
      <point x="779.7061982913295" y="0.0"/>
      <point x="909.7803468208092" y="130.07414852947977"/>
      <point x="909.7803468208092" y="290.28901734104045" type="curve" smooth="yes"/>
      <point x="909.7803468208092" y="406.900448316322"/>
      <point x="840.8726706428773" y="507.54462510276267"/>
      <point x="741.5898056030273" y="553.6761474609375" type="curve"/>
      <point x="815.0587941561228" y="606.3602974680759"/>
      <point x="862.9595375722544" y="692.4858712396144"/>
      <point x="862.9595375722542" y="789.7109826589596" type="curve" smooth="yes"/>
      <point x="862.9595375722542" y="949.9258514705201"/>
      <point x="732.8853890427745" y="1080.0"/>
      <point x="572.6705202312138" y="1080.0" type="curve"/>
      <point x="110.7052001953125" y="1080" type="line"/>
    </contour>
    <contour>
      <point x="572.6705169677734" y="998.8439331054688" type="line"/>
      <point x="688.0941353965318" y="998.8439306358381"/>
      <point x="781.8034682080923" y="905.1345978242774"/>
      <point x="781.8034682080923" y="789.7109826589594" type="curve" smooth="yes"/>
      <point x="781.8034682080923" y="674.2873674936416"/>
      <point x="688.0941353965318" y="580.5780346820809"/>
      <point x="572.6705202312138" y="580.5780346820809" type="curve"/>
      <point x="191.86127471923828" y="580.5780334472656" type="line"/>
      <point x="191.86127471923828" y="998.8439331054688" type="line"/>
    </contour>
    <contour>
      <point x="619.4913330078125" y="499.4219665527344" type="line"/>
      <point x="734.9149446450866" y="499.42196531791905"/>
      <point x="828.6242774566473" y="405.7126325063584"/>
      <point x="828.6242774566473" y="290.28901734104045" type="curve" smooth="yes"/>
      <point x="828.6242774566473" y="174.86540217572252"/>
      <point x="734.9149446450866" y="81.15606936416184"/>
      <point x="619.4913294797688" y="81.15606936416184" type="curve"/>
      <point x="191.86127471923828" y="81.15606689453125" type="line"/>
      <point x="191.86127471923828" y="499.4219665527344" type="line"/>
    </contour>
  </outline>
</glyph>
<glyph name="C" format="2">
  <advance width="1198.2733900478122"/>
  <unicode hex="0043"/>
  <anchor x="627.7184007707128" y="1202.1242774566474" name="above" identifier="above"/>
  <anchor x="627.7184007707128" y="-124.85549132947976" name="below" identifier="below"/>
  <anchor x="627.7184007707128" y="0" name="cedilla" identifier="cedilla"/>
  <outline>
    <contour>
      <point x="627.7184" y="67.0894" type="curve" smooth="yes"/>
      <point x="367.46564" y="67.0894"/>
      <point x="156.17341" y="278.38163"/>
      <point x="156.17341" y="538.63439" type="curve" smooth="yes"/>
      <point x="156.17341" y="798.88716"/>
      <point x="367.46564" y="1010.17938"/>
      <point x="627.7184" y="1010.17938" type="curve" smooth="yes"/>
      <point x="802.79017" y="1010.17938"/>
      <point x="955.70613" y="914.56459"/>
      <point x="1037.05047" y="772.73844" type="curve"/>
      <point x="1128.45836" y="772.73844" type="line"/>
      <point x="1040.25647" y="960.89593"/>
      <point x="849.10013" y="1091.33545"/>
      <point x="627.7184" y="1091.33545" type="curve" smooth="yes"/>
      <point x="322.67438" y="1091.33545"/>
      <point x="75.01734" y="843.67841"/>
      <point x="75.01734" y="538.63439" type="curve" smooth="yes"/>
      <point x="75.01734" y="233.59038"/>
      <point x="322.67438" y="-14.06667"/>
      <point x="627.7184" y="-14.06667" type="curve" smooth="yes"/>
      <point x="849.09983" y="-14.06667"/>
      <point x="1040.25595" y="116.3725"/>
      <point x="1128.45812" y="304.53035" type="curve"/>
      <point x="1037.05483" y="304.53035" type="line"/>
      <point x="955.71159" y="162.70761"/>
      <point x="802.7933" y="67.0894"/>
    </contour>
  </outline>
</glyph>
<glyph name="D" format="2">
  <advance width="1108.9248554913295"/>
  <unicode hex="0044"/>
  <outline>
    <contour>
      <point x="110.7052001953125" y="0" type="line"/>
      <point x="494.6358413696289" y="0" type="line"/>
      <point x="792.669948950289" y="0.0"/>
      <point x="1034.635838150289" y="241.96588920000002"/>
      <point x="1034.635838150289" y="540.0" type="curve" smooth="yes"/>
      <point x="1034.635838150289" y="838.0341107999999"/>
      <point x="792.6699489502889" y="1080.0"/>
      <point x="494.635838150289" y="1080.0" type="curve"/>
      <point x="110.7052001953125" y="1080" type="line"/>
    </contour>
    <contour>
      <point x="494.6358413696289" y="998.8439331054688" type="line"/>
      <point x="747.8786953040461" y="998.8439306358381"/>
      <point x="953.479768786127" y="793.2428571537572"/>
      <point x="953.479768786127" y="540.0" type="curve" smooth="yes"/>
      <point x="953.479768786127" y="286.75714284624274"/>
      <point x="747.8786953040461" y="81.15606936416184"/>
      <point x="494.635838150289" y="81.15606936416184" type="curve"/>
      <point x="191.86127471923828" y="81.15606689453125" type="line"/>
      <point x="191.86127471923828" y="998.8439331054688" type="line"/>
    </contour>
  </outline>
</glyph>
<glyph name="E" format="2">
  <advance width="942.450867052023"/>
  <unicode hex="0045"/>
  <anchor x="479.028901734104" y="1204.8554913294797" name="above" identifier="above"/>
  <anchor x="479.028901734104" y="-124.85549132947976" name="below" identifier="below"/>
  <anchor x="479.028901734104" y="0" name="cedilla" identifier="cedilla"/>
  <anchor x="847.3526011560692" y="0" name="ogonek" identifier="ogonek"/>
  <outline>
    <contour>
      <point x="110.7052001953125" y="0" type="line"/>
      <point x="847.3526000976562" y="0" type="line"/>
      <point x="847.3526000976562" y="81.15606689453125" type="line"/>
      <point x="191.86126708984375" y="81.15606689453125" type="line"/>
      <point x="191.86126708984375" y="499.4219665527344" type="line"/>
      <point x="784.9248580932617" y="499.4219665527344" type="line"/>
      <point x="784.9248580932617" y="580.5780334472656" type="line"/>
      <point x="191.86126708984375" y="580.5780334472656" type="line"/>
      <point x="191.86126708984375" y="998.8439331054688" type="line"/>
      <point x="847.3526000976562" y="998.8439331054688" type="line"/>
      <point x="847.3526000976562" y="1080" type="line"/>
      <point x="110.7052001953125" y="1080" type="line"/>
    </contour>
  </outline>
</glyph>
<glyph name="F" format="2">
  <advance width="944.0019203072493"/>
  <unicode hex="0046"/>
  <anchor x="487.5554488718195" y="1201.9407105136822" name="above" identifier="above"/>
  <anchor x="110.87758041286607" y="0" name="hookleft" identifier="hookleft"/>
  <outline>
    <contour>
      <point x="110.87757873535156" y="0" type="line"/>
      <point x="195.39029693603516" y="0" type="line"/>
      <point x="195.39029693603516" y="483.0150909423828" type="line"/>
      <point x="770.9063873291016" y="483.0150909423828" type="line"/>
      <point x="770.9063873291016" y="566.3188095092773" type="line"/>
      <point x="195.39029693603516" y="566.3188095092773" type="line"/>
      <point x="195.39029693603516" y="993.7980804443359" type="line"/>
      <point x="864.2333221435547" y="993.7980804443359" type="line"/>
      <point x="864.2333221435547" y="1077.5047988891602" type="line"/>
      <point x="110.87757873535156" y="1077.5047988891602" type="line"/>
    </contour>
  </outline>
</glyph>
<glyph name="G" format="2">
  <advance width="1258.5400058988891"/>
  <unicode hex="0047"/>
  <outline>
    <contour>
      <point x="629.28901734104" y="66.15606936416197" type="curve" smooth="yes"/>
      <point x="367.7674348872831" y="66.1560693641619"/>
      <point x="155.44508670520224" y="278.4784175462427"/>
      <point x="155.4450867052023" y="540.0" type="curve" smooth="yes"/>
      <point x="155.4450867052023" y="801.5215824537572"/>
      <point x="367.7674348872832" y="1013.8439306358381"/>
      <point x="629.2890173410403" y="1013.8439306358381" type="curve" smooth="yes"/>
      <point x="799.193051421685" y="1013.8439306358381"/>
      <point x="948.3311905023572" y="924.2274222944677"/>
      <point x="1031.9728601709267" y="789.7109800129267" type="curve"/>
      <point x="1124.984848022461" y="789.7109832763672" type="line"/>
      <point x="1033.5273109348452" y="970.7495233001836"/>
      <point x="845.8037950356365" y="1094.9999999999998"/>
      <point x="629.2890173410404" y="1094.9999999999995" type="curve" smooth="yes"/>
      <point x="322.9761812410405" y="1094.9999999999998"/>
      <point x="74.28901734104046" y="846.3128361"/>
      <point x="74.28901734104046" y="540.0" type="curve" smooth="yes"/>
      <point x="74.28901734104046" y="233.6871639"/>
      <point x="322.97618124104036" y="-15.0"/>
      <point x="629.2890173410402" y="-15.0" type="curve" smooth="yes"/>
      <point x="933.4129419142697" y="-15.0"/>
      <point x="1180.731837721421" y="230.14562624215074"/>
      <point x="1184.2509885578486" y="533.7572227874932" type="curve"/>
      <point x="629.2890167236328" y="533.7572250366211" type="line"/>
      <point x="629.2890167236328" y="452.60115814208984" type="line"/>
      <point x="1095.047004699707" y="452.60115814208984" type="line"/>
      <point x="1053.928443100853" y="232.6939682843404"/>
      <point x="860.9037718739808" y="66.1560693641618"/>
    </contour>
  </outline>
</glyph>
<glyph name="H" format="2">
  <advance width="1058.4570331253"/>
  <unicode hex="0048"/>
  <anchor x="529.22851656265" y="1201.9407105136822" name="above" identifier="above"/>
  <anchor x="529.22851656265" y="-124.4359097455593" name="below" identifier="below"/>
  <anchor x="153.1339414306289" y="0" name="cedilla" identifier="cedilla"/>
  <anchor x="529.22851656265" y="828.6522803648584" name="stroke" identifier="stroke"/>
  <outline>
    <contour>
      <point x="110.87757873535156" y="0" type="line"/>
      <point x="195.39029693603516" y="0" type="line"/>
      <point x="195.39029693603516" y="496.4960403442383" type="line"/>
      <point x="863.0667266845703" y="496.4960403442383" type="line"/>
      <point x="863.0667266845703" y="0" type="line"/>
      <point x="947.5794525146484" y="0" type="line"/>
      <point x="947.5794525146484" y="1077.5047988891602" type="line"/>
      <point x="863.0667266845703" y="1077.5047988891602" type="line"/>
      <point x="863.0667266845703" y="579.7997589111328" type="line"/>
      <point x="195.39029693603516" y="579.7997589111328" type="line"/>
      <point x="195.39029693603516" y="1077.5047988891602" type="line"/>
      <point x="110.87757873535156" y="1077.5047988891602" type="line"/>
    </contour>
  </outline>
</glyph>
<glyph name="I" format="2">
  <advance width="307.07388382141147"/>
  <unicode hex="0049"/>
  <anchor x="153.53694191070574" y="1201.9407105136822" name="above" identifier="above"/>
  <anchor x="153.53694191070574" y="-124.4359097455593" name="below" identifier="below"/>
  <anchor x="196.1963034085454" y="0" name="ogonek" identifier="ogonek"/>
  <anchor x="153.53694191070574" y="538.7524003840615" name="stroke" identifier="stroke"/>
  <outline>
    <contour>
      <point x="110.87758" y="0.0" type="line"/>
      <point x="196.1963" y="0.0" type="line"/>
      <point x="196.1963" y="1077.5048" type="line"/>
      <point x="110.87758" y="1077.5048" type="line"/>
    </contour>
  </outline>
</glyph>
<glyph name="J" format="2">
  <advance width="864.4161849710982"/>
  <unicode hex="004A"/>
  <outline>
    <contour>
      <point x="63.88439178466797" y="352.71675872802734" type="line"/>
      <point x="63.88439" y="158.04708"/>
      <point x="221.93148" y="0.0"/>
      <point x="416.60116" y="0.0" type="curve" smooth="yes"/>
      <point x="611.27084" y="0.0"/>
      <point x="769.31792" y="158.04708"/>
      <point x="769.31792" y="352.71676" type="curve"/>
      <point x="769.3179168701172" y="1080" type="line"/>
      <point x="688.1618499755859" y="1080" type="line"/>
      <point x="688.1618499755859" y="352.71675872802734" type="line"/>
      <point x="688.16185" y="202.83834"/>
      <point x="566.47958" y="81.15607"/>
      <point x="416.60116" y="81.15607" type="curve" smooth="yes"/>
      <point x="266.72273" y="81.15607"/>
      <point x="145.04046" y="202.83834"/>
      <point x="145.04046" y="352.71676" type="curve"/>
    </contour>
  </outline>
</glyph>
<glyph name="K" format="2">
  <advance width="906.4508670520368"/>
  <unicode hex="004B"/>
  <anchor x="473.4531791907514" y="1202.1242774566474" name="above" identifier="above"/>
  <anchor x="473.4531791907514" y="-124.85549132947976" name="below" identifier="below"/>
  <outline>
    <contour>
      <point x="111.43353271484375" y="0" type="line"/>
      <point x="192.589599609375" y="0" type="line"/>
      <point x="192.589599609375" y="500.1372756958008" type="line"/>
      <point x="793.0643463134766" y="0" type="line"/>
      <point x="919.8728332519531" y="0" type="line"/>
      <point x="270.67928314208984" y="540.7153167724609" type="line"/>
      <point x="914.8760299682617" y="1077.2687911987305" type="line"/>
      <point x="788.0675430297852" y="1077.2687911987305" type="line"/>
      <point x="192.589599609375" y="581.2933578491211" type="line"/>
      <point x="192.589599609375" y="1077.2687911987305" type="line"/>
      <point x="111.43353271484375" y="1077.2687911987305" type="line"/>
    </contour>
  </outline>
</glyph>
<glyph name="L" format="2">
  <advance width="864.4161849710981"/>
  <unicode hex="004C"/>
  <outline>
    <contour>
      <point x="110.7052001953125" y="0" type="line"/>
      <point x="816.1387329101562" y="0" type="line"/>
      <point x="816.1387329101562" y="81.15606689453125" type="line"/>
      <point x="191.86126708984375" y="81.15606689453125" type="line"/>
      <point x="191.86126708984375" y="1080" type="line"/>
      <point x="110.7052001953125" y="1080" type="line"/>
    </contour>
  </outline>
</glyph>
<glyph name="M" format="2">
  <advance width="1202.3323699421965"/>
  <unicode hex="004D"/>
  <anchor x="601.1661849710982" y="1202.1242774566474" name="above" identifier="above"/>
  <anchor x="601.1661849710982" y="-124.85549132947976" name="below" identifier="below"/>
  <outline>
    <contour>
      <point x="111.43353271484375" y="0" type="line"/>
      <point x="192.589599609375" y="0" type="line"/>
      <point x="192.589599609375" y="936.2322387695312" type="line"/>
      <point x="560.5881500244141" y="296.7082977294922" type="line"/>
      <point x="641.7442169189453" y="296.7082977294922" type="line"/>
      <point x="1009.7427673339844" y="936.2322235107422" type="line"/>
      <point x="1009.7427673339844" y="0" type="line"/>
      <point x="1090.8988418579102" y="0" type="line"/>
      <point x="1090.8988418579102" y="1077.2687911987305" type="line"/>
      <point x="997.2658767700195" y="1077.2687911987305" type="line"/>
      <point x="601.1661834716797" y="388.9094696044922" type="line"/>
      <point x="205.06649017333984" y="1077.2687911987305" type="line"/>
      <point x="111.43353271484375" y="1077.2687911987305" type="line"/>
    </contour>
  </outline>
</glyph>
<glyph name="N" format="2">
  <advance width="1075.6300578034682"/>
  <unicode hex="004E"/>
  <outline>
    <contour>
      <point x="110.7052001953125" y="0" type="line"/>
      <point x="191.86127471923828" y="0" type="line"/>
      <point x="191.86127471923828" y="942.8289642333984" type="line"/>
      <point x="883.7687835693359" y="0" type="line"/>
      <point x="964.9248580932617" y="0" type="line"/>
      <point x="964.9248580932617" y="1080" type="line"/>
      <point x="883.7687835693359" y="1080" type="line"/>
      <point x="883.7687835693359" y="137.17103576660156" type="line"/>
      <point x="191.86127471923828" y="1080" type="line"/>
      <point x="110.7052001953125" y="1080" type="line"/>
    </contour>
  </outline>
</glyph>
<glyph name="O" format="2">
  <advance width="1255.436801541426"/>
  <unicode hex="004F"/>
  <anchor x="627.7184007707128" y="1202.1242774566474" name="above" identifier="above"/>
  <anchor x="627.7184007707128" y="-124.85549132947976" name="below" identifier="below"/>
  <anchor x="627.7184007707128" y="0" name="ogonek" identifier="ogonek"/>
  <anchor x="627.7184007707128" y="538.6343930635837" name="stroke" identifier="stroke"/>
  <anchor x="627.7184007707128" y="1091.3354527938343" name="horn" identifier="horn"/>
  <outline>
    <contour>
      <point x="1180.41946" y="538.63439" type="curve" smooth="yes"/>
      <point x="1180.41946" y="843.67841"/>
      <point x="932.76242" y="1091.33545"/>
      <point x="627.7184" y="1091.33545" type="curve" smooth="yes"/>
      <point x="322.67438" y="1091.33545"/>
      <point x="75.01734" y="843.67841"/>
      <point x="75.01734" y="538.63439" type="curve" smooth="yes"/>
      <point x="75.01734" y="233.59038"/>
      <point x="322.67438" y="-14.06667"/>
      <point x="627.7184" y="-14.06667" type="curve" smooth="yes"/>
      <point x="932.76242" y="-14.06667"/>
      <point x="1180.41946" y="233.59038"/>
    </contour>
    <contour>
      <point x="1099.26339" y="538.63439" type="curve" smooth="yes"/>
      <point x="1099.26339" y="278.38163"/>
      <point x="887.97116" y="67.0894"/>
      <point x="627.7184" y="67.0894" type="curve" smooth="yes"/>
      <point x="367.46564" y="67.0894"/>
      <point x="156.17341" y="278.38163"/>
      <point x="156.17341" y="538.63439" type="curve" smooth="yes"/>
      <point x="156.17341" y="798.88716"/>
      <point x="367.46564" y="1010.17938"/>
      <point x="627.7184" y="1010.17938" type="curve" smooth="yes"/>
      <point x="887.97116" y="1010.17938"/>
      <point x="1099.26339" y="798.88716"/>
    </contour>
  </outline>
</glyph>
<glyph name="P" format="2">
  <advance width="973.6647398843929"/>
  <unicode hex="0050"/>
  <outline>
    <contour>
      <point x="110.7052001953125" y="0" type="line"/>
      <point x="191.86126708984375" y="0" type="line"/>
      <point x="191.86126708984375" y="401.3212203979492" type="line"/>
      <point x="554.8340225219727" y="401.3212203979492" type="line"/>
      <point x="742.12053" y="401.32122"/>
      <point x="894.17341" y="553.37411"/>
      <point x="894.17341" y="740.66061" type="curve" smooth="yes"/>
      <point x="894.17341" y="927.94712"/>
      <point x="742.12053" y="1080.0"/>
      <point x="554.83402" y="1080.0" type="curve"/>
      <point x="110.7052001953125" y="1080" type="line"/>
    </contour>
    <contour>
      <point x="554.8340225219727" y="998.8439331054688" type="line"/>
      <point x="697.32927" y="998.84393"/>
      <point x="813.01734" y="883.15586"/>
      <point x="813.01734" y="740.66061" type="curve" smooth="yes"/>
      <point x="813.01734" y="598.16536"/>
      <point x="697.32927" y="482.47729"/>
      <point x="554.83402" y="482.47729" type="curve"/>
      <point x="191.86126708984375" y="482.47728729248047" type="line"/>
      <point x="191.86126708984375" y="998.8439331054688" type="line"/>
    </contour>
  </outline>
</glyph>
<glyph name="Q" format="2">
  <advance width="1257.5375722543351"/>
  <unicode hex="0051"/>
  <outline>
    <contour>
      <point x="1175.2926940917969" y="0" type="line"/>
      <point x="1032.4081802368164" y="158.6893310546875" type="line"/>
      <point x="1126.5343550691996" y="258.1518327568994"/>
      <point x="1184.2890173410403" y="392.38447484221285"/>
      <point x="1184.28901734104" y="540.0" type="curve" smooth="yes"/>
      <point x="1184.2890173410403" y="846.3128360999999"/>
      <point x="935.6018534410402" y="1094.9999999999998"/>
      <point x="629.2890173410403" y="1094.9999999999998" type="curve" smooth="yes"/>
      <point x="322.9761812410405" y="1094.9999999999998"/>
      <point x="74.28901734104046" y="846.3128361"/>
      <point x="74.28901734104046" y="540.0" type="curve" smooth="yes"/>
      <point x="74.28901734104046" y="233.6871639"/>
      <point x="322.97618124104036" y="-15.0"/>
      <point x="629.2890173410402" y="-15.0" type="curve" smooth="yes"/>
      <point x="758.806661203531" y="-15.0"/>
      <point x="878.0217846869633" y="29.461165940030703"/>
      <point x="972.4912261962891" y="103.94800567626953" type="curve"/>
      <point x="1066.0864334106445" y="0" type="line"/>
    </contour>
    <contour>
      <point x="1103.1329479768785" y="540.0" type="curve" smooth="yes"/>
      <point x="1103.1329479768785" y="416.3115369274182"/>
      <point x="1055.6389177963451" y="303.6283681037221"/>
      <point x="977.9083633422852" y="219.2175064086914" type="curve"/>
      <point x="798.6699066162109" y="418.281982421875" type="line"/>
      <point x="689.4636459350586" y="418.281982421875" type="line"/>
      <point x="918.0622024536133" y="164.39756774902344" type="line"/>
      <point x="838.0936475477106" y="102.80192550098292"/>
      <point x="737.937112685124" y="66.15606936416182"/>
      <point x="629.2890173410403" y="66.15606936416185" type="curve" smooth="yes"/>
      <point x="367.7674348872831" y="66.1560693641619"/>
      <point x="155.44508670520224" y="278.4784175462427"/>
      <point x="155.4450867052023" y="540.0" type="curve" smooth="yes"/>
      <point x="155.4450867052023" y="801.5215824537572"/>
      <point x="367.7674348872832" y="1013.8439306358381"/>
      <point x="629.2890173410403" y="1013.8439306358381" type="curve" smooth="yes"/>
      <point x="890.8105997947976" y="1013.8439306358381"/>
      <point x="1103.1329479768785" y="801.5215824537572"/>
    </contour>
  </outline>
</glyph>
<glyph name="R" format="2">
  <advance width="978.2083061873021"/>
  <unicode hex="0052"/>
  <outline>
    <contour>
      <point x="110.7052001953125" y="0" type="line"/>
      <point x="191.86127471923828" y="0" type="line"/>
      <point x="191.86127471923828" y="401.3212203979492" type="line"/>
      <point x="534.6612319946289" y="401.3212203979492" type="line"/>
      <point x="838.5390396118164" y="0" type="line"/>
      <point x="940.3354721069336" y="0" type="line"/>
      <point x="630.1001815795898" y="409.7173309326172" type="line"/>
      <point x="781.21606752137" y="443.9883073804597"/>
      <point x="894.1734104046243" y="579.2372481430854"/>
      <point x="894.1734104046243" y="740.6606110652353" type="curve" smooth="yes"/>
      <point x="894.1734104046242" y="927.9471166959537"/>
      <point x="742.1205271005779" y="1080.0"/>
      <point x="554.8340214698595" y="1080.0" type="curve"/>
      <point x="110.7052001953125" y="1080" type="line"/>
    </contour>
    <contour>
      <point x="554.8340225219727" y="998.8439331054688" type="line"/>
      <point x="697.3292734543352" y="998.8439306358381"/>
      <point x="813.0173410404624" y="883.155863049711"/>
      <point x="813.0173410404624" y="740.6606110652353" type="curve" smooth="yes"/>
      <point x="813.0173410404624" y="598.1653590807597"/>
      <point x="697.3292734543352" y="482.4772914946325"/>
      <point x="554.8340214698595" y="482.4772914946325" type="curve"/>
      <point x="191.86127471923828" y="482.477294921875" type="line"/>
      <point x="191.86127471923828" y="998.8439331054688" type="line"/>
    </contour>
  </outline>
</glyph>
<glyph name="S" format="2">
  <advance width="968.4624277456647"/>
  <unicode hex="0053"/>
  <outline>
    <contour>
      <point x="58.68208312988281" y="285.910400390625" type="line"/>
      <point x="58.68208" y="120.13689"/>
      <point x="248.95513" y="-15.0"/>
      <point x="484.23121" y="-15.0" type="curve" smooth="yes"/>
      <point x="719.5073" y="-15.0"/>
      <point x="909.78035" y="120.13689"/>
      <point x="909.78035" y="285.9104" type="curve"/>
      <point x="909.78035" y="423.25106"/>
      <point x="765.00482" y="544.1816"/>
      <point x="555.09743" y="581.19394" type="curve"/>
      <point x="432.1387710571289" y="602.874870300293" type="line"/>
      <point x="278.19131" y="630.01996"/>
      <point x="173.20231" y="712.92006"/>
      <point x="173.20231" y="806.57514" type="curve"/>
      <point x="173.20231" y="920.72539"/>
      <point x="312.16212" y="1013.84393"/>
      <point x="484.23121" y="1013.84393" type="curve" smooth="yes"/>
      <point x="656.3003" y="1013.84393"/>
      <point x="795.26012" y="920.72539"/>
      <point x="795.26012" y="806.57514" type="curve"/>
      <point x="878.5664672851562" y="806.5751419067383" type="line"/>
      <point x="878.56647" y="965.49794"/>
      <point x="702.231" y="1095.0"/>
      <point x="484.23121" y="1095.0" type="curve" smooth="yes"/>
      <point x="266.23143" y="1095.0"/>
      <point x="89.89595" y="965.49794"/>
      <point x="89.89595" y="806.57514" type="curve"/>
      <point x="89.89595" y="673.70338"/>
      <point x="224.40008" y="557.09677"/>
      <point x="418.04617" y="522.95174" type="curve"/>
      <point x="541.0048217773438" y="501.27081298828125" type="line"/>
      <point x="711.33582" y="471.23686"/>
      <point x="826.47399" y="384.02981"/>
      <point x="826.47399" y="285.9104" type="curve"/>
      <point x="826.47399" y="164.90656"/>
      <point x="673.46192" y="66.15607"/>
      <point x="484.23121" y="66.15607" type="curve" smooth="yes"/>
      <point x="295.00051" y="66.15607"/>
      <point x="141.98844" y="164.90656"/>
      <point x="141.98844" y="285.9104" type="curve"/>
    </contour>
  </outline>
</glyph>
<glyph name="T" format="2">
  <advance width="958.0578034682081"/>
  <unicode hex="0054"/>
  <anchor x="479.028901734104" y="1204.8554913294797" name="above" identifier="above"/>
  <anchor x="479.028901734104" y="-124.85549132947976" name="below" identifier="below"/>
  <anchor x="479.028901734104" y="0" name="cedilla" identifier="cedilla"/>
  <anchor x="479.028901734104" y="540.0" name="stroke" identifier="stroke"/>
  <outline>
    <contour>
      <point x="438.45086669921875" y="0" type="line"/>
      <point x="519.6069412231445" y="0" type="line"/>
      <point x="519.6069412231445" y="998.8439331054688" type="line"/>
      <point x="894.1734085083008" y="998.8439331054688" type="line"/>
      <point x="894.1734085083008" y="1080" type="line"/>
      <point x="63.88439178466797" y="1080" type="line"/>
      <point x="63.88439178466797" y="998.8439331054688" type="line"/>
      <point x="438.45086669921875" y="998.8439331054688" type="line"/>
    </contour>
  </outline>
</glyph>
<glyph name="U" format="2">
  <advance width="1041.294797687861"/>
  <unicode hex="0055"/>
  <anchor x="520.6473988439305" y="1204.8554913294797" name="above" identifier="above"/>
  <anchor x="520.6473988439305" y="-124.85549132947976" name="below" identifier="below"/>
  <anchor x="520.6473988439305" y="0" name="ogonek" identifier="ogonek"/>
  <anchor x="946.1965317919074" y="1080.0" name="horn" identifier="horn"/>
  <outline>
    <contour>
      <point x="95.0982666015625" y="430.54913330078125" type="line"/>
      <point x="95.09826660156251" y="140.7132424276857"/>
      <point x="313.2985419648335" y="-14.999999999999975"/>
      <point x="520.6474" y="-15.0" type="curve" smooth="yes"/>
      <point x="727.9962580351665" y="-15.0"/>
      <point x="946.1965287089149" y="140.71324077729514"/>
      <point x="946.1965300956941" y="430.54913" type="curve"/>
      <point x="946.196533203125" y="1080" type="line"/>
      <point x="865.0404586791992" y="1080" type="line"/>
      <point x="865.0404586791992" y="430.54913330078125" type="line"/>
      <point x="865.0404586791992" y="187.88714228072882"/>
      <point x="685.8087068606468" y="66.15607"/>
      <point x="520.6474" y="66.15607" type="curve" smooth="yes"/>
      <point x="355.4860881393532" y="66.15607000000001"/>
      <point x="176.2543396256582" y="187.88714063033814"/>
      <point x="176.25434003362423" y="430.54913" type="curve"/>
      <point x="176.25434112548828" y="1080" type="line"/>
      <point x="95.0982666015625" y="1080" type="line"/>
    </contour>
  </outline>
</glyph>
<glyph name="V" format="2">
  <advance width="1028.8352601156034"/>
  <unicode hex="0056"/>
  <anchor x="514.4176300578034" y="1202.1242774566474" name="above" identifier="above"/>
  <anchor x="514.4176300578034" y="-124.85549132947976" name="below" identifier="below"/>
  <outline>
    <contour>
      <point x="470.47802734375" y="0" type="line"/>
      <point x="558.3572311401367" y="0" type="line"/>
      <point x="1005.8410415649414" y="1077.2687911987305" type="line"/>
      <point x="917.9618530273438" y="1077.2687911987305" type="line"/>
      <point x="514.4176330566406" y="105.77983093261719" type="line"/>
      <point x="110.8734130859375" y="1077.2687911987305" type="line"/>
      <point x="22.994216918945312" y="1077.2687911987305" type="line"/>
    </contour>
  </outline>
</glyph>
<glyph name="W" format="2">
  <advance width="1487.653179190721"/>
  <unicode hex="0057"/>
  <outline>
    <contour>
      <point x="364.3939895629883" y="0" type="line"/>
      <point x="449.40760803222656" y="0" type="line"/>
      <point x="743.8265914916992" y="943.7463912963867" type="line"/>
      <point x="1038.2455673217773" y="0" type="line"/>
      <point x="1123.259178161621" y="0" type="line"/>
      <point x="1460.1849670410156" y="1080" type="line"/>
      <point x="1375.1713485717773" y="1080" type="line"/>
      <point x="1080.7523727416992" y="136.25360107421875" type="line"/>
      <point x="786.3333969116211" y="1080" type="line"/>
      <point x="701.3197784423828" y="1080" type="line"/>
      <point x="406.9008026123047" y="136.25360870361328" type="line"/>
      <point x="112.48181915283203" y="1080" type="line"/>
      <point x="27.46820831298828" y="1080" type="line"/>
    </contour>
  </outline>
</glyph>
<glyph name="X" format="2">
  <advance width="998.635838150292"/>
  <unicode hex="0058"/>
  <anchor x="499.31791907514446" y="1204.8554913294797" name="above" identifier="above"/>
  <outline>
    <contour>
      <point x="48.27745819091797" y="0" type="line"/>
      <point x="149.31993103027344" y="0" type="line"/>
      <point x="499.3179244995117" y="471.88475036621094" type="line"/>
      <point x="849.3159103393555" y="0" type="line"/>
      <point x="950.3583831787109" y="0" type="line"/>
      <point x="549.8391571044922" y="540" type="line"/>
      <point x="950.3583831787109" y="1080" type="line"/>
      <point x="849.3159103393555" y="1080" type="line"/>
      <point x="499.3179244995117" y="608.1152496337891" type="line"/>
      <point x="149.31993103027344" y="1080" type="line"/>
      <point x="48.27745819091797" y="1080" type="line"/>
      <point x="448.7966842651367" y="540" type="line"/>
    </contour>
  </outline>
</glyph>
<glyph name="Y" format="2">
  <advance width="959.0982658959538"/>
  <unicode hex="0059"/>
  <outline>
    <contour>
      <point x="438.9710998535156" y="0" type="line"/>
      <point x="520.1271667480469" y="0" type="line"/>
      <point x="520.1271667480469" y="411.42857360839844" type="line"/>
      <point x="926.4277420043945" y="1080" type="line"/>
      <point x="831.4606857299805" y="1080" type="line"/>
      <point x="479.54913330078125" y="500.9262237548828" type="line"/>
      <point x="127.63758087158203" y="1080" type="line"/>
      <point x="32.67051696777344" y="1080" type="line"/>
      <point x="438.9710998535156" y="411.42857360839844" type="line"/>
    </contour>
  </outline>
</glyph>
<glyph name="Z" format="2">
  <advance width="933.7630057804472"/>
  <unicode hex="005A"/>
  <anchor x="466.88150289017335" y="1202.1242774566474" name="above" identifier="above"/>
  <anchor x="466.88150289017335" y="-124.85549132947976" name="below" identifier="below"/>
  <anchor x="466.88150289017335" y="545.6677263969171" name="stroke" identifier="stroke"/>
  <outline>
    <contour>
      <point x="80.21965026855469" y="0" type="line"/>
      <point x="853.5433502197266" y="0" type="line"/>
      <point x="853.5433502197266" y="81.15606689453125" type="line"/>
      <point x="180.94458770751953" y="81.15606689453125" type="line"/>
      <point x="853.5433502197266" y="996.1127166748047" type="line"/>
      <point x="853.5433502197266" y="1077.2687911987305" type="line"/>
      <point x="80.21965026855469" y="1077.2687911987305" type="line"/>
      <point x="80.21965026855469" y="996.1127166748047" type="line"/>
      <point x="752.8184127807617" y="996.1127166748047" type="line"/>
      <point x="80.21965026855469" y="81.15606689453125" type="line"/>
    </contour>
  </outline>
</glyph>
<glyph name="bracketleft" format="2">
  <advance width="491.3063583815029"/>
  <unicode hex="005B"/>
  <outline>
    <contour>
      <point x="173.86126708984375" y="-40.578033447265625" type="line"/>
      <point x="442.3005828857422" y="-40.578033447265625" type="line"/>
      <point x="442.3005828857422" y="40.578033447265625" type="line"/>
      <point x="255.01734161376953" y="40.578033447265625" type="line"/>
      <point x="255.01734161376953" y="1096.3872833251953" type="line"/>
      <point x="442.3005828857422" y="1096.3872833251953" type="line"/>
      <point x="442.3005828857422" y="1177.5433502197266" type="line"/>
      <point x="173.86126708984375" y="1177.5433502197266" type="line"/>
    </contour>
  </outline>
</glyph>
<glyph name="backslash" format="2">
  <advance width="732.5319436082664"/>
  <unicode hex="005C"/>
  <outline>
    <contour>
      <point x="621.65436" y="-74.08545" type="line"/>
      <point x="153.80758" y="1211.31301" type="line"/>
      <point x="64.21411" y="1211.31301" type="line"/>
      <point x="532.06089" y="-74.08545" type="line"/>
    </contour>
  </outline>
</glyph>
<glyph name="bracketright" format="2">
  <advance width="491.30635838150283"/>
  <unicode hex="005D"/>
  <outline>
    <contour>
      <point x="317.4450912475586" y="-40.578033447265625" type="line"/>
      <point x="317.4450912475586" y="1177.5433502197266" type="line"/>
      <point x="49.00578308105469" y="1177.5433502197266" type="line"/>
      <point x="49.00578308105469" y="1096.3872833251953" type="line"/>
      <point x="236.2890167236328" y="1096.3872833251953" type="line"/>
      <point x="236.2890167236328" y="40.578033447265625" type="line"/>
      <point x="49.00578308105469" y="40.578033447265625" type="line"/>
      <point x="49.00578308105469" y="-40.578033447265625" type="line"/>
    </contour>
  </outline>
</glyph>
<glyph name="asciicircum" format="2">
  <advance width="736.5193419297684"/>
  <unicode hex="005E"/>
  <outline>
    <contour>
      <point x="69.08670806884766" y="624.277458190918" type="line"/>
      <point x="161.89063262939453" y="624.277458190918" type="line"/>
      <point x="368.2596740722656" y="996.3415908813477" type="line"/>
      <point x="574.6287078857422" y="624.277458190918" type="line"/>
      <point x="667.4326400756836" y="624.277458190918" type="line"/>
      <point x="414.66162872314453" y="1080" type="line"/>
      <point x="321.8577117919922" y="1080" type="line"/>
    </contour>
  </outline>
</glyph>
<glyph name="power" format="2">
  <advance width="736.5193419296841"/>
  <unicode hex="005E"/>
  <outline>
    <contour>
      <point x="69.08670806884766" y="624.277458190918" type="line"/>
      <point x="160.30799865722656" y="624.277458190918" type="line"/>
      <point x="368.2596740722656" y="998.0248794555664" type="line"/>
      <point x="576.2113418579102" y="624.277458190918" type="line"/>
      <point x="667.4326400756836" y="624.277458190918" type="line"/>
      <point x="413.87032318115234" y="1080" type="line"/>
      <point x="322.6490173339844" y="1080" type="line"/>
    </contour>
  </outline>
</glyph>
<glyph name="underscore" format="2">
  <advance width="767.8612716763005"/>
  <unicode hex="005F"/>
  <outline>
    <contour>
      <point x="0.0" y="-154.88324" type="line"/>
      <point x="767.86127" y="-154.88324" type="line"/>
      <point x="767.86127" y="-84.27746" type="line"/>
      <point x="0.0" y="-84.27746" type="line"/>
    </contour>
  </outline>
</glyph>
<glyph name="grave" format="2">
  <advance width="448.41075433029636"/>
  <unicode hex="0060"/>
  <outline>
    <contour>
      <point x="336.97723" y="1202.12428" type="line"/>
      <point x="196.28622" y="1450.7948" type="line"/>
      <point x="111.43353" y="1450.7948" type="line"/>
      <point x="252.12454" y="1202.12428" type="line"/>
    </contour>
  </outline>
</glyph>
<glyph name="a" format="2">
  <advance width="982.8554913294797"/>
  <unicode hex="0061"/>
  <anchor x="473.21965317919074" y="892.7167630057803" name="above" identifier="above"/>
  <anchor x="473.21965317919074" y="-124.85549132947976" name="below" identifier="below"/>
  <anchor x="872.150289017341" y="0" name="ogonek" identifier="ogonek"/>
  <outline>
    <contour>
      <point x="791.5713272094727" y="0" type="line"/>
      <point x="872.1502914428711" y="0" type="line"/>
      <point x="872.1502914428711" y="767.8612670898438" type="line"/>
      <point x="791.5713272094727" y="767.8612670898438" type="line"/>
      <point x="791.5713272094727" y="624.2451019287109" type="line"/>
      <point x="718.7161151170284" y="720.5786977005768"/>
      <point x="603.1839262477499" y="782.86127"/>
      <point x="473.21965" y="782.8612699999999" type="curve" smooth="yes"/>
      <point x="253.04384" y="782.86127"/>
      <point x="74.28902" y="604.10645"/>
      <point x="74.28902" y="383.93064" type="curve" smooth="yes"/>
      <point x="74.28902" y="163.75483"/>
      <point x="253.04384" y="-15.0"/>
      <point x="473.21965" y="-15.0" type="curve" smooth="yes"/>
      <point x="603.1839262477499" y="-15.0"/>
      <point x="718.7161151170284" y="47.282575783669024"/>
      <point x="791.5713272094727" y="143.6140365600586" type="curve"/>
    </contour>
    <contour>
      <point x="791.57133" y="383.93064" type="curve" smooth="yes"/>
      <point x="791.57133" y="208.22756"/>
      <point x="648.92272" y="65.57896"/>
      <point x="473.21965" y="65.57896" type="curve" smooth="yes"/>
      <point x="297.51658" y="65.57896"/>
      <point x="154.86798" y="208.22756"/>
      <point x="154.86798" y="383.93064" type="curve" smooth="yes"/>
      <point x="154.86798" y="559.63371"/>
      <point x="297.51658" y="702.28231"/>
      <point x="473.21965" y="702.28231" type="curve" smooth="yes"/>
      <point x="648.92272" y="702.28231"/>
      <point x="791.57133" y="559.63371"/>
    </contour>
  </outline>
</glyph>
<glyph name="b" format="2">
  <advance width="1019.6401025586317"/>
  <unicode hex="0062"/>
  <anchor x="533.1659893476291" y="926.3265122419588" name="above" identifier="above"/>
  <anchor x="522.4312149943992" y="-124.4359097455593" name="below" identifier="below"/>
  <outline>
    <contour>
      <point x="110.87757873535156" y="0" type="line"/>
      <point x="193.54572296142578" y="0" type="line"/>
      <point x="193.54572296142578" y="171.21891021728516" type="line"/>
      <point x="265.38410542942233" y="59.510868215913504"/>
      <point x="388.99925683169994" y="-14.14443999999996"/>
      <point x="533.16599" y="-14.144439999999932" type="curve" smooth="yes"/>
      <point x="762.26025" y="-14.14444"/>
      <point x="945.05633" y="171.85104"/>
      <point x="945.05633" y="400.9453" type="curve"/>
      <point x="945.05633" y="630.03957"/>
      <point x="762.26025" y="816.03505"/>
      <point x="533.16599" y="816.03505" type="curve" smooth="yes"/>
      <point x="389.798795834" y="816.03505"/>
      <point x="266.7558601671824" y="743.1944511078927"/>
      <point x="194.74549865722656" y="632.5235824584961" type="curve"/>
      <point x="194.74549865722656" y="1137.2275619506836" type="line"/>
      <point x="110.87757873535156" y="1137.2275619506836" type="line"/>
    </contour>
    <contour>
      <point x="527.56703" y="733.76683" type="curve" smooth="yes"/>
      <point x="711.25623" y="733.76683"/>
      <point x="860.38856" y="584.6345"/>
      <point x="860.38856" y="400.9453" type="curve"/>
      <point x="860.38856" y="217.2561"/>
      <point x="711.25623" y="68.12377"/>
      <point x="527.56703" y="68.12377" type="curve" smooth="yes"/>
      <point x="343.87783" y="68.12377"/>
      <point x="194.7455" y="217.2561"/>
      <point x="194.7455" y="400.9453" type="curve"/>
      <point x="194.7455" y="584.6345"/>
      <point x="343.87783" y="733.76683"/>
    </contour>
  </outline>
</glyph>
<glyph name="c" format="2">
  <advance width="908.4639386303852"/>
  <unicode hex="0063"/>
  <anchor x="473.21965317919074" y="892.7167630057803" name="above" identifier="above"/>
  <anchor x="473.21965317919074" y="-124.85549132947976" name="below" identifier="below"/>
  <anchor x="473.21965317919074" y="0" name="cedilla" identifier="cedilla"/>
  <outline>
    <contour>
      <point x="473.21965" y="65.57896" type="curve" smooth="yes"/>
      <point x="297.51658" y="65.57896"/>
      <point x="154.86798" y="208.22756"/>
      <point x="154.86798" y="383.93064" type="curve" smooth="yes"/>
      <point x="154.86798" y="559.63371"/>
      <point x="297.51658" y="702.28231"/>
      <point x="473.21965" y="702.28231" type="curve" smooth="yes"/>
      <point x="592.22247" y="702.28231"/>
      <point x="696.06225" y="636.84533"/>
      <point x="750.68862" y="540.0" type="curve"/>
      <point x="840.40857" y="540.0" type="line"/>
      <point x="779.60643" y="682.7207"/>
      <point x="638.0153" y="782.86127"/>
      <point x="473.21965" y="782.86127" type="curve" smooth="yes"/>
      <point x="253.04384" y="782.86127"/>
      <point x="74.28902" y="604.10645"/>
      <point x="74.28902" y="383.93064" type="curve" smooth="yes"/>
      <point x="74.28902" y="163.75483"/>
      <point x="253.04384" y="-15.0"/>
      <point x="473.21965" y="-15.0" type="curve" smooth="yes"/>
      <point x="638.02367" y="-15.0"/>
      <point x="779.6208" y="85.15074"/>
      <point x="840.4177" y="227.86127" type="curve"/>
      <point x="750.69146" y="227.86127" type="line"/>
      <point x="696.06562" y="131.01807"/>
      <point x="592.2244" y="65.57896"/>
    </contour>
  </outline>
</glyph>
<glyph name="d" format="2">
  <advance width="1015.7077552986511"/>
  <unicode hex="0064"/>
  <anchor x="489.6457851637764" y="925.9790462427745" name="above" identifier="above"/>
  <anchor x="493.16245183044305" y="-124.85549132947976" name="below" identifier="below"/>
  <anchor x="863.9486801541424" y="969.0444364161849" name="stroke" identifier="stroke"/>
  <anchor x="1029.1297206165702" y="1136.965317919075" name="caron" identifier="caron"/>
  <outline>
    <contour>
      <point x="823.6231307983398" y="0" type="line"/>
      <point x="904.2742309570312" y="0" type="line"/>
      <point x="904.2742309570312" y="1136.965316772461" type="line"/>
      <point x="823.6231307983398" y="1136.965316772461" type="line"/>
      <point x="823.6231307983398" y="646.1848907470703" type="line"/>
      <point x="748.1020765163775" y="748.6642768425279"/>
      <point x="626.5816118267201" y="815.19022"/>
      <point x="489.64579000000003" y="815.1902199999998" type="curve" smooth="yes"/>
      <point x="260.80612" y="815.19022"/>
      <point x="75.01734" y="629.40144"/>
      <point x="75.01734" y="400.56178" type="curve" smooth="yes"/>
      <point x="75.01734" y="171.72211"/>
      <point x="260.80612" y="-14.06667"/>
      <point x="489.64579" y="-14.06667" type="curve" smooth="yes"/>
      <point x="626.58161182672" y="-14.06667"/>
      <point x="748.1020765163773" y="52.45927315747204"/>
      <point x="823.6231307983398" y="154.94074249267578" type="curve"/>
    </contour>
    <contour>
      <point x="823.62313" y="400.56178" type="curve" smooth="yes"/>
      <point x="823.62313" y="216.23466"/>
      <point x="673.9729" y="66.58443"/>
      <point x="489.64579" y="66.58443" type="curve" smooth="yes"/>
      <point x="305.31867" y="66.58443"/>
      <point x="155.66844" y="216.23466"/>
      <point x="155.66844" y="400.56178" type="curve" smooth="yes"/>
      <point x="155.66844" y="584.88889"/>
      <point x="305.31867" y="734.53912"/>
      <point x="489.64579" y="734.53912" type="curve" smooth="yes"/>
      <point x="673.9729" y="734.53912"/>
      <point x="823.62313" y="584.88889"/>
    </contour>
  </outline>
</glyph>
<glyph name="e" format="2">
  <advance width="946.4393063583815"/>
  <unicode hex="0065"/>
  <anchor x="473.21965317919074" y="892.7167630057803" name="above" identifier="above"/>
  <anchor x="473.21965317919074" y="-124.85549132947976" name="below" identifier="below"/>
  <anchor x="473.21965317919074" y="0" name="cedilla" identifier="cedilla"/>
  <anchor x="473.21965317919074" y="0" name="ogonek" identifier="ogonek"/>
  <outline>
    <contour>
      <point x="872.15029" y="383.93064" type="curve" smooth="yes"/>
      <point x="872.15029" y="604.10645"/>
      <point x="693.39546" y="782.86127"/>
      <point x="473.21965" y="782.86127" type="curve" smooth="yes"/>
      <point x="253.04384" y="782.86127"/>
      <point x="74.28902" y="604.10645"/>
      <point x="74.28902" y="383.93064" type="curve" smooth="yes"/>
      <point x="74.28902" y="163.75483"/>
      <point x="253.04384" y="-15.0"/>
      <point x="473.21965" y="-15.0" type="curve" smooth="yes"/>
      <point x="636.92984" y="-15.0"/>
      <point x="777.74017" y="83.82571"/>
      <point x="839.19656" y="225.04605" type="curve"/>
      <point x="749.0863037109375" y="225.04605102539062" type="line"/>
      <point x="694.04779" y="129.75353"/>
      <point x="591.06897" y="65.57896"/>
      <point x="473.21965" y="65.57896" type="curve" smooth="yes"/>
      <point x="309.89872674903995" y="65.57896"/>
      <point x="175.1376027847846" y="188.8305318609137"/>
      <point x="156.95494842529297" y="347.410400390625" type="curve"/>
      <point x="870.4918212890625" y="347.410400390625" type="line"/>
      <point x="871.58941" y="359.39431"/>
      <point x="872.15029" y="371.59749"/>
    </contour>
    <contour>
      <point x="473.21965000000006" y="702.28231" type="curve" smooth="yes"/>
      <point x="633.76182919891" y="702.28231"/>
      <point x="766.7077835686738" y="583.189066995487"/>
      <point x="788.4554595947266" y="428.56646728515625" type="curve"/>
      <point x="157.983642578125" y="428.56646728515625" type="line"/>
      <point x="179.73094277708873" y="583.1885456353955"/>
      <point x="312.67711939495" y="702.2823100000002"/>
    </contour>
  </outline>
</glyph>
<glyph name="f" format="2">
  <advance width="512.0595820364607"/>
  <unicode hex="0066"/>
  <anchor x="310.53353871561967" y="1267.2832369942196" name="above" identifier="above"/>
  <outline>
    <contour>
      <point x="162.81597900390625" y="0" type="line"/>
      <point x="243.3949432373047" y="0" type="line"/>
      <point x="243.3949432373047" y="687.2823104858398" type="line"/>
      <point x="453.37750244140625" y="687.2823104858398" type="line"/>
      <point x="453.37750244140625" y="767.8612670898438" type="line"/>
      <point x="243.3949432373047" y="767.8612670898438" type="line"/>
      <point x="243.3949432373047" y="921.7687839218129" type="line"/>
      <point x="243.3949432373047" y="949.9419437599379"/>
      <point x="244.58534770804505" y="1061.8487856516385"/>
      <point x="387.63844" y="1061.8487907067456" type="curve"/>
      <point x="453.37750244140625" y="1061.8487930297852" type="line"/>
      <point x="453.37750244140625" y="1142.427749633789" type="line"/>
      <point x="387.63844299316406" y="1142.427749633789" type="line"/>
      <point x="193.80589594402983" y="1142.427749633789"/>
      <point x="162.81598031638674" y="991.5206435275193"/>
      <point x="162.81597988263576" y="917.60528" type="curve"/>
      <point x="162.81597900390625" y="767.8612670898438" type="line"/>
      <point x="53.479766845703125" y="767.8612670898438" type="line"/>
      <point x="53.479766845703125" y="687.2823104858398" type="line"/>
      <point x="162.81597900390625" y="687.2823104858398" type="line"/>
    </contour>
  </outline>
</glyph>
<glyph name="g" format="2">
  <advance width="982.8554913294797"/>
  <unicode hex="0067"/>
  <outline>
    <contour>
      <point x="84.69364166259766" y="-36.41618347167969" type="line"/>
      <point x="84.69364161849711" y="-253.72076062023118"/>
      <point x="261.117389668786" y="-430.1445086705202"/>
      <point x="478.421965317919" y="-430.1445086705202" type="curve" smooth="yes"/>
      <point x="695.7265409670518" y="-430.1445086705202"/>
      <point x="872.150289017341" y="-253.7207606202313"/>
      <point x="872.150289017341" y="-36.416184971098325" type="curve"/>
      <point x="872.1502914428711" y="767.8612747192383" type="line"/>
      <point x="790.9942169189453" y="767.8612747192383" type="line"/>
      <point x="790.9942169189453" y="625.0059356689453" type="line"/>
      <point x="718.106917059111" y="720.906625642499"/>
      <point x="602.8413357825267" y="782.8612716763007"/>
      <point x="473.2196531791907" y="782.8612716763007" type="curve" smooth="yes"/>
      <point x="253.0438433219653" y="782.8612716763006"/>
      <point x="74.28901734104046" y="604.1064456953758"/>
      <point x="74.28901734104046" y="383.93063583815024" type="curve" smooth="yes"/>
      <point x="74.28901734104046" y="163.75482598092486"/>
      <point x="253.04384332196526" y="-15.000000000000018"/>
      <point x="473.2196531791907" y="-15.000000000000018" type="curve" smooth="yes"/>
      <point x="602.8413357825266" y="-15.000000000000053"/>
      <point x="718.1069170591109" y="46.95464603380162"/>
      <point x="790.9942169189453" y="142.85558319091797" type="curve"/>
      <point x="790.9942169189453" y="-36.41618347167969" type="line"/>
      <point x="790.9942196531791" y="-208.9295069739885"/>
      <point x="650.9352873208092" y="-348.9884393063584"/>
      <point x="478.421965317919" y="-348.9884393063584" type="curve" smooth="yes"/>
      <point x="305.9086433150288" y="-348.9884393063584"/>
      <point x="165.84971098265896" y="-208.9295069739884"/>
      <point x="165.84971098265896" y="-36.41618497109821" type="curve"/>
    </contour>
    <contour>
      <point x="790.9942196531791" y="383.93063583815024" type="curve" smooth="yes"/>
      <point x="790.994219653179" y="208.54607962716756"/>
      <point x="648.6042093901733" y="66.15606936416177"/>
      <point x="473.2196531791907" y="66.15606936416182" type="curve" smooth="yes"/>
      <point x="297.83509696820806" y="66.15606936416182"/>
      <point x="155.4450867052023" y="208.54607962716764"/>
      <point x="155.4450867052023" y="383.93063583815024" type="curve" smooth="yes"/>
      <point x="155.4450867052023" y="559.315192049133"/>
      <point x="297.8350969682081" y="701.7052023121388"/>
      <point x="473.21965317919074" y="701.7052023121388" type="curve" smooth="yes"/>
      <point x="648.6042093901733" y="701.7052023121388"/>
      <point x="790.9942196531791" y="559.315192049133"/>
    </contour>
  </outline>
</glyph>
<glyph name="h" format="2">
  <advance width="900.3121387283236"/>
  <unicode hex="0068"/>
  <anchor x="457.9595375722543" y="1267.2832369942196" name="above" identifier="above"/>
  <anchor x="457.9595375722543" y="-124.85549132947976" name="below" identifier="below"/>
  <anchor x="150.99468208092486" y="1267.2832369942196" name="stem" identifier="stem"/>
  <anchor x="150.99468208092486" y="0" name="cedilla" identifier="cedilla"/>
  <anchor x="150.99468208092486" y="955.1445086705202" name="stroke" identifier="stroke"/>
  <outline>
    <contour>
      <point x="110.7052001953125" y="0" type="line"/>
      <point x="191.2841567993164" y="0" type="line"/>
      <point x="191.2841567993164" y="415.60694122314453" type="line"/>
      <point x="191.2841567993164" y="613.1536799401664"/>
      <point x="333.32297148244965" y="702.28231"/>
      <point x="457.95954" y="702.28231" type="curve" smooth="yes"/>
      <point x="582.5961035175503" y="702.28231"/>
      <point x="724.6349097621759" y="613.1536793285941"/>
      <point x="724.6349100267901" y="415.60694" type="curve"/>
      <point x="724.6349105834961" y="0" type="line"/>
      <point x="805.2138671875" y="0" type="line"/>
      <point x="805.2138671875" y="415.60694122314453" type="line"/>
      <point x="805.2138671875" y="659.9288389032855"/>
      <point x="624.6129362509088" y="782.86127"/>
      <point x="457.95954" y="782.86127" type="curve" smooth="yes"/>
      <point x="350.85147982948996" y="782.86127"/>
      <point x="255.00437661498754" y="734.2639235571764"/>
      <point x="191.2841567993164" y="657.9202346801758" type="curve"/>
      <point x="191.2841567993164" y="1142.427749633789" type="line"/>
      <point x="110.7052001953125" y="1142.427749633789" type="line"/>
    </contour>
  </outline>
</glyph>
<glyph name="i" format="2">
  <advance width="299.95629656854555"/>
  <unicode hex="0069"/>
  <outline>
    <contour>
      <point x="222.8105182264693" y="987.4483897605284" type="curve" smooth="yes"/>
      <point x="222.8105182264693" y="1027.6456686738234"/>
      <point x="190.17542719756756" y="1060.280759702725"/>
      <point x="149.97814828427278" y="1060.280759702725" type="curve" smooth="yes"/>
      <point x="109.78086937097798" y="1060.280759702725"/>
      <point x="77.14577834207626" y="1027.6456686738234"/>
      <point x="77.14577834207626" y="987.4483897605284" type="curve" smooth="yes"/>
      <point x="77.14577834207626" y="947.2511108472337"/>
      <point x="109.78086937097797" y="914.6160198183319"/>
      <point x="149.97814828427275" y="914.6160198183319" type="curve" smooth="yes"/>
      <point x="190.17542719756756" y="914.6160198183319"/>
      <point x="222.8105182264693" y="947.2511108472337"/>
    </contour>
    <contour>
      <point x="109.40011360219185" y="0.0" type="line"/>
      <point x="190.55618296635367" y="0.0" type="line"/>
      <point x="190.55618296635367" y="767.8612716763005" type="line"/>
      <point x="109.40011360219185" y="767.8612716763005" type="line"/>
    </contour>
  </outline>
</glyph>
<glyph name="j" format="2">
  <advance width="292.16184971098266"/>
  <unicode hex="006A"/>
  <outline>
    <contour>
      <point x="218.91329479768785" y="987.4483897605284" type="curve" smooth="yes"/>
      <point x="218.91329479768785" y="1027.6456686738234"/>
      <point x="186.2782037687861" y="1060.280759702725"/>
      <point x="146.0809248554913" y="1060.280759702725" type="curve" smooth="yes"/>
      <point x="105.88364594219652" y="1060.280759702725"/>
      <point x="73.24855491329478" y="1027.6456686738234"/>
      <point x="73.24855491329478" y="987.4483897605284" type="curve" smooth="yes"/>
      <point x="73.24855491329478" y="947.2511108472337"/>
      <point x="105.88364594219651" y="914.6160198183319"/>
      <point x="146.0809248554913" y="914.6160198183319" type="curve" smooth="yes"/>
      <point x="186.2782037687861" y="914.6160198183319"/>
      <point x="218.91329479768785" y="947.2511108472337"/>
    </contour>
    <contour>
      <point x="-115.07514190673828" y="-415.1445083618164" type="line"/>
      <point x="-43.283233642578125" y="-415.1445083618164" type="line"/>
      <point x="83.62531500346822" y="-415.1445086705202"/>
      <point x="186.65895953757223" y="-312.1108641364161"/>
      <point x="186.65895953757223" y="-185.2023121387283" type="curve"/>
      <point x="186.6589584350586" y="767.8612747192383" type="line"/>
      <point x="105.50289154052734" y="767.8612747192383" type="line"/>
      <point x="105.50289154052734" y="-185.20230865478516" type="line"/>
      <point x="105.50289017341039" y="-267.31961049017343"/>
      <point x="38.83406135722545" y="-333.9884393063584"/>
      <point x="-43.28323699421965" y="-333.9884393063584" type="curve"/>
      <point x="-115.07514190673828" y="-333.98844146728516" type="line"/>
    </contour>
  </outline>
</glyph>
<glyph name="k" format="2">
  <advance width="821.7572254334468"/>
  <unicode hex="006B"/>
  <outline>
    <contour>
      <point x="110.7052001953125" y="0" type="line"/>
      <point x="191.86127471923828" y="0" type="line"/>
      <point x="191.86127471923828" y="343.3525924682617" type="line"/>
      <point x="631.2678833007812" y="0" type="line"/>
      <point x="763.0751419067383" y="0" type="line"/>
      <point x="271.73866271972656" y="383.9306335449219" type="line"/>
      <point x="763.0751419067383" y="767.8612747192383" type="line"/>
      <point x="631.2678833007812" y="767.8612747192383" type="line"/>
      <point x="191.86127471923828" y="424.50867462158203" type="line"/>
      <point x="191.86127471923828" y="1142.4277420043945" type="line"/>
      <point x="110.7052001953125" y="1142.4277420043945" type="line"/>
    </contour>
  </outline>
</glyph>
<glyph name="l" format="2">
  <advance width="302.56647398843927"/>
  <unicode hex="006C"/>
  <anchor x="151.28323699421964" y="1267.2832369942196" name="above" identifier="above"/>
  <anchor x="151.28323699421964" y="-124.85549132947976" name="below" identifier="below"/>
  <anchor x="316.7167630057803" y="1142.4277456647399" name="caron" identifier="caron"/>
  <anchor x="151.28323699421964" y="571.2138728323699" name="stroke" identifier="stroke"/>
  <anchor x="302.56647398843927" y="571.2138728323699" name="dotmiddle" identifier="dotmiddle"/>
  <outline>
    <contour>
      <point x="110.7052" y="0.0" type="line"/>
      <point x="191.86127" y="0.0" type="line"/>
      <point x="191.86127" y="1142.42775" type="line"/>
      <point x="110.7052" y="1142.42775" type="line"/>
    </contour>
  </outline>
</glyph>
<glyph name="m" format="2">
  <advance width="1388.8092485549132"/>
  <unicode hex="006D"/>
  <outline>
    <contour>
      <point x="110.7052001953125" y="0" type="line"/>
      <point x="191.86126708984375" y="0" type="line"/>
      <point x="191.86126708984375" y="466.82080841064453" type="line"/>
      <point x="191.86127" y="596.45703"/>
      <point x="297.10944" y="701.7052"/>
      <point x="426.74566" y="701.7052" type="curve" smooth="yes"/>
      <point x="556.38189" y="701.7052"/>
      <point x="661.63006" y="596.45703"/>
      <point x="661.63006" y="466.82081" type="curve"/>
      <point x="661.6300582885742" y="0" type="line"/>
      <point x="742.7861328125" y="0" type="line"/>
      <point x="742.7861328125" y="466.82080841064453" type="line"/>
      <point x="742.78613" y="596.45703"/>
      <point x="848.0343" y="701.7052"/>
      <point x="977.67052" y="701.7052" type="curve" smooth="yes"/>
      <point x="1107.30674" y="701.7052"/>
      <point x="1212.55491" y="596.45703"/>
      <point x="1212.55491" y="466.82081" type="curve"/>
      <point x="1212.5549087524414" y="0" type="line"/>
      <point x="1293.7109832763672" y="0" type="line"/>
      <point x="1293.7109832763672" y="466.82080841064453" type="line"/>
      <point x="1293.71098" y="641.24829"/>
      <point x="1152.098" y="782.86127"/>
      <point x="977.67052" y="782.86127" type="curve" smooth="yes"/>
      <point x="859.52747367388" y="782.86127"/>
      <point x="756.4384410932233" y="717.894753750902"/>
      <point x="702.2101287841797" y="621.7476501464844" type="curve"/>
      <point x="647.9829183393867" y="717.8914925264679"/>
      <point x="544.89167159328" y="782.86127"/>
      <point x="426.74566" y="782.86127" type="curve" smooth="yes"/>
      <point x="333.55290018334" y="782.86127"/>
      <point x="249.72713151196422" y="742.4374226704886"/>
      <point x="191.86126708984375" y="678.1822967529297" type="curve"/>
      <point x="191.86126708984375" y="767.8612670898438" type="line"/>
      <point x="110.7052001953125" y="767.8612670898438" type="line"/>
    </contour>
  </outline>
</glyph>
<glyph name="n" format="2">
  <advance width="900.3121387283236"/>
  <unicode hex="006E"/>
  <anchor x="457.9595375722543" y="892.7167630057803" name="above" identifier="above"/>
  <anchor x="457.9595375722543" y="-124.85549132947976" name="below" identifier="below"/>
  <anchor x="110.70520231213872" y="0" name="hookleft" identifier="hookleft"/>
  <outline>
    <contour>
      <point x="110.7052001953125" y="0" type="line"/>
      <point x="191.2841567993164" y="0" type="line"/>
      <point x="191.2841567993164" y="415.60694122314453" type="line"/>
      <point x="191.2841567993164" y="613.1536799401664"/>
      <point x="333.32297148244965" y="702.28231"/>
      <point x="457.95954" y="702.28231" type="curve" smooth="yes"/>
      <point x="582.5961035175503" y="702.28231"/>
      <point x="724.6349097621759" y="613.1536793285941"/>
      <point x="724.6349100267901" y="415.60694" type="curve"/>
      <point x="724.6349105834961" y="0" type="line"/>
      <point x="805.2138671875" y="0" type="line"/>
      <point x="805.2138671875" y="415.60694122314453" type="line"/>
      <point x="805.2138671875" y="659.9288389032855"/>
      <point x="624.6129362509088" y="782.86127"/>
      <point x="457.95954" y="782.86127" type="curve" smooth="yes"/>
      <point x="350.85147982948996" y="782.86127"/>
      <point x="255.00437661498754" y="734.2639235571764"/>
      <point x="191.2841567993164" y="657.9202346801758" type="curve"/>
      <point x="191.2841567993164" y="767.8612670898438" type="line"/>
      <point x="110.7052001953125" y="767.8612670898438" type="line"/>
    </contour>
  </outline>
</glyph>
<glyph name="o" format="2">
  <advance width="946.4393063583815"/>
  <unicode hex="006F"/>
  <anchor x="473.21965317919074" y="892.7167630057803" name="above" identifier="above"/>
  <anchor x="473.21965317919074" y="-124.85549132947976" name="below" identifier="below"/>
  <anchor x="473.21965317919074" y="0" name="ogonek" identifier="ogonek"/>
  <anchor x="473.21965317919074" y="383.93063583815024" name="stroke" identifier="stroke"/>
  <anchor x="473.21965317919074" y="782.8612716763006" name="horn" identifier="horn"/>
  <outline>
    <contour>
      <point x="872.15029" y="383.93064" type="curve" smooth="yes"/>
      <point x="872.15029" y="604.10645"/>
      <point x="693.39546" y="782.86127"/>
      <point x="473.21965" y="782.86127" type="curve" smooth="yes"/>
      <point x="253.04384" y="782.86127"/>
      <point x="74.28902" y="604.10645"/>
      <point x="74.28902" y="383.93064" type="curve" smooth="yes"/>
      <point x="74.28902" y="163.75483"/>
      <point x="253.04384" y="-15.0"/>
      <point x="473.21965" y="-15.0" type="curve" smooth="yes"/>
      <point x="693.39546" y="-15.0"/>
      <point x="872.15029" y="163.75483"/>
    </contour>
    <contour>
      <point x="791.57133" y="383.93064" type="curve" smooth="yes"/>
      <point x="791.57133" y="208.22756"/>
      <point x="648.92272" y="65.57896"/>
      <point x="473.21965" y="65.57896" type="curve" smooth="yes"/>
      <point x="297.51658" y="65.57896"/>
      <point x="154.86798" y="208.22756"/>
      <point x="154.86798" y="383.93064" type="curve" smooth="yes"/>
      <point x="154.86798" y="559.63371"/>
      <point x="297.51658" y="702.28231"/>
      <point x="473.21965" y="702.28231" type="curve" smooth="yes"/>
      <point x="648.92272" y="702.28231"/>
      <point x="791.57133" y="559.63371"/>
    </contour>
  </outline>
</glyph>
<glyph name="p" format="2">
  <advance width="982.8554913294797"/>
  <unicode hex="0070"/>
  <outline>
    <contour>
      <point x="110.7052001953125" y="-415.1445083618164" type="line"/>
      <point x="191.86126708984375" y="-415.1445083618164" type="line"/>
      <point x="191.86126708984375" y="142.85533905029297" type="line"/>
      <point x="264.7485746084843" y="46.95464742677319"/>
      <point x="380.01415731260994" y="-14.999999999999979"/>
      <point x="509.63584" y="-14.999999999999957" type="curve" smooth="yes"/>
      <point x="729.81165" y="-15.0"/>
      <point x="908.56647" y="163.75483"/>
      <point x="908.56647" y="383.93064" type="curve" smooth="yes"/>
      <point x="908.56647" y="604.10645"/>
      <point x="729.81165" y="782.86127"/>
      <point x="509.63584" y="782.86127" type="curve" smooth="yes"/>
      <point x="380.01415731261" y="782.86127"/>
      <point x="264.7485746084844" y="720.9066260391274"/>
      <point x="191.86126708984375" y="625.0056915283203" type="curve"/>
      <point x="191.86126708984375" y="767.8612670898438" type="line"/>
      <point x="110.7052001953125" y="767.8612670898438" type="line"/>
    </contour>
    <contour>
      <point x="827.4104" y="383.93064" type="curve" smooth="yes"/>
      <point x="827.4104" y="208.54608"/>
      <point x="685.02039" y="66.15607"/>
      <point x="509.63584" y="66.15607" type="curve" smooth="yes"/>
      <point x="334.25128" y="66.15607"/>
      <point x="191.86127" y="208.54608"/>
      <point x="191.86127" y="383.93064" type="curve" smooth="yes"/>
      <point x="191.86127" y="559.31519"/>
      <point x="334.25128" y="701.7052"/>
      <point x="509.63584" y="701.7052" type="curve" smooth="yes"/>
      <point x="685.02039" y="701.7052"/>
      <point x="827.4104" y="559.31519"/>
    </contour>
  </outline>
</glyph>
<glyph name="q" format="2">
  <advance width="1019.6401025586317"/>
  <unicode hex="0071"/>
  <outline>
    <contour>
      <point x="492.07307" y="68.12377" type="curve" smooth="yes"/>
      <point x="308.38387" y="68.12377"/>
      <point x="159.25155" y="217.2561"/>
      <point x="159.25155" y="400.9453" type="curve"/>
      <point x="159.25155" y="584.6345"/>
      <point x="308.38387" y="733.76683"/>
      <point x="492.07307" y="733.76683" type="curve" smooth="yes"/>
      <point x="675.76227" y="733.76683"/>
      <point x="824.8946" y="584.6345"/>
      <point x="824.8946" y="400.9453" type="curve"/>
      <point x="824.8946" y="217.2561"/>
      <point x="675.76227" y="68.12377"/>
    </contour>
    <contour>
      <point x="824.8945999145508" y="-320.98956298828125" type="line"/>
      <point x="908.7625198364258" y="-320.98956298828125" type="line"/>
      <point x="908.7625198364258" y="801.8906021118164" type="line"/>
      <point x="826.0943832397461" y="801.8906021118164" type="line"/>
      <point x="826.0943832397461" y="630.6716918945312" type="line"/>
      <point x="754.2559945705776" y="742.3797417840865"/>
      <point x="630.6408431683" y="816.03505"/>
      <point x="486.4741099999999" y="816.0350499999998" type="curve" smooth="yes"/>
      <point x="257.37985" y="816.03505"/>
      <point x="74.58377" y="630.03957"/>
      <point x="74.58377" y="400.9453" type="curve"/>
      <point x="74.58377" y="171.85104"/>
      <point x="257.37985" y="-14.14444"/>
      <point x="486.47411" y="-14.14444" type="curve" smooth="yes"/>
      <point x="629.841304166" y="-14.14444"/>
      <point x="752.8842398328176" y="58.696158892107206"/>
      <point x="824.8945999145508" y="169.3670196533203" type="curve"/>
    </contour>
  </outline>
</glyph>
<glyph name="r" format="2">
  <advance width="572.5664739884393"/>
  <unicode hex="0072"/>
  <outline>
    <contour>
      <point x="110.7052001953125" y="0" type="line"/>
      <point x="191.86126708984375" y="0" type="line"/>
      <point x="191.86126708984375" y="365.7803497314453" type="line"/>
      <point x="191.86126708984378" y="672.5827629244643"/>
      <point x="417.64274528970157" y="686.7051997908818"/>
      <point x="512.78613" y="686.7052001516905" type="curve"/>
      <point x="524.2890167236328" y="686.7052001953125" type="line"/>
      <point x="524.2890167236328" y="767.8612670898438" type="line"/>
      <point x="512.7861328125" y="767.8612670898438" type="line"/>
      <point x="430.09435270749947" y="767.8612670898438"/>
      <point x="297.85277718467626" y="764.3348008201583"/>
      <point x="191.86126708984375" y="634.1179580688477" type="curve"/>
      <point x="191.86126708984375" y="767.8612670898438" type="line"/>
      <point x="110.7052001953125" y="767.8612670898438" type="line"/>
    </contour>
  </outline>
</glyph>
<glyph name="s" format="2">
  <advance width="859.2138728323698"/>
  <unicode hex="0073"/>
  <outline>
    <contour>
      <point x="79.4913330078125" y="205.4479751586914" type="line"/>
      <point x="79.49132947976878" y="82.248102399711"/>
      <point x="236.37287421156063" y="-17.77456647398841"/>
      <point x="429.6069364161849" y="-17.77456647398844" type="curve" smooth="yes"/>
      <point x="622.8409986208092" y="-17.77456647398847"/>
      <point x="779.7225433526011" y="82.24810239971092"/>
      <point x="779.7225433526011" y="205.44797687861262" type="curve"/>
      <point x="779.7225433526011" y="313.6147562738499"/>
      <point x="658.7885997006468" y="403.8956361446357"/>
      <point x="498.50057277789676" y="424.3392926695718" type="curve"/>
      <point x="369.9243392944336" y="440.7383270263672" type="line"/>
      <point x="258.85375364106267" y="454.90462778401627"/>
      <point x="176.25433526011548" y="507.77317491124586"/>
      <point x="176.25433526011548" y="570.7369968656858" type="curve"/>
      <point x="176.2543352601156" y="644.5516403193641"/>
      <point x="289.7778304820809" y="704.479768786127"/>
      <point x="429.6069364161849" y="704.479768786127" type="curve" smooth="yes"/>
      <point x="569.436042350289" y="704.479768786127"/>
      <point x="682.9595375722542" y="644.5516403193641"/>
      <point x="682.9595375722542" y="570.7369942196531" type="curve"/>
      <point x="764.115608215332" y="570.7369918823242" type="line"/>
      <point x="764.1156069364162" y="689.3428939656069"/>
      <point x="614.2272959965317" y="785.6358381502889"/>
      <point x="429.6069364161849" y="785.6358381502889" type="curve" smooth="yes"/>
      <point x="244.98657683583815" y="785.6358381502889"/>
      <point x="95.09826589595374" y="689.3428939656069"/>
      <point x="95.09826589595374" y="570.7369942196531" type="curve"/>
      <point x="95.09826589595363" y="466.4895246969446"/>
      <point x="210.896988835153" y="379.51631848460664"/>
      <point x="364.2877304870957" y="359.9515352635025" type="curve"/>
      <point x="492.90787506103516" y="343.5462112426758" type="line"/>
      <point x="610.849170436323" y="328.50295452558663"/>
      <point x="698.5664739884392" y="272.3415076557874"/>
      <point x="698.5664739884392" y="205.44797687861268" type="curve"/>
      <point x="698.5664739884393" y="127.03935604595368"/>
      <point x="578.0497449745664" y="63.38150289017337"/>
      <point x="429.6069364161849" y="63.3815028901734" type="curve" smooth="yes"/>
      <point x="281.1641278578034" y="63.38150289017343"/>
      <point x="160.6473988439306" y="127.03935604595377"/>
      <point x="160.6473988439306" y="205.4479768786127" type="curve"/>
    </contour>
  </outline>
</glyph>
<glyph name="t" format="2">
  <advance width="497.4941084926634"/>
  <unicode hex="0074"/>
  <anchor x="243.54474210760338" y="1071.4533443435175" name="above" identifier="above"/>
  <anchor x="289.86354252683725" y="-124.85549132947976" name="below" identifier="below"/>
  <anchor x="196.97345613923648" y="1071.4533443435175" name="stem" identifier="stem"/>
  <anchor x="234.2809820237566" y="416.3005904211395" name="stroke" identifier="stroke"/>
  <anchor x="289.86354252683725" y="0" name="cedilla" identifier="cedilla"/>
  <anchor x="362.1544966016642" y="925.9790462427745" name="t_caron" identifier="t_caron"/>
  <outline>
    <contour>
      <point x="156.64791107177734" y="223.92134857177734" type="line"/>
      <point x="156.64791107177734" y="30.84568802468374"/>
      <point x="306.80935974759217" y="6.5836877520124275e-15"/>
      <point x="380.56925" y="-2.4492935982947065e-15" type="curve"/>
      <point x="438.08370208740234" y="0" type="line"/>
      <point x="438.08370208740234" y="80.6511001586914" type="line"/>
      <point x="376.28169612921357" y="80.6511001586914" type="line"/>
      <point x="348.31996171016857" y="80.6511001586914"/>
      <point x="237.29900970915352" y="81.82390000169002"/>
      <point x="237.2990100476417" y="223.92135" type="curve"/>
      <point x="237.29901123046875" y="720.4724578857422" type="line"/>
      <point x="438.08370208740234" y="720.4724578857422" type="line"/>
      <point x="438.08370208740234" y="801.1235504150391" type="line"/>
      <point x="237.29901123046875" y="801.1235504150391" type="line"/>
      <point x="237.29901123046875" y="1009.0255966186523" type="line"/>
      <point x="156.64791107177734" y="1009.0255966186523" type="line"/>
      <point x="156.64791107177734" y="801.1235504150391" type="line"/>
      <point x="49.00578308105469" y="801.1235504150391" type="line"/>
      <point x="49.00578308105469" y="720.4724578857422" type="line"/>
      <point x="156.64791107177734" y="720.4724578857422" type="line"/>
    </contour>
  </outline>
</glyph>
<glyph name="u" format="2">
  <advance width="900.3121387283236"/>
  <unicode hex="0075"/>
  <anchor x="442.35260115606934" y="892.7167630057803" name="above" identifier="above"/>
  <anchor x="442.35260115606934" y="-124.85549132947976" name="below" identifier="below"/>
  <anchor x="789.6069364161849" y="0" name="ogonek" identifier="ogonek"/>
  <anchor x="789.6069364161849" y="767.8612716763005" name="horn" identifier="horn"/>
  <outline>
    <contour>
      <point x="95.0982666015625" y="352.2543411254883" type="line"/>
      <point x="95.09826660156251" y="107.93244344534733"/>
      <point x="275.6992037490912" y="-14.99999999999998"/>
      <point x="442.3526" y="-15.0" type="curve" smooth="yes"/>
      <point x="549.46066017051" y="-15.0"/>
      <point x="645.30775649701" y="33.59734409777923"/>
      <point x="709.0279769897461" y="109.94103240966797" type="curve"/>
      <point x="709.0279769897461" y="0" type="line"/>
      <point x="789.6069412231445" y="0" type="line"/>
      <point x="789.6069412231445" y="767.8612670898438" type="line"/>
      <point x="709.0279769897461" y="767.8612670898438" type="line"/>
      <point x="709.0279769897461" y="352.2543411254883" type="line"/>
      <point x="709.0279769897461" y="154.70757296830803"/>
      <point x="566.9891479617908" y="65.57896"/>
      <point x="442.3526" y="65.57896" type="curve" smooth="yes"/>
      <point x="317.7161611504337" y="65.57896000000001"/>
      <point x="175.67722965968247" y="154.70748970128457"/>
      <point x="175.67723003833552" y="352.25434" type="curve"/>
      <point x="175.67723083496094" y="767.8612670898438" type="line"/>
      <point x="95.0982666015625" y="767.8612670898438" type="line"/>
    </contour>
  </outline>
</glyph>
<glyph name="v" format="2">
  <advance width="910.3572371579453"/>
  <unicode hex="0076"/>
  <anchor x="455.1786185789727" y="926.3265122419588" name="above" identifier="above"/>
  <anchor x="455.1786185789727" y="-124.4359097455593" name="below" identifier="below"/>
  <outline>
    <contour>
      <point x="48.659629821777344" y="801.8906021118164" type="line"/>
      <point x="408.7189178466797" y="0" type="line"/>
      <point x="501.63832092285156" y="0" type="line"/>
      <point x="861.6976089477539" y="801.8906021118164" type="line"/>
      <point x="769.6560134887695" y="801.8906021118164" type="line"/>
      <point x="455.1786193847656" y="98.70130157470703" type="line"/>
      <point x="140.70123291015625" y="801.8906021118164" type="line"/>
    </contour>
  </outline>
</glyph>
<glyph name="w" format="2">
  <advance width="1374.65895953761"/>
  <unicode hex="0077"/>
  <anchor x="687.3294797687861" y="925.9790462427745" name="above" identifier="above"/>
  <anchor x="687.3294797687861" y="-124.85549132947976" name="below" identifier="below"/>
  <outline>
    <contour>
      <point x="354.52864837646484" y="0" type="line"/>
      <point x="440.2984313964844" y="0" type="line"/>
      <point x="687.3294830322266" y="682.6199035644531" type="line"/>
      <point x="934.3605270385742" y="0" type="line"/>
      <point x="1020.1303100585938" y="0" type="line"/>
      <point x="1310.046241760254" y="801.1235504150391" type="line"/>
      <point x="1224.2764587402344" y="801.1235504150391" type="line"/>
      <point x="977.2454147338867" y="118.50364685058594" type="line"/>
      <point x="730.2143707275391" y="801.1235504150391" type="line"/>
      <point x="644.4445877075195" y="801.1235504150391" type="line"/>
      <point x="397.4135437011719" y="118.50364685058594" type="line"/>
      <point x="150.3824920654297" y="801.1235504150391" type="line"/>
      <point x="64.61271667480469" y="801.1235504150391" type="line"/>
    </contour>
  </outline>
</glyph>
<glyph name="x" format="2">
  <advance width="842.5664739884212"/>
  <unicode hex="0078"/>
  <outline>
    <contour>
      <point x="63.88439178466797" y="0" type="line"/>
      <point x="167.60325622558594" y="0" type="line"/>
      <point x="421.28324127197266" y="318.76580810546875" type="line"/>
      <point x="674.9632186889648" y="0" type="line"/>
      <point x="778.6820831298828" y="0" type="line"/>
      <point x="473.1426696777344" y="383.9306411743164" type="line"/>
      <point x="778.6820831298828" y="767.8612747192383" type="line"/>
      <point x="674.9632186889648" y="767.8612747192383" type="line"/>
      <point x="421.28324127197266" y="449.09546661376953" type="line"/>
      <point x="167.60325622558594" y="767.8612747192383" type="line"/>
      <point x="63.88439178466797" y="767.8612747192383" type="line"/>
      <point x="369.4238052368164" y="383.9306411743164" type="line"/>
    </contour>
  </outline>
</glyph>
<glyph name="y" format="2">
  <advance width="908.4992774566472"/>
  <unicode hex="0079"/>
  <anchor x="454.24963872832365" y="925.9790462427745" name="above" identifier="above"/>
  <anchor x="743.7095375722542" y="-124.85549132947976" name="below" identifier="below"/>
  <outline>
    <contour>
      <point x="265.75421142578125" y="-320.1372833251953" type="line"/>
      <point x="354.2160186767578" y="-320.1372833251953" type="line"/>
      <point x="859.4934997558594" y="801.1235504150391" type="line"/>
      <point x="771.0316925048828" y="801.1235504150391" type="line"/>
      <point x="454.2496337890625" y="98.15275573730469" type="line"/>
      <point x="137.46759033203125" y="801.1235504150391" type="line"/>
      <point x="49.00578308105469" y="801.1235504150391" type="line"/>
      <point x="410.01873779296875" y="0" type="line"/>
    </contour>
  </outline>
</glyph>
<glyph name="z" format="2">
  <advance width="864.4161849710982"/>
  <unicode hex="007A"/>
  <anchor x="432.2080924855491" y="892.7167630057803" name="above" identifier="above"/>
  <anchor x="432.2080924855491" y="-124.85549132947976" name="below" identifier="below"/>
  <anchor x="432.2080924855491" y="391.43063583815024" name="stroke" identifier="stroke"/>
  <outline>
    <contour>
      <point x="95.0982666015625" y="0" type="line"/>
      <point x="769.3179168701172" y="0" type="line"/>
      <point x="769.3179168701172" y="80.5789566040039" type="line"/>
      <point x="205.13347625732422" y="80.5789566040039" type="line"/>
      <point x="769.3179168701172" y="687.2823104858398" type="line"/>
      <point x="769.3179168701172" y="767.8612670898438" type="line"/>
      <point x="95.0982666015625" y="767.8612670898438" type="line"/>
      <point x="95.0982666015625" y="687.2823104858398" type="line"/>
      <point x="659.2826995849609" y="687.2823104858398" type="line"/>
      <point x="95.0982666015625" y="80.5789566040039" type="line"/>
    </contour>
  </outline>
</glyph>
<glyph name="braceleft" format="2">
  <advance width="494.6644172969898"/>
  <unicode hex="007B"/>
  <outline>
    <contour>
      <point x="223.3839493508695" y="187.65640258789062" type="line"/>
      <point x="223.3839486646533" y="-5.414561246561732"/>
      <point x="362.5698378274497" y="-41.29223336230854"/>
      <point x="445.2488601977539" y="-41.29222946714492" type="curve"/>
      <point x="461.5592803955078" y="-41.29222869873047" type="line"/>
      <point x="461.5592803955078" y="41.29222869873047" type="line"/>
      <point x="445.2488594055176" y="41.29222869873047" type="line"/>
      <point x="328.6472408248424" y="41.29222869873048"/>
      <point x="307.5742696098729" y="130.98533698769057"/>
      <point x="307.5742702127711" y="187.6564" type="curve"/>
      <point x="307.5742719429906" y="350.29308319091797" type="line"/>
      <point x="307.57427265471495" y="417.19354672482825"/>
      <point x="290.5535339174848" y="488.9209804215734"/>
      <point x="221.15958404541016" y="538.7515869140625" type="curve"/>
      <point x="290.55353449221735" y="588.5843484796445"/>
      <point x="307.57426950104207" y="660.3108078994682"/>
      <point x="307.5742702127712" y="727.2117199999999" type="curve"/>
      <point x="307.57427198440865" y="893.7415978136402" type="line"/>
      <point x="307.5742734943096" y="1035.6688402724049"/>
      <point x="426.79256409486567" y="1036.2125699507333"/>
      <point x="445.2488601977539" y="1036.2125700779789" type="curve"/>
      <point x="461.5592803955078" y="1036.2125701904297" type="line"/>
      <point x="461.5592803955078" y="1118.7970428466797" type="line"/>
      <point x="445.2488594055176" y="1118.7970428466797" type="line"/>
      <point x="258.60912138312267" y="1118.7970428466797"/>
      <point x="223.38395022500828" y="973.1558015916802"/>
      <point x="223.38394992891565" y="889.8484" type="curve"/>
      <point x="223.38394933703225" y="723.31852482002" type="line"/>
      <point x="223.3839488325919" y="581.3912823612554"/>
      <point x="104.16566162290768" y="580.8475607585798"/>
      <point x="85.70936552001952" y="580.8475587993265" type="curve"/>
      <point x="69.39894104003906" y="580.8475570678711" type="line"/>
      <point x="69.39894104003906" y="496.65724182128906" type="line"/>
      <point x="85.70936584472656" y="496.65724182128906" type="line"/>
      <point x="104.17162422498497" y="496.65724182128906"/>
      <point x="223.38395044717922" y="496.1095856139293"/>
      <point x="223.38394994275293" y="354.1862798783032" type="curve"/>
    </contour>
  </outline>
</glyph>
<glyph name="bar" format="2">
  <advance width="408.0693641618497"/>
  <unicode hex="007C"/>
  <outline>
    <contour>
      <point x="163.45665" y="-40.57803" type="line"/>
      <point x="244.61272" y="-40.57803" type="line"/>
      <point x="244.61272" y="1177.54335" type="line"/>
      <point x="163.45665" y="1177.54335" type="line"/>
    </contour>
  </outline>
</glyph>
<glyph name="braceright" format="2">
  <advance width="494.66441729698977"/>
  <unicode hex="007D"/>
  <outline>
    <contour>
      <point x="49.41556167602539" y="-41.29222869873047" type="line"/>
      <point x="236.05529969842027" y="-41.29222869873047"/>
      <point x="271.2804694370979" y="104.34899840831973"/>
      <point x="271.2804701778313" y="187.6564" type="curve"/>
      <point x="271.2804716585431" y="354.18628276795096" type="line"/>
      <point x="271.2804729204988" y="496.1135252267156"/>
      <point x="390.49875510316645" y="496.6572395288086"/>
      <point x="408.9550512060547" y="496.6572407457972" type="curve"/>
      <point x="425.2654724121094" y="496.65724182128906" type="line"/>
      <point x="425.2654724121094" y="580.8475570678711" type="line"/>
      <point x="408.95505142211914" y="580.8475570678711" type="line"/>
      <point x="292.353432841444" y="580.8475570678711"/>
      <point x="271.28046967393675" y="670.5406569876906"/>
      <point x="271.2804701778313" y="727.21172" type="curve"/>
      <point x="271.2804716239264" y="889.8483963012695" type="line"/>
      <point x="271.2804733406301" y="1082.919360135722"/>
      <point x="132.09458271332142" y="1118.7970326445552"/>
      <point x="49.41556034301757" y="1118.797041165683" type="curve"/>
      <point x="33.105140686035156" y="1118.7970428466797" type="line"/>
      <point x="33.105140686035156" y="1036.2125701904297" type="line"/>
      <point x="49.41556167602539" y="1036.2125701904297" type="line"/>
      <point x="166.01718025670056" y="1036.2125701904297"/>
      <point x="187.0901397653935" y="946.5194630123094"/>
      <point x="187.09014012795183" y="889.8484" type="curve"/>
      <point x="187.09014116843488" y="727.2117233276367" type="line"/>
      <point x="187.09014159643672" y="660.3112597937264"/>
      <point x="204.11088449253361" y="588.5838147472296"/>
      <point x="273.5048370361328" y="538.7532119750977" type="curve"/>
      <point x="204.11088252292942" y="488.92045607212214"/>
      <point x="187.09013969994706" y="417.19399210053166"/>
      <point x="187.0901401279518" y="350.2930799999999" type="curve"/>
      <point x="187.09014119334196" y="183.76320420431804" type="line"/>
      <point x="187.09014210133452" y="41.83596174555342"/>
      <point x="67.87185644590582" y="41.29223033665564"/>
      <point x="49.415560343017574" y="41.29222946714492" type="curve"/>
      <point x="33.105140686035156" y="41.29222869873047" type="line"/>
      <point x="33.105140686035156" y="-41.29222869873047" type="line"/>
    </contour>
  </outline>
</glyph>
<glyph name="tilde" format="2">
  <advance width="1010.9526302750362"/>
  <unicode hex="007E"/>
  <outline>
    <contour>
      <point x="574.8427963256836" y="401.07263946533203" type="line"/>
      <point x="607.82131" y="382.03249"/>
      <point x="645.23072" y="372.00867"/>
      <point x="683.31101" y="372.00867" type="curve"/>
      <point x="803.04148" y="372.00867"/>
      <point x="900.24743" y="469.21462"/>
      <point x="900.24743" y="588.94509" type="curve"/>
      <point x="819.0913619995117" y="588.9450912475586" type="line"/>
      <point x="819.09136" y="514.00587"/>
      <point x="758.25022" y="453.16474"/>
      <point x="683.31101" y="453.16474" type="curve"/>
      <point x="659.47658" y="453.16474"/>
      <point x="636.06206" y="459.43864"/>
      <point x="615.42084" y="471.35586" type="curve"/>
      <point x="436.1098327636719" y="574.8811187744141" type="line"/>
      <point x="403.13132" y="593.92127"/>
      <point x="365.72191" y="603.94509"/>
      <point x="327.64162" y="603.94509" type="curve"/>
      <point x="207.91115" y="603.94509"/>
      <point x="110.7052" y="506.73914"/>
      <point x="110.7052" y="387.00867" type="curve"/>
      <point x="191.86126708984375" y="387.0086669921875" type="line"/>
      <point x="191.86127" y="461.94788"/>
      <point x="252.70241" y="522.78902"/>
      <point x="327.64162" y="522.78902" type="curve"/>
      <point x="351.47605" y="522.78902"/>
      <point x="374.89057" y="516.51511"/>
      <point x="395.53179" y="504.5979" type="curve"/>
    </contour>
  </outline>
</glyph>
<glyph name="inv_exclamation" format="2">
  <advance width="378.93641618497105"/>
  <unicode hex="00A1"/>
  <outline>
    <contour>
      <point x="111.43353" y="737.15554" type="curve" smooth="yes"/>
      <point x="111.43353" y="694.08703"/>
      <point x="146.39969" y="659.12086"/>
      <point x="189.46821" y="659.12086" type="curve" smooth="yes"/>
      <point x="232.53672" y="659.12086"/>
      <point x="267.50289" y="694.08703"/>
      <point x="267.50289" y="737.15554" type="curve" smooth="yes"/>
      <point x="267.50289" y="780.22405"/>
      <point x="232.53672" y="815.19022"/>
      <point x="189.46821" y="815.19022" type="curve" smooth="yes"/>
      <point x="146.39969" y="815.19022"/>
      <point x="111.43353" y="780.22405"/>
    </contour>
    <contour>
      <point x="230.04624" y="519.69889" type="line"/>
      <point x="148.89017" y="519.69889" type="line"/>
      <point x="148.89017" y="-276.14523" type="line"/>
      <point x="230.04624" y="-276.14523" type="line"/>
    </contour>
  </outline>
</glyph>
<glyph name="invertedexclam" format="2">
  <advance width="377.4797687861272"/>
  <unicode hex="00A1"/>
  <outline>
    <contour>
      <point x="110.7052" y="704.82659" type="curve" smooth="yes"/>
      <point x="110.7052" y="661.75808"/>
      <point x="145.67137" y="626.79191"/>
      <point x="188.73988" y="626.79191" type="curve" smooth="yes"/>
      <point x="231.8084" y="626.79191"/>
      <point x="266.77457" y="661.75808"/>
      <point x="266.77457" y="704.82659" type="curve" smooth="yes"/>
      <point x="266.77457" y="747.8951"/>
      <point x="231.8084" y="782.86127"/>
      <point x="188.73988" y="782.86127" type="curve" smooth="yes"/>
      <point x="145.67137" y="782.86127"/>
      <point x="110.7052" y="747.8951"/>
    </contour>
    <contour>
      <point x="229.31792" y="487.36994" type="line"/>
      <point x="148.16185" y="487.36994" type="line"/>
      <point x="148.16185" y="-312.13873" type="line"/>
      <point x="229.31792" y="-312.13873" type="line"/>
    </contour>
  </outline>
</glyph>
<glyph name="cent" format="2">
  <advance width="939.6161231751863"/>
  <unicode hex="00A2"/>
  <outline>
    <contour>
      <point x="453.4120407104492" y="0" type="line"/>
      <point x="527.8381576538086" y="0" type="line"/>
      <point x="527.8381576538086" y="117.87920379638672" type="line"/>
      <point x="686.7740819408696" y="131.9786994788211"/>
      <point x="820.1471725236001" y="235.44174209068"/>
      <point x="877.0205600000002" y="377.61357" type="curve"/>
      <point x="785.7467803955078" y="377.6135711669922" type="line"/>
      <point x="735.53813936824" y="281.47998625419"/>
      <point x="639.7476610355433" y="212.88016935689623"/>
      <point x="527.1416397094727" y="200.5707778930664" type="curve"/>
      <point x="527.1416397094727" y="862.0539398193359" type="line"/>
      <point x="639.7476602017257" y="849.7497506431039"/>
      <point x="735.5381307054699" y="781.1499337458101"/>
      <point x="785.74669" y="685.01635" type="curve"/>
      <point x="877.0265884399414" y="685.0163497924805" type="line"/>
      <point x="820.15655552745" y="827.1820557604"/>
      <point x="686.7794985788762" y="930.6509453835282"/>
      <point x="527.8381576538086" y="944.7507019042969" type="curve"/>
      <point x="527.8381576538086" y="1062.6299209594727" type="line"/>
      <point x="453.4120407104492" y="1062.6299209594727" type="line"/>
      <point x="453.4120407104492" y="944.760612487793" type="line"/>
      <point x="241.2540994208093" y="925.9936044762583"/>
      <point x="74.58377000000004" y="748.0259206088"/>
      <point x="74.58377000000004" y="531.3149600000002" type="curve"/>
      <point x="74.58377" y="314.60400884561"/>
      <point x="241.25409942080927" y="136.6363165553881"/>
      <point x="453.4120407104492" y="117.86982727050781" type="curve"/>
    </contour>
    <contour>
      <point x="157.89027" y="531.3149599999999" type="curve"/>
      <point x="157.89027" y="702.61652948675"/>
      <point x="287.62025933643196" y="843.8571277848441"/>
      <point x="454.10855865478516" y="862.0608444213867" type="curve"/>
      <point x="454.10855865478516" y="200.57554626464844" type="line"/>
      <point x="287.6202593364319" y="218.77279221515585"/>
      <point x="157.8902699999999" y="360.01339051325"/>
    </contour>
  </outline>
</glyph>
<glyph name="pound" format="2">
  <advance width="975.1213872832368"/>
  <unicode hex="00A3"/>
  <outline>
    <contour>
      <point x="95.82659149169922" y="0" type="line"/>
      <point x="863.687858581543" y="0" type="line"/>
      <point x="863.687858581543" y="81.15606689453125" type="line"/>
      <point x="301.83815002441406" y="81.15606689453125" type="line"/>
      <point x="301.83815002441406" y="444.29547119140625" type="line"/>
      <point x="676.4046173095703" y="444.29547119140625" type="line"/>
      <point x="676.4046173095703" y="514.901252746582" type="line"/>
      <point x="301.83815002441406" y="514.901252746582" type="line"/>
      <point x="301.83815002441406" y="749.8325576782227" type="line"/>
      <point x="301.83815002441406" y="932.2776044677832"/>
      <point x="431.51530077178177" y="1010.17938"/>
      <point x="542.18497" y="1010.17938" type="curve" smooth="yes"/>
      <point x="674.83599" y="1010.17938"/>
      <point x="782.53179" y="902.48358"/>
      <point x="782.53179" y="769.83256" type="curve"/>
      <point x="863.687858581543" y="769.8325576782227" type="line"/>
      <point x="863.6878599999999" y="947.2748292187501"/>
      <point x="719.6272400000001" y="1091.33545"/>
      <point x="542.18497" y="1091.33545" type="curve" smooth="yes"/>
      <point x="388.99400189811564" y="1091.33545"/>
      <point x="220.68207742901416" y="979.241289334865"/>
      <point x="220.68208024554716" y="749.83256" type="curve"/>
      <point x="220.6820831298828" y="514.901252746582" type="line"/>
      <point x="95.82659149169922" y="514.901252746582" type="line"/>
      <point x="95.82659149169922" y="444.29547119140625" type="line"/>
      <point x="220.6820831298828" y="444.29547119140625" type="line"/>
      <point x="220.6820831298828" y="81.15606689453125" type="line"/>
      <point x="95.82659149169922" y="81.15606689453125" type="line"/>
    </contour>
  </outline>
</glyph>
<glyph name="currency" format="2">
  <advance width="920.9269751301431"/>
  <unicode hex="00A4"/>
  <outline>
    <contour>
      <point x="746.8507708020657" y="540.0" type="curve" smooth="yes"/>
      <point x="746.8507708020657" y="604.4147799291574"/>
      <point x="725.5383253377483" y="663.8910500581026"/>
      <point x="689.5862274169922" y="711.7367324829102" type="curve"/>
      <point x="872.6495208740234" y="894.8000259399414" type="line"/>
      <point x="815.2635116577148" y="952.1860275268555" type="line"/>
      <point x="632.2023696899414" y="769.1248931884766" type="line"/>
      <point x="584.3405269985511" y="805.0798579534564"/>
      <point x="524.8706805449574" y="826.3872832369941"/>
      <point x="460.4634875650715" y="826.3872832369941" type="curve" smooth="yes"/>
      <point x="396.05740101528767" y="826.3872832369941"/>
      <point x="336.58849135913096" y="805.0805900137481"/>
      <point x="288.7267532348633" y="769.1227416992188" type="curve"/>
      <point x="105.66346740722656" y="952.1860275268555" type="line"/>
      <point x="48.27745819091797" y="894.8000259399414" type="line"/>
      <point x="231.3386001586914" y="711.738883972168" type="line"/>
      <point x="195.3878130545337" y="663.8887149635141"/>
      <point x="174.07620432807727" y="604.4135154376121"/>
      <point x="174.07620432807727" y="540.0" type="curve" smooth="yes"/>
      <point x="174.0762043280773" y="475.58522007084264"/>
      <point x="195.3886497923946" y="416.10894994189744"/>
      <point x="231.34075164794922" y="368.26326751708984" type="curve"/>
      <point x="48.27745819091797" y="185.1999740600586" type="line"/>
      <point x="105.66346740722656" y="127.81397247314453" type="line"/>
      <point x="288.72460174560547" y="310.87510681152344" type="line"/>
      <point x="336.58644813159185" y="274.9201420465434"/>
      <point x="396.0562945851855" y="253.61271676300575"/>
      <point x="460.46348756507143" y="253.61271676300578" type="curve" smooth="yes"/>
      <point x="524.8695741148553" y="253.61271676300575"/>
      <point x="584.338483771012" y="274.91940998625176"/>
      <point x="632.2002182006836" y="310.87725830078125" type="curve"/>
      <point x="815.2635116577148" y="127.81397247314453" type="line"/>
      <point x="872.6495208740234" y="185.1999740600586" type="line"/>
      <point x="689.58837890625" y="368.26111602783203" type="line"/>
      <point x="725.5391620756092" y="416.1112850364858"/>
      <point x="746.8507708020657" y="475.5864845623878"/>
    </contour>
    <contour>
      <point x="665.6947014379039" y="540.0" type="curve" smooth="yes"/>
      <point x="665.6947014379039" y="426.7298104907514"/>
      <point x="573.73367707432" y="334.76878612716763"/>
      <point x="460.4634875650715" y="334.76878612716763" type="curve" smooth="yes"/>
      <point x="347.1932980558229" y="334.76878612716763"/>
      <point x="255.23227369223915" y="426.72981049075145"/>
      <point x="255.23227369223915" y="540.0" type="curve" smooth="yes"/>
      <point x="255.23227369223915" y="653.2701895092486"/>
      <point x="347.1932980558229" y="745.2312138728323"/>
      <point x="460.4634875650715" y="745.2312138728323" type="curve" smooth="yes"/>
      <point x="573.73367707432" y="745.2312138728323"/>
      <point x="665.6947014379039" y="653.2701895092486"/>
    </contour>
  </outline>
</glyph>
<glyph name="yen" format="2">
  <advance width="959.0982658959538"/>
  <unicode hex="00A5"/>
  <outline>
    <contour>
      <point x="95.61849975585938" y="196.9580535888672" type="line"/>
      <point x="438.9710998535156" y="196.9580535888672" type="line"/>
      <point x="438.9710998535156" y="0" type="line"/>
      <point x="520.1271667480469" y="0" type="line"/>
      <point x="520.1271667480469" y="196.9580535888672" type="line"/>
      <point x="863.4797668457031" y="196.9580535888672" type="line"/>
      <point x="863.4797668457031" y="267.56382751464844" type="line"/>
      <point x="520.1271667480469" y="267.56382751464844" type="line"/>
      <point x="520.1271667480469" y="411.42857360839844" type="line"/>
      <point x="863.4797668457031" y="411.42857360839844" type="line"/>
      <point x="863.4797668457031" y="482.0343475341797" type="line"/>
      <point x="563.0353240966797" y="482.0343475341797" type="line"/>
      <point x="926.4277496337891" y="1080" type="line"/>
      <point x="831.460693359375" y="1080" type="line"/>
      <point x="479.54913330078125" y="500.92623138427734" type="line"/>
      <point x="127.63758087158203" y="1080" type="line"/>
      <point x="32.67051696777344" y="1080" type="line"/>
      <point x="396.0629425048828" y="482.0343475341797" type="line"/>
      <point x="95.61849975585938" y="482.0343475341797" type="line"/>
      <point x="95.61849975585938" y="411.42857360839844" type="line"/>
      <point x="438.9710998535156" y="411.42857360839844" type="line"/>
      <point x="438.9710998535156" y="267.56382751464844" type="line"/>
      <point x="95.61849975585938" y="267.56382751464844" type="line"/>
    </contour>
  </outline>
</glyph>
<glyph name="brokenbar" format="2">
  <advance width="408.0693641618497"/>
  <unicode hex="00A6"/>
  <outline>
    <contour>
      <point x="163.45665" y="662.12428" type="line"/>
      <point x="244.61272" y="662.12428" type="line"/>
      <point x="244.61272" y="1177.54335" type="line"/>
      <point x="163.45665" y="1177.54335" type="line"/>
    </contour>
    <contour>
      <point x="163.45665" y="-40.57803" type="line"/>
      <point x="244.61272" y="-40.57803" type="line"/>
      <point x="244.61272" y="474.84104" type="line"/>
      <point x="163.45665" y="474.84104" type="line"/>
    </contour>
  </outline>
</glyph>
<glyph name="section" format="2">
  <advance width="804.485549132948"/>
  <unicode hex="00A7"/>
  <outline>
    <contour>
      <point x="492.73358154296875" y="631.7913665771484" type="line"/>
      <point x="498.5403518676758" y="629.9207534790039" type="line"/>
      <point x="498.6448059082031" y="629.8866958618164" type="line"/>
      <point x="503.72782135009766" y="628.1219100952148" type="line"/>
      <point x="504.50563049316406" y="627.8499603271484" type="line"/>
      <point x="507.8523483276367" y="626.6020660400391" type="line"/>
      <point x="547.8345336002058" y="611.5777932519741"/>
      <point x="580.6797391859516" y="588.2715318780005"/>
      <point x="601.9030456542969" y="559.9343414306641" type="curve"/>
      <point x="602.182861328125" y="559.5645065307617" type="line"/>
      <point x="604.5344161987305" y="556.3053588867188" type="line"/>
      <point x="605.0442352294922" y="555.5827102661133" type="line"/>
      <point x="607.1081314086914" y="552.5212554931641" type="line"/>
      <point x="607.7546005249023" y="551.5352935791016" type="line"/>
      <point x="609.5851211547852" y="548.6197662353516" type="line"/>
      <point x="610.3110046386719" y="547.423942565918" type="line"/>
      <point x="611.9434967041016" y="544.6214447021484" type="line"/>
      <point x="612.71044921875" y="543.2504043579102" type="line"/>
      <point x="614.1691665649414" y="540.5392456054688" type="line"/>
      <point x="614.9501495361328" y="539.0159530639648" type="line"/>
      <point x="616.2522125244141" y="536.3820419311523" type="line"/>
      <point x="617.0275955200195" y="534.7210235595703" type="line"/>
      <point x="618.1851959228516" y="532.1561965942383" type="line"/>
      <point x="618.940071105957" y="530.3659362792969" type="line"/>
      <point x="619.9621353149414" y="527.8666610717773" type="line"/>
      <point x="620.6857452392578" y="525.9479370117188" type="line"/>
      <point x="621.5778656005859" y="523.5176696777344" type="line"/>
      <point x="622.2640838623047" y="521.4579238891602" type="line"/>
      <point x="623.0278091430664" y="519.1130752563477" type="line"/>
      <point x="623.6795501708984" y="516.8629989624023" type="line"/>
      <point x="624.3078765869141" y="514.65625" type="line"/>
      <point x="624.9648284912109" y="511.99159240722656" type="line"/>
      <point x="625.414306640625" y="510.1502456665039" type="line"/>
      <point x="626.3334808349609" y="505.6393280029297" type="line"/>
      <point x="626.5677108764648" y="504.2080612182617" type="line"/>
      <point x="627.0810775756836" y="501.0244140625" type="line"/>
      <point x="627.305046081543" y="499.21422576904297" type="line"/>
      <point x="627.6429443359375" y="496.3731155395508" type="line"/>
      <point x="627.8070831298828" y="494.41754150390625" type="line"/>
      <point x="628.0166625976562" y="491.68702697753906" type="line"/>
      <point x="628.10693359375" y="489.6455764770508" type="line"/>
      <point x="628.2073287963867" y="486.7485046386719" type="line"/>
      <point x="628.2312088012695" y="484.7895965576172" type="line"/>
      <point x="628.23121" y="396.42391"/>
      <point x="527.22845" y="324.39191"/>
      <point x="402.24277" y="324.39191" type="curve" smooth="yes"/>
      <point x="370.38429767401" y="324.39191"/>
      <point x="340.08405450294237" y="329.0720077232275"/>
      <point x="312.6176300048828" y="337.52359771728516" type="curve"/>
      <point x="308.0613327026367" y="338.96849822998047" type="line"/>
      <point x="306.49391174316406" y="339.4795379638672" type="line"/>
      <point x="302.83436584472656" y="340.731201171875" type="line"/>
      <point x="300.55928802490234" y="341.5266647338867" type="line"/>
      <point x="297.82083892822266" y="342.5331726074219" type="line"/>
      <point x="294.79139709472656" y="343.66561126708984" type="line"/>
      <point x="293.1509246826172" y="344.3115539550781" type="line"/>
      <point x="251.12035124108857" y="360.78748555260114"/>
      <point x="217.29301032687198" y="386.4990128506038"/>
      <point x="197.0469970703125" y="417.5480728149414" type="curve"/>
      <point x="196.96592712402344" y="417.6696472167969" type="line"/>
      <point x="194.8719253540039" y="421.0048294067383" type="line"/>
      <point x="194.39690399169922" y="421.77354431152344" type="line"/>
      <point x="192.64647674560547" y="424.7784881591797" type="line"/>
      <point x="191.98495483398438" y="425.9387512207031" type="line"/>
      <point x="190.4825897216797" y="428.7310256958008" type="line"/>
      <point x="189.73304748535156" y="430.1634063720703" type="line"/>
      <point x="188.42591094970703" y="432.8075866699219" type="line"/>
      <point x="187.6444320678711" y="434.4449996948242" type="line"/>
      <point x="186.50028228759766" y="436.98001861572266" type="line"/>
      <point x="185.72169494628906" y="438.78235626220703" type="line"/>
      <point x="184.7198486328125" y="441.2322006225586" type="line"/>
      <point x="183.9676742553711" y="443.1739730834961" type="line"/>
      <point x="183.09400177001953" y="445.55397033691406" type="line"/>
      <point x="182.38507843017578" y="447.6189422607422" type="line"/>
      <point x="181.62965393066406" y="449.9383087158203" type="line"/>
      <point x="180.97662353515625" y="452.11695861816406" type="line"/>
      <point x="180.33240509033203" y="454.37953186035156" type="line"/>
      <point x="179.7447967529297" y="456.66963958740234" type="line"/>
      <point x="179.20690155029297" y="458.87320709228516" type="line"/>
      <point x="178.6919403076172" y="461.2821273803711" type="line"/>
      <point x="178.2572021484375" y="463.4157028198242" type="line"/>
      <point x="177.82025146484375" y="465.9674377441406" type="line"/>
      <point x="177.48702239990234" y="468.0036392211914" type="line"/>
      <point x="177.13030242919922" y="470.77073669433594" type="line"/>
      <point x="176.8998260498047" y="472.6335220336914" type="line"/>
      <point x="176.61717987060547" y="475.8918228149414" type="line"/>
      <point x="176.49876403808594" y="477.3027038574219" type="line"/>
      <point x="176.28812408447266" y="482.01820373535156" type="line"/>
      <point x="176.25434112548828" y="484.7895965576172" type="line"/>
      <point x="176.25434" y="573.15528"/>
      <point x="277.2571" y="645.18728"/>
      <point x="402.24277" y="645.18728" type="curve" smooth="yes"/>
      <point x="434.3253441992" y="645.18728"/>
      <point x="464.8276896490342" y="640.4411090886048"/>
      <point x="492.44713592529297" y="631.8801193237305" type="curve"/>
    </contour>
    <contour>
      <point x="103.42196655273438" y="82.83815002441406" type="line"/>
      <point x="103.42197" y="-31.88405"/>
      <point x="236.93405" y="-125.42081"/>
      <point x="402.24277" y="-125.42081" type="curve" smooth="yes"/>
      <point x="567.5515" y="-125.42081"/>
      <point x="701.06358" y="-31.88405"/>
      <point x="701.06358" y="82.83815" type="curve"/>
      <point x="701.06358" y="163.49324055695"/>
      <point x="635.0934410789151" y="233.74742143451215"/>
      <point x="538.4378967285156" y="268.25062561035156" type="curve"/>
      <point x="639.7952066755716" y="307.7665096604042"/>
      <point x="709.3872799999999" y="390.0101838674799"/>
      <point x="709.3872799999999" y="484.78959999999995" type="curve"/>
      <point x="709.38728" y="486.4719037532"/>
      <point x="709.3653549490972" y="488.1502581102175"/>
      <point x="709.3217163085938" y="489.77711486816406" type="curve"/>
      <point x="709.38728" y="487.15486571958"/>
      <point x="709.3439511592122" y="489.51236159452003"/>
      <point x="709.2578811645508" y="491.4592514038086" type="curve"/>
      <point x="709.2221062683321" y="492.8368874721387"/>
      <point x="709.1789458684303" y="493.81179401656595"/>
      <point x="709.1284332275391" y="494.7394714355469" type="curve"/>
      <point x="709.0900223452443" y="495.5274131390673"/>
      <point x="709.0473580536449" y="496.26715508048636"/>
      <point x="709.0004653930664" y="496.76194763183594" type="curve"/>
      <point x="708.9429539688952" y="497.9101628565207"/>
      <point x="708.8790758368424" y="498.81495010844276"/>
      <point x="708.8088684082031" y="499.67393493652344" type="curve"/>
      <point x="708.7490826602816" y="500.49028702420526"/>
      <point x="708.6847026128565" y="501.25888896944184"/>
      <point x="708.6157455444336" y="501.85308837890625" type="curve"/>
      <point x="708.5378104722009" y="502.8913248353473"/>
      <point x="708.4540320189888" y="503.7576429534232"/>
      <point x="708.3644332885742" y="504.5798797607422" type="curve"/>
      <point x="708.2827723200716" y="505.4147774372767"/>
      <point x="708.1962912832714" y="506.2023477656322"/>
      <point x="708.1049957275391" y="506.85520935058594" type="curve"/>
      <point x="708.0076730078069" y="507.8235431574283"/>
      <point x="707.9049066258721" y="508.6605678017188"/>
      <point x="707.7966995239258" y="509.455078125" type="curve"/>
      <point x="707.6926122568449" y="510.3049548989376"/>
      <point x="707.5834903316755" y="511.10809851821244"/>
      <point x="707.469352722168" y="511.80199432373047" type="curve"/>
      <point x="707.3537546340319" y="512.7175394661421"/>
      <point x="707.2330088885427" y="513.5286182224967"/>
      <point x="707.1071472167969" y="514.2988128662109" type="curve"/>
      <point x="706.9799921892642" y="515.1623147229286"/>
      <point x="706.8476320389539" y="515.9794517963462"/>
      <point x="706.7101058959961" y="516.7048721313477" type="curve"/>
      <point x="706.5773908917331" y="517.5763382226431"/>
      <point x="706.4398701677686" y="518.3620765472962"/>
      <point x="706.2975311279297" y="519.1085662841797" type="curve"/>
      <point x="706.1464032599108" y="519.9864367625638"/>
      <point x="705.9898808778679" y="520.8182542341336"/>
      <point x="705.8280029296875" y="521.5713806152344" type="curve"/>
      <point x="705.6797486066832" y="522.4017306889829"/>
      <point x="705.5269783531412" y="523.1608221765008"/>
      <point x="705.369743347168" y="523.8821334838867" type="curve"/>
      <point x="705.1936244952947" y="524.7752328394527"/>
      <point x="705.0118919066927" y="525.6226796919351"/>
      <point x="704.8245620727539" y="526.4016189575195" type="curve"/>
      <point x="704.6623830010711" y="527.1925308144739"/>
      <point x="704.4960348670475" y="527.9234562221784"/>
      <point x="704.3254852294922" y="528.6185455322266" type="curve"/>
      <point x="704.1231525229575" y="529.528299131555"/>
      <point x="703.9149562363054" y="530.3927692106081"/>
      <point x="703.700927734375" y="531.1966400146484" type="curve"/>
      <point x="703.526772680903" y="531.9479409288632"/>
      <point x="703.3487822600854" y="532.6485989302935"/>
      <point x="703.1669769287109" y="533.3148880004883" type="curve"/>
      <point x="702.9369136008235" y="534.2433956732752"/>
      <point x="702.70070539015" y="535.1269072167661"/>
      <point x="702.4583435058594" y="535.9564056396484" type="curve"/>
      <point x="702.274620726633" y="536.6662884810233"/>
      <point x="702.0873908655227" y="537.333516587664"/>
      <point x="701.8966064453125" y="537.9684829711914" type="curve"/>
      <point x="701.6367945259606" y="538.9189011387783"/>
      <point x="701.3704960275905" y="539.8246475884447"/>
      <point x="701.0977630615234" y="540.6815185546875" type="curve"/>
      <point x="700.9072830753909" y="541.3472927897285"/>
      <point x="700.7137079770641" y="541.9771493680578"/>
      <point x="700.5170135498047" y="542.5763931274414" type="curve"/>
      <point x="700.2251947704976" y="543.5517992899606"/>
      <point x="699.9264552250118" y="544.4829746406972"/>
      <point x="699.6208877563477" y="545.3697280883789" type="curve"/>
      <point x="699.4269926017691" y="545.9878269744869"/>
      <point x="699.2303802961975" y="546.576116498602"/>
      <point x="699.0310668945312" y="547.1356887817383" type="curve"/>
      <point x="698.7042970748029" y="548.140374416998"/>
      <point x="698.3701556437276" y="549.1011049306879"/>
      <point x="698.0286560058594" y="550.0213317871094" type="curve"/>
      <point x="697.8357049275613" y="550.5861810426674"/>
      <point x="697.6403755595061" y="551.126881510353"/>
      <point x="697.442741394043" y="551.6410522460938" type="curve"/>
      <point x="697.0772679546245" y="552.6805235716591"/>
      <point x="696.7038265805498" y="553.6764879170042"/>
      <point x="696.3224792480469" y="554.6350402832031" type="curve"/>
      <point x="696.1356873677415" y="555.1400746504413"/>
      <point x="695.9469640299993" y="555.6258903851681"/>
      <point x="695.7563781738281" y="556.0875549316406" type="curve"/>
      <point x="695.34743211131" y="557.1686361014647"/>
      <point x="694.9297772073619" y="558.206820383386"/>
      <point x="694.5035018920898" y="559.2102661132812" type="curve"/>
      <point x="694.3298841475579" y="559.6459614499842"/>
      <point x="694.1547715871426" y="560.0670576329525"/>
      <point x="693.9781723022461" y="560.4669647216797" type="curve"/>
      <point x="693.51951715963" y="561.5985539559846"/>
      <point x="693.0512102517143" y="562.6881185594789"/>
      <point x="692.5733261108398" y="563.7452850341797" type="curve"/>
      <point x="692.4216543070597" y="564.1000443635651"/>
      <point x="692.2690809593895" y="564.4441485416672"/>
      <point x="692.1155624389648" y="564.7702407836914" type="curve"/>
      <point x="691.5989242246393" y="565.9639697976427"/>
      <point x="691.0714623993439" y="567.1168892367372"/>
      <point x="690.5331573486328" y="568.239387512207" type="curve"/>
      <point x="690.4161360330805" y="568.495460818664"/>
      <point x="690.298524235088" y="568.74513525244"/>
      <point x="690.1804580688477" y="568.9810638427734" type="curve"/>
      <point x="689.5942441614696" y="570.2533110382394"/>
      <point x="688.9954221735326" y="571.4871540723985"/>
      <point x="688.3841171264648" y="572.6920013427734" type="curve"/>
      <point x="688.319805675748" y="572.8240763773658"/>
      <point x="688.2553523558347" y="572.953295364466"/>
      <point x="688.1907043457031" y="573.0751113891602" type="curve"/>
      <point x="659.6151035343566" y="630.2649184692873"/>
      <point x="604.1258731791903" y="676.8558332705788"/>
      <point x="533.9276733398438" y="703.0588302612305" type="curve"/>
      <point x="533.645397747647" y="703.1692657231773"/>
      <point x="533.3630909872365" y="703.2744444867433"/>
      <point x="533.0805587768555" y="703.3770446777344" type="curve"/>
      <point x="531.7867097467197" y="703.8658542419229"/>
      <point x="530.4878488425793" y="704.3383208457057"/>
      <point x="529.1841125488281" y="704.7906723022461" type="curve"/>
      <point x="528.5897898365897" y="705.0115609155491"/>
      <point x="527.9942987563629" y="705.2227379923344"/>
      <point x="527.3976821899414" y="705.4275588989258" type="curve"/>
      <point x="526.3620822886128" y="705.7996526303945"/>
      <point x="525.3232733787069" y="706.1587757041939"/>
      <point x="524.2814102172852" y="706.5015487670898" type="curve"/>
      <point x="523.3884922140837" y="706.816392769355"/>
      <point x="522.4935645882828" y="707.1176791433023"/>
      <point x="521.5964584350586" y="707.4081954956055" type="curve"/>
      <point x="520.8163412965617" y="707.6742785933026"/>
      <point x="520.0345394627861" y="707.930466110775"/>
      <point x="519.2512588500977" y="708.1744689941406" type="curve"/>
      <point x="518.0592893799829" y="708.572590342306"/>
      <point x="516.8633410891449" y="708.9537386531833"/>
      <point x="515.6636199951172" y="709.3193740844727" type="curve"/>
      <point x="515.202891972682" y="709.4688374432561"/>
      <point x="514.7417244075599" y="709.61178668752"/>
      <point x="514.28001" y="709.75388" type="curve"/>
      <point x="307.5198516845703" y="773.3846435546875" type="line"/>
      <point x="239.42164" y="794.34197"/>
      <point x="192.90173" y="837.38379"/>
      <point x="192.90173" y="886.74104" type="curve"/>
      <point x="192.90173" y="956.70805"/>
      <point x="286.42607" y="1013.84393"/>
      <point x="402.24277" y="1013.84393" type="curve" smooth="yes"/>
      <point x="518.05948" y="1013.84393"/>
      <point x="611.58382" y="956.70805"/>
      <point x="611.58382" y="886.74104" type="curve"/>
      <point x="692.7398834228516" y="886.7410430908203" type="line"/>
      <point x="692.73988" y="1001.48037"/>
      <point x="562.85449" y="1095.0"/>
      <point x="402.24277" y="1095.0" type="curve" smooth="yes"/>
      <point x="241.63106" y="1095.0"/>
      <point x="111.74566" y="1001.48037"/>
      <point x="111.74566" y="886.74104" type="curve"/>
      <point x="111.74566" y="806.64017501195"/>
      <point x="175.023098193013" y="736.8051738133364"/>
      <point x="267.9069366455078" y="702.0539627075195" type="curve"/>
      <point x="165.5424974328048" y="662.8162227423214"/>
      <point x="95.09827" y="580.1475297744801"/>
      <point x="95.09826999999996" y="484.78960000000006" type="curve"/>
      <point x="95.09827" y="483.1079618521"/>
      <point x="95.120177701704" y="481.4302699768374"/>
      <point x="95.16378021240234" y="479.8034439086914" type="curve"/>
      <point x="95.09827" y="482.42709876754003"/>
      <point x="95.1414994408932" y="480.0723546124212"/>
      <point x="95.22737121582031" y="478.12772369384766" type="curve"/>
      <point x="95.26317122654304" y="476.7486517807597"/>
      <point x="95.30637384031427" y="475.77215507434784"/>
      <point x="95.35694122314453" y="474.8425064086914" type="curve"/>
      <point x="95.39522959890374" y="474.05753569955226"/>
      <point x="95.43774878054522" y="473.31989255550116"/>
      <point x="95.48446655273438" y="472.8270568847656" type="curve"/>
      <point x="95.54204064572289" y="471.67705106557133"/>
      <point x="95.60601541267658" y="470.77041786508494"/>
      <point x="95.67633819580078" y="469.9091796875" type="curve"/>
      <point x="95.73585183596636" y="469.0969965808506"/>
      <point x="95.79992551332717" y="468.33162721843183"/>
      <point x="95.86853790283203" y="467.7404479980469" type="curve"/>
      <point x="95.94668909147957" y="466.69885049643887"/>
      <point x="96.03072852206253" y="465.8293875993396"/>
      <point x="96.12063598632812" y="465.0035400390625" type="curve"/>
      <point x="96.201740982145" y="464.1747890869437"/>
      <point x="96.28760165373261" y="463.3924233019368"/>
      <point x="96.3781967163086" y="462.74468994140625" type="curve"/>
      <point x="96.47605255061202" y="461.7705973037434"/>
      <point x="96.57941941884928" y="460.92823399214416"/>
      <point x="96.68830108642578" y="460.1280288696289" type="curve"/>
      <point x="96.79146047616058" y="459.2862159445673"/>
      <point x="96.89956252567451" y="458.4901411299811"/>
      <point x="97.01255798339844" y="457.80328369140625" type="curve"/>
      <point x="97.12909242411563" y="456.8798709758427"/>
      <point x="97.2508725425284" y="456.06141574841547"/>
      <point x="97.37784576416016" y="455.2837600708008" type="curve"/>
      <point x="97.50359550274652" y="454.43027624386855"/>
      <point x="97.63442572160136" y="453.62215383816874"/>
      <point x="97.77034759521484" y="452.9052200317383" type="curve"/>
      <point x="97.90450181903033" y="452.0237845930957"/>
      <point x="98.04361839452106" y="451.22853034045966"/>
      <point x="98.18765258789062" y="450.47251892089844" type="curve"/>
      <point x="98.33667087631062" y="449.60738950137954"/>
      <point x="98.49098206656707" y="448.7868953686627"/>
      <point x="98.65052795410156" y="448.04461669921875" type="curve"/>
      <point x="98.80105095636026" y="447.2010644286791"/>
      <point x="98.95624152958351" y="446.42958163556983"/>
      <point x="99.11603546142578" y="445.69602966308594" type="curve"/>
      <point x="99.28913071546602" y="444.8186713598742"/>
      <point x="99.46767063573783" y="443.98570017999634"/>
      <point x="99.65162658691406" y="443.2208557128906" type="curve"/>
      <point x="99.81715926966102" y="442.41302178764874"/>
      <point x="99.98704066880488" y="441.66623667634076"/>
      <point x="100.1612777709961" y="440.9556579589844" type="curve"/>
      <point x="100.3594917438386" y="440.0648360570065"/>
      <point x="100.5633628194891" y="439.2179400004785"/>
      <point x="100.77284240722656" y="438.4311828613281" type="curve"/>
      <point x="100.95153462305817" y="437.6596953386659"/>
      <point x="101.13431388415601" y="436.93988650512955"/>
      <point x="101.32115173339844" y="436.2546920776367" type="curve"/>
      <point x="101.54581332380492" y="435.3484380419178"/>
      <point x="101.77633763897484" y="434.4858294426879"/>
      <point x="102.01268005371094" y="433.6769256591797" type="curve"/>
      <point x="102.20265800589236" y="432.94226782518564"/>
      <point x="102.39641698884255" y="432.25152591145127"/>
      <point x="102.59394073486328" y="431.5937194824219" type="curve"/>
      <point x="102.846504665775" y="430.67025097427666"/>
      <point x="103.1051812039465" y="429.79010548503305"/>
      <point x="103.3699951171875" y="428.95809173583984" type="curve"/>
      <point x="103.56880558851336" y="428.2625332821214"/>
      <point x="103.77109348623635" y="427.60412512162225"/>
      <point x="103.97685241699219" y="426.97689056396484" type="curve"/>
      <point x="104.2593191394429" y="426.03314114787497"/>
      <point x="104.54825069142095" y="425.13226682268936"/>
      <point x="104.8436050415039" y="424.2751235961914" type="curve"/>
      <point x="105.04853837611327" y="423.6211461004344"/>
      <point x="105.25650738425082" y="422.99873744392426"/>
      <point x="105.46749114990234" y="422.4060745239258" type="curve"/>
      <point x="105.78219025157019" y="421.43886796198785"/>
      <point x="106.103693355289" y="420.51426519910683"/>
      <point x="106.43202209472656" y="419.6294708251953" type="curve"/>
      <point x="106.6395256116219" y="419.02133055720896"/>
      <point x="106.84974819731835" y="418.4393302879492"/>
      <point x="107.06266021728516" y="417.88509368896484" type="curve"/>
      <point x="107.41250975460346" y="416.89037022415937"/>
      <point x="107.76969452979671" y="415.93763696457637"/>
      <point x="108.13412475585938" y="415.0215301513672" type="curve"/>
      <point x="108.33987522043381" y="414.464534499063"/>
      <point x="108.54794518380584" y="413.92891237771136"/>
      <point x="108.75836181640625" y="413.41888427734375" type="curve"/>
      <point x="109.14728973687173" y="412.39097183328613"/>
      <point x="109.54411962979148" y="411.40454146864573"/>
      <point x="109.94872283935547" y="410.4519958496094" type="curve"/>
      <point x="110.14719597944712" y="409.953259600732"/>
      <point x="110.34757300427742" y="409.4714836833236"/>
      <point x="110.54976654052734" y="409.0133056640625" type="curve"/>
      <point x="110.9827171652113" y="407.9452808357781"/>
      <point x="111.42423537319914" y="406.91819182490445"/>
      <point x="111.8742904663086" y="405.9224395751953" type="curve"/>
      <point x="112.05836562493971" y="405.49125239927645"/>
      <point x="112.24380312646828" y="405.0731765749992"/>
      <point x="112.43061065673828" y="404.67604064941406" type="curve"/>
      <point x="112.91419999440596" y="403.55866447739294"/>
      <point x="113.40724871481369" y="402.4813389943596"/>
      <point x="113.90972137451172" y="401.43335723876953" type="curve"/>
      <point x="114.06948905920758" y="401.08320584944556"/>
      <point x="114.2301367906357" y="400.7423863922922"/>
      <point x="114.39166259765625" y="400.41929626464844" type="curve"/>
      <point x="114.93495917951215" y="399.23992298324026"/>
      <point x="115.48902635310039" y="398.09899816895154"/>
      <point x="116.0536880493164" y="396.98583221435547" type="curve"/>
      <point x="116.17525308914189" y="396.7357569461568"/>
      <point x="116.2972573166741" y="396.49140485215094"/>
      <point x="116.4197006225586" y="396.2603988647461" type="curve"/>
      <point x="117.03552981603048" y="395.00129464069295"/>
      <point x="117.66377162200902" y="393.7784219405311"/>
      <point x="118.30438232421875" y="392.5818328857422" type="curve"/>
      <point x="118.36758425988701" y="392.45946401678515"/>
      <point x="118.4309226183277" y="392.339343250434"/>
      <point x="118.49444580078125" y="392.2260513305664" type="curve"/>
      <point x="146.9291578289292" y="338.38387245250453"/>
      <point x="199.39910744765731" y="294.33835151953804"/>
      <point x="265.42388916015625" y="268.48624420166016" type="curve"/>
      <point x="265.6198168248096" y="268.40546153951794"/>
      <point x="265.8158924564419" y="268.3287629885504"/>
      <point x="266.0120620727539" y="268.25341796875" type="curve"/>
      <point x="267.3270174749513" y="267.7331986355419"/>
      <point x="268.64732106010786" y="267.2280878004289"/>
      <point x="269.97303009033203" y="266.7433319091797" type="curve"/>
      <point x="270.50362864383874" y="266.53531073873177"/>
      <point x="271.03508640269104" y="266.3369129567881"/>
      <point x="271.56737518310547" y="266.1432342529297" type="curve"/>
      <point x="272.62548457401675" y="265.74437029085965"/>
      <point x="273.6867806993264" y="265.35754371912697"/>
      <point x="274.7514953613281" y="264.988037109375" type="curve"/>
      <point x="275.5733582533925" y="264.68191215351254"/>
      <point x="276.3970462192645" y="264.38922642612016"/>
      <point x="277.2226791381836" y="264.1051712036133" type="curve"/>
      <point x="278.04468489859835" y="263.8104300321809"/>
      <point x="278.8686922560082" y="263.5249901701226"/>
      <point x="279.69466400146484" y="263.2532272338867" type="curve"/>
      <point x="280.7884427804374" y="262.8666416579644"/>
      <point x="281.88545084739076" y="262.49656648509665"/>
      <point x="282.98595428466797" y="262.13934326171875" type="curve"/>
      <point x="283.57845794270503" y="261.93763627135274"/>
      <point x="284.1718323360552" y="261.74278902273835"/>
      <point x="284.76629638671875" y="261.55763244628906" type="curve"/>
      <point x="286.1278307124589" y="261.1017208599138"/>
      <point x="287.49427208035604" y="260.6652913206247"/>
      <point x="288.86570739746094" y="260.2462921142578" type="curve"/>
      <point x="289.6165459899324" y="260.00818873625343"/>
      <point x="290.36873112553246" y="259.7761288166346"/>
      <point x="291.1222152709961" y="259.54883575439453" type="curve"/>
      <point x="291.9062007345234" y="259.2992614806479"/>
      <point x="292.6919516687287" y="259.06212654660413"/>
      <point x="293.4790725708008" y="258.8329772949219" type="curve"/>
      <point x="502.36566162109375" y="195.70416259765625" type="line"/>
      <point x="572.29236" y="174.57121"/>
      <point x="619.90751" y="131.81007"/>
      <point x="619.90751" y="82.83815" type="curve"/>
      <point x="619.90751" y="12.88485"/>
      <point x="522.71239" y="-44.26474"/>
      <point x="402.24277" y="-44.26474" type="curve" smooth="yes"/>
      <point x="281.77316" y="-44.26474"/>
      <point x="184.57803" y="12.88485"/>
      <point x="184.57803" y="82.83815" type="curve"/>
    </contour>
  </outline>
</glyph>
<glyph name="diaeresis" format="2">
  <advance width="616.536416184971"/>
  <unicode hex="00A8"/>
  <outline>
    <contour>
      <point x="256.36994" y="1299.58712" type="curve" smooth="yes"/>
      <point x="256.36994" y="1339.7844"/>
      <point x="223.73485" y="1372.41949"/>
      <point x="183.53757" y="1372.41949" type="curve" smooth="yes"/>
      <point x="143.34029" y="1372.41949"/>
      <point x="110.7052" y="1339.7844"/>
      <point x="110.7052" y="1299.58712" type="curve" smooth="yes"/>
      <point x="110.7052" y="1259.38984"/>
      <point x="143.34029" y="1226.75475"/>
      <point x="183.53757" y="1226.75475" type="curve" smooth="yes"/>
      <point x="223.73485" y="1226.75475"/>
      <point x="256.36994" y="1259.38984"/>
    </contour>
    <contour>
      <point x="505.83121" y="1299.58712" type="curve" smooth="yes"/>
      <point x="505.83121" y="1339.7844"/>
      <point x="473.19612" y="1372.41949"/>
      <point x="432.99884" y="1372.41949" type="curve" smooth="yes"/>
      <point x="392.80157" y="1372.41949"/>
      <point x="360.16647" y="1339.7844"/>
      <point x="360.16647" y="1299.58712" type="curve" smooth="yes"/>
      <point x="360.16647" y="1259.38984"/>
      <point x="392.80157" y="1226.75475"/>
      <point x="432.99884" y="1226.75475" type="curve" smooth="yes"/>
      <point x="473.19612" y="1226.75475"/>
      <point x="505.83121" y="1259.38984"/>
    </contour>
  </outline>
</glyph>
<glyph name="copyright" format="2">
  <advance width="1237.708092485549"/>
  <unicode hex="00A9"/>
  <anchor x="618.8540462427745" y="893.0142702312138" name="above" identifier="above"/>
  <anchor x="618.8540462427745" y="184.25451589595363" name="below" identifier="below"/>
  <anchor x="618.8540462427745" y="246.68226156069352" name="cedilla" identifier="cedilla"/>
  <outline>
    <contour>
      <point x="1157.48844" y="538.63439" type="curve" smooth="yes"/>
      <point x="1157.48844" y="835.9148"/>
      <point x="916.13446" y="1077.26879"/>
      <point x="618.85405" y="1077.26879" type="curve" smooth="yes"/>
      <point x="321.57363" y="1077.26879"/>
      <point x="80.21965" y="835.9148"/>
      <point x="80.21965" y="538.63439" type="curve" smooth="yes"/>
      <point x="80.21965" y="241.35398"/>
      <point x="321.57363" y="0.0"/>
      <point x="618.85405" y="0.0" type="curve" smooth="yes"/>
      <point x="916.13446" y="0.0"/>
      <point x="1157.48844" y="241.35398"/>
    </contour>
    <contour>
      <point x="1090.94046" y="538.63439" type="curve" smooth="yes"/>
      <point x="1090.94046" y="278.08281"/>
      <point x="879.40563" y="66.54798"/>
      <point x="618.85405" y="66.54798" type="curve" smooth="yes"/>
      <point x="358.30246" y="66.54798"/>
      <point x="146.76763" y="278.08281"/>
      <point x="146.76763" y="538.63439" type="curve" smooth="yes"/>
      <point x="146.76763" y="799.18598"/>
      <point x="358.30246" y="1010.72081"/>
      <point x="618.85405" y="1010.72081" type="curve" smooth="yes"/>
      <point x="879.40563" y="1010.72081"/>
      <point x="1090.94046" y="799.18598"/>
    </contour>
    <contour>
      <point x="618.85405" y="321.29716" type="curve" smooth="yes"/>
      <point x="498.90236" y="321.29716"/>
      <point x="401.51681" y="418.68271"/>
      <point x="401.51681" y="538.63439" type="curve" smooth="yes"/>
      <point x="401.51681" y="658.58608"/>
      <point x="498.90236" y="755.97163"/>
      <point x="618.85405" y="755.97163" type="curve" smooth="yes"/>
      <point x="699.97677" y="755.97163"/>
      <point x="770.77831" y="711.42992"/>
      <point x="808.11558" y="645.48175" type="curve"/>
      <point x="899.79482" y="645.48175" type="line"/>
      <point x="856.6755" y="758.66242"/>
      <point x="747.09081" y="839.1566"/>
      <point x="618.85405" y="839.1566" type="curve" smooth="yes"/>
      <point x="452.99133" y="839.1566"/>
      <point x="318.33184" y="704.49711"/>
      <point x="318.33184" y="538.63439" type="curve" smooth="yes"/>
      <point x="318.33184" y="372.77167"/>
      <point x="452.99133" y="238.11219"/>
      <point x="618.85405" y="238.11219" type="curve" smooth="yes"/>
      <point x="747.09048" y="238.11219"/>
      <point x="856.67493" y="318.60595"/>
      <point x="899.79453" y="431.78704" type="curve"/>
      <point x="808.11929" y="431.78704" type="line"/>
      <point x="770.78313" y="365.8419"/>
      <point x="699.97953" y="321.29716"/>
    </contour>
  </outline>
</glyph>
<glyph name="ordinal_a" format="2">
  <advance width="638.6687861271677"/>
  <unicode hex="00AA"/>
  <anchor x="527.963583815029" y="972.2497109826589" name="above" identifier="above"/>
  <anchor x="527.963583815029" y="-124.85549132947976" name="below" identifier="below"/>
  <anchor x="967.7653179190752" y="0" name="ogonek" identifier="ogonek"/>
  <outline>
    <contour>
      <point x="449.1002731323242" y="663.2505798339844" type="line"/>
      <point x="527.9635772705078" y="663.2505798339844" type="line"/>
      <point x="527.9635772705078" y="1086.9476928710938" type="line"/>
      <point x="449.1002731323242" y="1086.9476928710938" type="line"/>
      <point x="449.1002731323242" y="1043.7491455078125" type="line"/>
      <point x="410.91086909309143" y="1075.7418473696298"/>
      <point x="361.71803987287" y="1095.0000000000002"/>
      <point x="308.06272" y="1095.0" type="curve" smooth="yes"/>
      <point x="186.69613" y="1095.0"/>
      <point x="88.16185" y="996.46572"/>
      <point x="88.16185" y="875.09913" type="curve" smooth="yes"/>
      <point x="88.16185" y="753.73254"/>
      <point x="186.69613" y="655.19827"/>
      <point x="308.06272" y="655.19827" type="curve" smooth="yes"/>
      <point x="361.71803987287" y="655.19827"/>
      <point x="410.91086909309143" y="674.4564206759081"/>
      <point x="449.1002731323242" y="706.4451370239258" type="curve"/>
    </contour>
    <contour>
      <point x="449.10027" y="875.09913" type="curve" smooth="yes"/>
      <point x="449.10027" y="797.25839"/>
      <point x="385.90346" y="734.06158"/>
      <point x="308.06272" y="734.06158" type="curve" smooth="yes"/>
      <point x="230.22197" y="734.06158"/>
      <point x="167.02516" y="797.25839"/>
      <point x="167.02516" y="875.09913" type="curve" smooth="yes"/>
      <point x="167.02516" y="952.93988"/>
      <point x="230.22197" y="1016.13669"/>
      <point x="308.06272" y="1016.13669" type="curve" smooth="yes"/>
      <point x="385.90346" y="1016.13669"/>
      <point x="449.10027" y="952.93988"/>
    </contour>
    <contour>
      <point x="88.16185" y="488.03163" type="line"/>
      <point x="527.96358" y="488.03163" type="line"/>
      <point x="527.96358" y="555.31387" type="line"/>
      <point x="88.16185" y="555.31387" type="line"/>
    </contour>
  </outline>
</glyph>
<glyph name="ordinalfeminine" format="2">
  <advance width="638.6687861271677"/>
  <unicode hex="00AA"/>
  <outline>
    <contour>
      <point x="447.6190719604492" y="696.0693664550781" type="line"/>
      <point x="527.9635848999023" y="696.0693664550781" type="line"/>
      <point x="527.9635848999023" y="1119.766471862793" type="line"/>
      <point x="447.6190719604492" y="1119.766471862793" type="line"/>
      <point x="447.6190719604492" y="1077.7977905273438" type="line"/>
      <point x="409.6429554906523" y="1109.0535159496594"/>
      <point x="361.02697589953635" y="1127.8187861271676"/>
      <point x="308.0627167630059" y="1127.8187861271676" type="curve" smooth="yes"/>
      <point x="186.69612532597114" y="1127.8187861271676"/>
      <point x="88.16184971098268" y="1029.2845105121792"/>
      <point x="88.16184971098268" y="907.9179190751445" type="curve" smooth="yes"/>
      <point x="88.16184971098265" y="786.5513276381098"/>
      <point x="186.69612532597108" y="688.0170520231214"/>
      <point x="308.06271676300577" y="688.0170520231213" type="curve" smooth="yes"/>
      <point x="361.0269758995363" y="688.0170520231213"/>
      <point x="409.6429554906523" y="706.7823222006296"/>
      <point x="447.6190719604492" y="738.0404434204102" type="curve"/>
    </contour>
    <contour>
      <point x="447.61907514450866" y="907.9179190751445" type="curve" smooth="yes"/>
      <point x="447.61907514450866" y="830.8946687478901"/>
      <point x="385.0859670902601" y="768.3615606936415"/>
      <point x="308.06271676300577" y="768.3615606936415" type="curve" smooth="yes"/>
      <point x="231.03946643575142" y="768.3615606936415"/>
      <point x="168.5063583815029" y="830.8946687478901"/>
      <point x="168.5063583815029" y="907.9179190751445" type="curve" smooth="yes"/>
      <point x="168.5063583815029" y="984.9411694023988"/>
      <point x="231.03946643575148" y="1047.4742774566473"/>
      <point x="308.0627167630058" y="1047.4742774566473" type="curve" smooth="yes"/>
      <point x="385.08596709026017" y="1047.4742774566473"/>
      <point x="447.61907514450866" y="984.9411694023988"/>
    </contour>
    <contour>
      <point x="88.16184971098265" y="520.8504128819156" type="line"/>
      <point x="527.963583815029" y="520.8504128819156" type="line"/>
      <point x="527.963583815029" y="588.1326589595375" type="line"/>
      <point x="88.16184971098265" y="588.1326589595375" type="line"/>
    </contour>
  </outline>
</glyph>
<glyph name="angledblleft" format="2">
  <advance width="883.1445086704393"/>
  <unicode hex="00AB"/>
  <outline>
    <contour>
      <point x="772.4393081665039" y="232.02312469482422" type="line"/>
      <point x="523.5562210083008" y="487.9768753051758" type="line"/>
      <point x="772.4393081665039" y="743.9306335449219" type="line"/>
      <point x="659.2414703369141" y="743.9306335449219" type="line"/>
      <point x="410.35838317871094" y="487.9768753051758" type="line"/>
      <point x="659.2414703369141" y="232.02312469482422" type="line"/>
    </contour>
    <contour>
      <point x="472.78612518310547" y="232.02312469482422" type="line"/>
      <point x="223.90303802490234" y="487.9768753051758" type="line"/>
      <point x="472.78612518310547" y="743.9306335449219" type="line"/>
      <point x="359.5882873535156" y="743.9306335449219" type="line"/>
      <point x="110.7052001953125" y="487.9768753051758" type="line"/>
      <point x="359.5882873535156" y="232.02312469482422" type="line"/>
    </contour>
  </outline>
</glyph>
<glyph name="angleleft_dbl" format="2">
  <advance width="805.1291406625062"/>
  <unicode hex="00AB"/>
  <outline>
    <contour>
      <point x="349.7484436035156" y="488.1517028808594" type="line"/>
      <point x="586.7445678710938" y="215.67001342773438" type="line"/>
      <point x="694.2515563964844" y="215.67001342773438" type="line"/>
      <point x="457.25543212890625" y="488.1517028808594" type="line"/>
      <point x="694.2515563964844" y="760.6333999633789" type="line"/>
      <point x="586.7445678710938" y="760.6333999633789" type="line"/>
    </contour>
    <contour>
      <point x="110.87757873535156" y="488.1517028808594" type="line"/>
      <point x="342.8009567260742" y="220.85484313964844" type="line"/>
      <point x="450.1958694458008" y="220.85484313964844" type="line"/>
      <point x="218.27249145507812" y="488.1517028808594" type="line"/>
      <point x="450.1958694458008" y="755.4485702514648" type="line"/>
      <point x="342.8009567260742" y="755.4485702514648" type="line"/>
    </contour>
  </outline>
</glyph>
<glyph name="logicalnot" format="2">
  <advance width="989.2716763005778"/>
  <unicode hex="00AC"/>
  <outline>
    <contour>
      <point x="110.7052001953125" y="447.39884185791016" type="line"/>
      <point x="797.4104080200195" y="447.39884185791016" type="line"/>
      <point x="797.4104080200195" y="0" type="line"/>
      <point x="878.5664749145508" y="0" type="line"/>
      <point x="878.5664749145508" y="528.5549163818359" type="line"/>
      <point x="110.7052001953125" y="528.5549163818359" type="line"/>
    </contour>
  </outline>
</glyph>
<glyph name="registered" format="2">
  <advance width="1237.0420067210753"/>
  <unicode hex="00AE"/>
  <outline>
    <contour>
      <point x="1157.2734" y="538.7524" type="curve" smooth="yes"/>
      <point x="1157.2734" y="836.09794"/>
      <point x="915.86655" y="1077.5048"/>
      <point x="618.521" y="1077.5048" type="curve" smooth="yes"/>
      <point x="321.17546" y="1077.5048"/>
      <point x="79.7686" y="836.09794"/>
      <point x="79.7686" y="538.7524" type="curve" smooth="yes"/>
      <point x="79.7686" y="241.40686"/>
      <point x="321.17546" y="0.0"/>
      <point x="618.521" y="0.0" type="curve" smooth="yes"/>
      <point x="915.86655" y="0.0"/>
      <point x="1157.2734" y="241.40686"/>
    </contour>
    <contour>
      <point x="1077.59669" y="538.7524" type="curve" smooth="yes"/>
      <point x="1077.59669" y="285.38164"/>
      <point x="871.89177" y="79.67672"/>
      <point x="618.521" y="79.67672" type="curve" smooth="yes"/>
      <point x="365.15024" y="79.67672"/>
      <point x="159.44532" y="285.38164"/>
      <point x="159.44532" y="538.7524" type="curve" smooth="yes"/>
      <point x="159.44532" y="792.12317"/>
      <point x="365.15024" y="997.82808"/>
      <point x="618.521" y="997.82808" type="curve" smooth="yes"/>
      <point x="871.89177" y="997.82808"/>
      <point x="1077.59669" y="792.12317"/>
    </contour>
    <contour>
      <point x="475.9524612426758" y="745.6582336425781" type="line"/>
      <point x="681.0056957219265" y="745.6582336425781" type="line"/>
      <point x="769.5238011540218" y="745.6582336425781"/>
      <point x="800.70252" y="686.859530047465"/>
      <point x="800.70252" y="639.49351" type="curve" smooth="yes"/>
      <point x="800.70252" y="592.1274931770406"/>
      <point x="769.5238069232582" y="533.3287904263017"/>
      <point x="681.0056876840041" y="533.3287899230688" type="curve"/>
      <point x="475.9524612426758" y="533.3287887573242" type="line"/>
    </contour>
    <contour>
      <point x="396.6787414550781" y="254.42063903808594" type="line"/>
      <point x="475.9524612426758" y="254.42063903808594" type="line"/>
      <point x="475.9524612426758" y="457.2886962890625" type="line"/>
      <point x="672.5798034667969" y="457.2886962890625" type="line"/>
      <point x="804.8230209350586" y="254.42063903808594" type="line"/>
      <point x="898.6082534790039" y="254.42063903808594" type="line"/>
      <point x="758.8513641357422" y="468.22035217285156" type="line"/>
      <point x="830.1615567691932" y="493.42334410859195"/>
      <point x="881.08491" y="559.6605547620001"/>
      <point x="881.08491" y="640.02145" type="curve" smooth="yes"/>
      <point x="881.08491" y="720.7718275478053"/>
      <point x="827.5981519990112" y="823.0841600665285"/>
      <point x="674.5378" y="823.0841599900002" type="curve"/>
      <point x="396.6787414550781" y="823.0841598510742" type="line"/>
    </contour>
  </outline>
</glyph>
<glyph name="macron" format="2">
  <advance width="711.4682080924855"/>
  <unicode hex="00AF"/>
  <outline>
    <contour>
      <point x="110.7052" y="1013.99059" type="line"/>
      <point x="600.76301" y="1013.99059" type="line"/>
      <point x="600.76301" y="1087.84261" type="line"/>
      <point x="110.7052" y="1087.84261" type="line"/>
    </contour>
  </outline>
</glyph>
<glyph name="degree" format="2">
  <advance width="651.4186622625928"/>
  <unicode hex="00B0"/>
  <outline>
    <contour>
      <point x="571.92733" y="848.782" type="curve" smooth="yes"/>
      <point x="571.92733" y="984.67341"/>
      <point x="461.60074" y="1095.0"/>
      <point x="325.70933" y="1095.0" type="curve" smooth="yes"/>
      <point x="189.81792" y="1095.0"/>
      <point x="79.49133" y="984.67341"/>
      <point x="79.49133" y="848.782" type="curve" smooth="yes"/>
      <point x="79.49133" y="712.89059"/>
      <point x="189.81792" y="602.564"/>
      <point x="325.70933" y="602.564" type="curve" smooth="yes"/>
      <point x="461.60074" y="602.564"/>
      <point x="571.92733" y="712.89059"/>
    </contour>
    <contour>
      <point x="492.21404" y="848.782" type="curve" smooth="yes"/>
      <point x="492.21404" y="756.88555"/>
      <point x="417.60578" y="682.27729"/>
      <point x="325.70933" y="682.27729" type="curve" smooth="yes"/>
      <point x="233.81288" y="682.27729"/>
      <point x="159.20462" y="756.88555"/>
      <point x="159.20462" y="848.782" type="curve" smooth="yes"/>
      <point x="159.20462" y="940.67845"/>
      <point x="233.81288" y="1015.28671"/>
      <point x="325.70933" y="1015.28671" type="curve" smooth="yes"/>
      <point x="417.60578" y="1015.28671"/>
      <point x="492.21404" y="940.67845"/>
    </contour>
  </outline>
</glyph>
<glyph name="plusminus" format="2">
  <advance width="895.630057803468"/>
  <unicode hex="00B1"/>
  <outline>
    <contour>
      <point x="407.2369918823242" y="229.94219970703125" type="line"/>
      <point x="488.39306640625" y="229.94219970703125" type="line"/>
      <point x="488.39306640625" y="526.473991394043" type="line"/>
      <point x="784.9248580932617" y="526.473991394043" type="line"/>
      <point x="784.9248580932617" y="607.6300582885742" type="line"/>
      <point x="488.39306640625" y="607.6300582885742" type="line"/>
      <point x="488.39306640625" y="904.1618499755859" type="line"/>
      <point x="407.2369918823242" y="904.1618499755859" type="line"/>
      <point x="407.2369918823242" y="607.6300582885742" type="line"/>
      <point x="110.7052001953125" y="607.6300582885742" type="line"/>
      <point x="110.7052001953125" y="526.473991394043" type="line"/>
      <point x="407.2369918823242" y="526.473991394043" type="line"/>
    </contour>
    <contour>
      <point x="110.70520231213872" y="71.79190751445086" type="line"/>
      <point x="784.9248554913294" y="71.79190751445086" type="line"/>
      <point x="784.9248554913294" y="152.9479768786127" type="line"/>
      <point x="110.70520231213872" y="152.9479768786127" type="line"/>
    </contour>
  </outline>
</glyph>
<glyph name="sup_two" format="2">
  <advance width="668.8895127993394"/>
  <unicode hex="00B2"/>
  <outline>
    <contour>
      <point x="107.99356079101562" y="382.4942932128906" type="line"/>
      <point x="564.6252670288086" y="382.4942932128906" type="line"/>
      <point x="564.6252670288086" y="462.8387908935547" type="line"/>
      <point x="229.2972869873047" y="462.8387908935547" type="line"/>
      <point x="487.4466018676758" y="691.0590286254883" type="line"/>
      <point x="536.52209" y="734.44484"/>
      <point x="564.62527" y="796.80063"/>
      <point x="564.62527" y="862.30432" type="curve"/>
      <point x="564.62527" y="988.45569"/>
      <point x="462.20636" y="1090.87459"/>
      <point x="336.055" y="1090.87459" type="curve" smooth="yes"/>
      <point x="209.90363" y="1090.87459"/>
      <point x="107.48472" y="988.45569"/>
      <point x="107.48472" y="862.30432" type="curve"/>
      <point x="187.82923126220703" y="862.3043212890625" type="line"/>
      <point x="187.82923" y="944.11234"/>
      <point x="254.24697" y="1010.53008"/>
      <point x="336.055" y="1010.53008" type="curve" smooth="yes"/>
      <point x="417.86302" y="1010.53008"/>
      <point x="484.28076" y="944.11234"/>
      <point x="484.28076" y="862.30432" type="curve"/>
      <point x="484.28076" y="819.82577"/>
      <point x="466.0561" y="779.3886"/>
      <point x="434.23109" y="751.25329" type="curve"/>
      <point x="107.99356079101562" y="462.8387908935547" type="line"/>
    </contour>
  </outline>
</glyph>
<glyph name="sup_three" format="2">
  <advance width="675.3304706853841"/>
  <unicode hex="00B3"/>
  <outline>
    <contour>
      <point x="101.04376983642578" y="577.7567672729492" type="line"/>
      <point x="101.04377" y="464.04259"/>
      <point x="207.06981" y="372.79045"/>
      <point x="339.27547" y="372.79045" type="curve" smooth="yes"/>
      <point x="471.48114" y="372.79045"/>
      <point x="577.50718" y="464.04259"/>
      <point x="577.50718" y="577.75677" type="curve"/>
      <point x="577.50718" y="646.40351271726"/>
      <point x="538.8684147830911" y="706.8644860039394"/>
      <point x="479.15687561035156" y="743.9913482666016" type="curve"/>
      <point x="531.3251321603015" y="779.456396936804"/>
      <point x="564.62527" y="834.49590615531"/>
      <point x="564.62527" y="896.62658" type="curve"/>
      <point x="564.62527" y="1004.42366"/>
      <point x="464.38371" y="1090.87459"/>
      <point x="339.27547" y="1090.87459" type="curve" smooth="yes"/>
      <point x="214.16724" y="1090.87459"/>
      <point x="113.92568" y="1004.42366"/>
      <point x="113.92568" y="896.62658" type="curve"/>
      <point x="194.2701873779297" y="896.626579284668" type="line"/>
      <point x="194.27019" y="959.411"/>
      <point x="259.14223" y="1010.53008"/>
      <point x="339.27547" y="1010.53008" type="curve" smooth="yes"/>
      <point x="419.40872" y="1010.53008"/>
      <point x="484.28076" y="959.411"/>
      <point x="484.28076" y="896.62658" type="curve"/>
      <point x="484.28076" y="845.5587206463183"/>
      <point x="441.3455025854865" y="782.7230871403488"/>
      <point x="321.6893440393066" y="782.7230904927027" type="curve"/>
      <point x="299.1032180786133" y="782.7230911254883" type="line"/>
      <point x="299.1032180786133" y="702.3785781860352" type="line"/>
      <point x="321.6893424987793" y="702.3785781860352" type="line"/>
      <point x="447.98100974371897" y="702.3785781860352"/>
      <point x="497.16268" y="635.2548290316307"/>
      <point x="497.16268" y="577.75677" type="curve"/>
      <point x="497.16268" y="509.06244"/>
      <point x="426.52516" y="453.13495"/>
      <point x="339.27547" y="453.13495" type="curve" smooth="yes"/>
      <point x="252.02579" y="453.13495"/>
      <point x="181.38827" y="509.06244"/>
      <point x="181.38827" y="577.75677" type="curve"/>
    </contour>
  </outline>
</glyph>
